<?xml version="1.0" encoding="UTF-8" standalone="no"?>
<svg xmlns="http://www.w3.org/2000/svg" height="58px" width="161px" version="1.1" xmlns:xlink="http://www.w3.org/1999/xlink" viewBox="0 0 161 58"><!-- Generator: Sketch 47.1 (45422) - http://www.bohemiancoding.com/sketch -->
 <title>MateuszTurzynskiDesc</title>
 <desc>Created with Sketch.</desc>
 <g id="Page-1" fill-rule="evenodd" fill="none">
  <g id="DescriptionsWeb">
   <g id="MateuszTurzynski">
    <rect id="RectangleAdd" height="19.494" width="91.784" y="38.176" x="68.229" fill="#1F2436"/>
    <rect id="RectangleMain" height="38.176" width="160.01" y="0" x="0" fill="#1F2436"/>
    <path d="m16.94 14.281v13.719h1.803v-17.057h-2.656l-2.705 13.621-2.802-13.621h-2.6559v17.057h1.657v-13.597l2.8269 13.573h1.827l2.705-13.695zm9.686 10.283h-4.313l-0.658 3.436h-1.754l3.265-17.057h2.754l3.265 17.057h-1.901l-0.658-3.436zm-2.193-11.477l-1.876 9.845h3.801l-1.925-9.845zm9.345 14.913h-1.876v-15.327h-3.144v-1.73h8.163v1.73h-3.143v15.327zm6.031-9.503v-5.824h5.117v-1.73h-7.018v17.057h7.018v-1.73h-5.117v-6.068h4.167v-1.705h-4.167zm8.37-7.554h-1.876v12.939c0 2.583 1.194 4.313 3.801 4.313 2.632 0 3.826-1.73 3.826-4.313v-12.939h-1.779v13.036c0 1.536-0.609 2.461-1.974 2.461-1.389 0-1.998-0.925-1.998-2.461v-13.036zm10.905-0.171c-2.559 0-3.777 1.633-3.777 4.264 0 4.801 5.702 5.166 5.702 8.968 0 1.535-0.634 2.436-1.998 2.436-1.365 0-1.999-0.901-1.999-2.436v-1.072h-1.778v0.974c0 2.583 1.218 4.265 3.825 4.265 2.608 0 3.85-1.682 3.85-4.265 0-4.8-5.726-5.166-5.726-8.991 0-1.511 0.585-2.413 1.949-2.413 1.365 0 1.95 0.902 1.95 2.437v0.56h1.803v-0.463c0-2.582-1.218-4.264-3.801-4.264zm12.659 15.498h-5.824l5.872-13.622v-1.705h-7.529v1.73h5.58l-5.848 13.621v1.706h7.749v-1.73zm9.308 1.73v-15.327h3.143v-1.73h-8.187v1.73h3.143v15.327h1.901zm5.958-17.057h-1.876v12.939c0 2.583 1.194 4.313 3.801 4.313 2.632 0 3.826-1.73 3.826-4.313v-12.939h-1.779v13.036c0 1.536-0.609 2.461-1.974 2.461-1.389 0-1.998-0.925-1.998-2.461v-13.036zm7.322 0h3.802c2.677 0 3.797 1.364 3.797 3.899v1.388c0 1.877-0.65 3.046-2.116 3.509 1.556 0.463 2.146 1.731 2.146 3.558v2.656c0 0.756 0.02 1.462 0.34 2.047h-1.93c-0.21-0.487-0.31-0.926-0.31-2.071v-2.681c0-1.925-0.904-2.534-2.488-2.534h-1.34v7.286h-1.901v-17.057zm1.901 8.041h1.413c1.511 0 2.415-0.487 2.415-2.339v-1.633c0-1.535-0.563-2.339-1.976-2.339h-1.852v6.311zm14.878 7.286h-5.83l5.88-13.622v-1.705h-7.53v1.73h5.58l-5.85 13.621v1.706h7.75v-1.73zm4.47 1.73h1.88v-6.116l3.63-10.941h-1.81l-2.68 8.382-2.65-8.382h-1.98l3.61 10.941v6.116zm11.17-20.517l-1.7 2.4854h1.31l2.27-2.4854h-1.88zm-2.92 6.7014l4.36 13.816h1.97v-17.057h-1.68v12.33l-3.95-12.33h-2.41v17.057h1.71v-13.816zm11.56-3.412c-2.56 0-3.78 1.633-3.78 4.264 0 4.801 5.71 5.166 5.71 8.968 0 1.535-0.64 2.436-2 2.436-1.37 0-2-0.901-2-2.436v-1.072h-1.78v0.974c0 2.583 1.22 4.265 3.83 4.265 2.6 0 3.85-1.682 3.85-4.265 0-4.8-5.73-5.166-5.73-8.991 0-1.511 0.58-2.413 1.95-2.413 1.36 0 1.95 0.902 1.95 2.437v0.56h1.8v-0.463c0-2.582-1.22-4.264-3.8-4.264zm11.73 17.228h1.95l-4.46-9.284 4.32-7.773h-1.93l-4.53 8.236v-8.236h-1.9v17.057h1.9v-5.726l1-1.682 3.65 7.408zm3.11-17.057v17.057h1.9v-17.057h-1.9z" fill="#fff"/>
    <path id="GoYello" fill="#fff" d="m97.81 41.531c-1.738 0-2.453 1.235-2.453 2.875v5.816c0 1.641 0.715 2.875 2.453 2.875s2.45-1.234 2.45-2.875v-3.086h-2.222v0.682h1.51v2.453c0 1.218-0.471 2.128-1.722 2.128-1.25 0-1.722-0.91-1.722-2.128v-5.913c0-1.219 0.472-2.145 1.722-2.145 1.251 0 1.722 0.926 1.722 2.145v0.893h0.712v-0.845c0-1.64-0.712-2.875-2.45-2.875zm3.45 8.691v-5.816c0-1.657 0.77-2.875 2.49-2.875 1.75 0 2.52 1.218 2.52 2.875v5.816c0 1.657-0.77 2.875-2.52 2.875-1.72 0-2.49-1.218-2.49-2.875zm0.75-5.864v5.913c0 1.234 0.49 2.144 1.74 2.144 1.26 0 1.77-0.91 1.77-2.144v-5.913c0-1.235-0.51-2.145-1.77-2.145-1.25 0-1.74 0.91-1.74 2.145zm7.38 8.642h0.75v-4.37l2.57-7.002h-0.73l-2.18 5.979-2.18-5.979h-0.78l2.55 7.002v4.37zm4.95-6.108v-4.581h3.74v-0.683h-4.49v11.372h4.49v-0.682h-3.74v-4.744h3.1v-0.682h-3.1zm9.07 6.108v-0.682h-3.57v-10.69h-0.75v11.372h4.32zm5.24 0v-0.682h-3.57v-10.69h-0.75v11.372h4.32zm0.87-2.778v-5.816c0-1.657 0.76-2.875 2.49-2.875 1.75 0 2.51 1.218 2.51 2.875v5.816c0 1.657-0.76 2.875-2.51 2.875-1.73 0-2.49-1.218-2.49-2.875zm0.75-5.864v5.913c0 1.234 0.49 2.144 1.74 2.144 1.26 0 1.77-0.91 1.77-2.144v-5.913c0-1.235-0.51-2.145-1.77-2.145-1.25 0-1.74 0.91-1.74 2.145z"/>
   </g>
  </g>
 </g>
</svg>
