<?xml version="1.0" encoding="UTF-8" standalone="no"?>
<svg xmlns="http://www.w3.org/2000/svg" height="58px" width="161px" version="1.1" xmlns:xlink="http://www.w3.org/1999/xlink" viewBox="0 0 161 58"><!-- Generator: Sketch 47.1 (45422) - http://www.bohemiancoding.com/sketch -->
 <title>AdamCetnerowskiDesc</title>
 <desc>Created with Sketch.</desc>
 <g id="Page-1" fill-rule="evenodd" fill="none">
  <g id="DescriptionsWeb">
   <g id="AdamCetnerowski">
    <rect id="RectangleAdd" height="19.494" width="91.784" y="38.176" x="68.229" fill="#1F2436"/>
    <rect id="RectangleMain" height="38.176" width="160.01" y="0" x="0" fill="#1F2436"/>
    <path d="m15.326 24.564h-4.313l-0.658 3.436h-1.7547l3.2657-17.057h2.753l3.265 17.057h-1.9l-0.658-3.436zm-2.193-11.477l-1.877 9.845h3.802l-1.925-9.845zm5.933-2.144h3.996c2.657 0 3.875 1.608 3.875 4.24v8.601c0 2.608-1.218 4.216-3.875 4.216h-3.996v-17.057zm1.901 15.327h2.071c1.365 0 2.023-0.853 2.023-2.412v-8.773c0-1.559-0.658-2.412-2.047-2.412h-2.047v13.597zm13.658-1.706h-4.313l-0.658 3.436h-1.755l3.266-17.057h2.753l3.265 17.057h-1.9l-0.658-3.436zm-2.193-11.477l-1.877 9.845h3.802l-1.925-9.845zm14.925 1.194v13.719h1.803v-17.057h-2.656l-2.705 13.621-2.802-13.621h-2.656v17.057h1.657v-13.597l2.826 13.573h1.828l2.705-13.695zm10.6-3.509c-2.608 0-3.826 1.706-3.826 4.289v8.821c0 2.583 1.218 4.289 3.826 4.289 2.631 0 3.85-1.706 3.85-4.289v-2.12h-1.803v2.217c0 1.536-0.61 2.461-1.999 2.461-1.364 0-1.998-0.925-1.998-2.461v-9.016c0-1.535 0.634-2.461 1.998-2.461 1.389 0 1.999 0.926 1.999 2.461v1.633h1.803v-1.535c0-2.583-1.219-4.289-3.85-4.289zm7.176 7.725v-5.824h5.117v-1.73h-7.018v17.057h7.018v-1.73h-5.117v-6.068h4.167v-1.705h-4.167zm10.904 9.503v-15.327h3.144v-1.73h-8.163v1.73h3.143v15.327h1.876zm5.812-13.792l4.362 13.792h1.974v-17.057h-1.682v12.33l-3.947-12.33h-2.413v17.057h1.706v-13.792zm9.881 4.289v-5.824h5.117v-1.73h-7.018v17.057h7.018v-1.73h-5.117v-6.068h4.167v-1.705h-4.167zm6.567-7.554h3.803c2.68 0 3.8 1.364 3.8 3.899v1.388c0 1.877-0.66 3.046-2.12 3.509 1.56 0.463 2.14 1.731 2.14 3.558v2.656c0 0.756 0.03 1.462 0.35 2.047h-1.93c-0.22-0.487-0.32-0.926-0.32-2.071v-2.681c0-1.925-0.9-2.534-2.48-2.534h-1.34v7.286h-1.903v-17.057zm1.903 8.041h1.41c1.51 0 2.41-0.487 2.41-2.339v-1.633c0-1.535-0.56-2.339-1.97-2.339h-1.85v6.311zm7.25 4.898v-8.821c0-2.607 1.29-4.289 3.9-4.289 2.63 0 3.92 1.682 3.92 4.289v8.821c0 2.583-1.29 4.289-3.92 4.289-2.61 0-3.9-1.706-3.9-4.289zm1.87-8.919v9.016c0 1.56 0.66 2.461 2.03 2.461 1.38 0 2.02-0.901 2.02-2.461v-9.016c0-1.535-0.64-2.461-2.02-2.461-1.37 0-2.03 0.926-2.03 2.461zm13.66 1.462l1.63 11.575h2.51l2.32-17.057h-1.66l-1.92 14.547-1.88-14.523h-1.88l-1.9 14.499-1.99-14.523h-1.86l2.34 17.057h2.61l1.68-11.575zm11.27-5.653c-2.56 0-3.78 1.633-3.78 4.264 0 4.801 5.71 5.166 5.71 8.968 0 1.535-0.64 2.436-2 2.436-1.37 0-2-0.901-2-2.436v-1.072h-1.78v0.974c0 2.583 1.22 4.265 3.83 4.265 2.6 0 3.85-1.682 3.85-4.265 0-4.8-5.73-5.166-5.73-8.991 0-1.511 0.59-2.413 1.95-2.413s1.95 0.902 1.95 2.437v0.56h1.8v-0.463c0-2.582-1.22-4.264-3.8-4.264zm11.73 17.228h1.95l-4.46-9.284 4.32-7.773h-1.93l-4.53 8.236v-8.236h-1.9v17.057h1.9v-5.726l1-1.682 3.65 7.408zm3.11-17.057v17.057h1.9v-17.057h-1.9z" fill="#fff"/>
    <path id="Intel" fill="#fff" d="m103.26 41.628v11.372h0.75v-11.372h-0.75zm2.53 1.235l3.55 10.137h0.83v-11.372h-0.68v9.601l-3.41-9.601h-0.98v11.372h0.69v-10.137zm8.13 10.137v-10.689h2.32v-0.683h-5.38v0.683h2.31v10.689h0.75zm3.79-6.108v-4.581h3.74v-0.683h-4.49v11.372h4.49v-0.682h-3.74v-4.744h3.1v-0.682h-3.1zm9.07 6.108v-0.682h-3.57v-10.69h-0.75v11.372h4.32z"/>
   </g>
  </g>
 </g>
</svg>
