<?xml version="1.0" encoding="UTF-8" standalone="no"?>
<svg xmlns="http://www.w3.org/2000/svg" height="58px" width="161px" version="1.1" xmlns:xlink="http://www.w3.org/1999/xlink" viewBox="0 0 161 58"><!-- Generator: Sketch 47.1 (45422) - http://www.bohemiancoding.com/sketch -->
 <title>BeataButkiewiczDesc</title>
 <desc>Created with Sketch.</desc>
 <g id="Page-1" fill-rule="evenodd" fill="none">
  <g id="DescriptionsWeb">
   <g id="BeataButkiewicz">
    <rect id="RectangleAdd" height="19.494" width="160.01" y="38.176" x="-2.8422e-14" fill="#1F2436"/>
    <rect id="RectangleMain" height="38.176" width="160.01" y="0" x="0" fill="#1F2436"/>
    <path d="m15.058 10.943h3.825c2.656 0 3.704 1.267 3.704 3.777v0.804c0 1.803-0.511 2.924-1.998 3.387 1.657 0.463 2.291 1.779 2.291 3.655v1.438c0 2.558-1.243 3.996-3.899 3.996h-3.923v-17.057zm1.9 7.237h1.462c1.511 0 2.291-0.487 2.291-2.266v-0.999c0-1.511-0.512-2.242-1.876-2.242h-1.877v5.507zm0 8.09h2.023c1.389 0 2.022-0.731 2.022-2.315v-1.511c0-1.9-0.755-2.534-2.388-2.534h-1.657v6.36zm9.248-7.773v-5.824h5.117v-1.73h-7.018v17.057h7.018v-1.73h-5.117v-6.068h4.167v-1.705h-4.167zm12.805 6.067h-4.313l-0.658 3.436h-1.754l3.265-17.057h2.753l3.266 17.057h-1.901l-0.658-3.436zm-2.193-11.477l-1.876 9.845h3.801l-1.925-9.845zm9.345 14.913h-1.876v-15.327h-3.144v-1.73h8.163v1.73h-3.143v15.327zm9.442-3.436h-4.313l-0.658 3.436h-1.754l3.265-17.057h2.754l3.265 17.057h-1.901l-0.658-3.436zm-2.193-11.477l-1.876 9.845h3.801l-1.925-9.845zm9.406-2.144h3.826c2.656 0 3.704 1.267 3.704 3.777v0.804c0 1.803-0.512 2.924-1.999 3.387 1.657 0.463 2.291 1.779 2.291 3.655v1.438c0 2.558-1.243 3.996-3.899 3.996h-3.923v-17.057zm1.901 7.237h1.462c1.511 0 2.29-0.487 2.29-2.266v-0.999c0-1.511-0.511-2.242-1.876-2.242h-1.876v5.507zm0 8.09h2.022c1.389 0 2.023-0.731 2.023-2.315v-1.511c0-1.9-0.756-2.534-2.388-2.534h-1.657v6.36zm9.15-15.327h-1.877v12.939c0 2.583 1.194 4.313 3.802 4.313 2.631 0 3.825-1.73 3.825-4.313v-12.939h-1.778v13.036c0 1.536-0.61 2.461-1.974 2.461-1.389 0-1.998-0.925-1.998-2.461v-13.036zm11.66 17.057v-15.327h3.143v-1.73h-8.163v1.73h3.143v15.327h1.877zm10.685 0h1.949l-4.459-9.284 4.313-7.773h-1.925l-4.533 8.236v-8.236h-1.9v17.057h1.9v-5.726l1-1.682 3.655 7.408zm3.107-17.057v17.057h1.899v-17.057h-1.899zm5.449 7.554v-5.824h5.11v-1.73h-7.01v17.057h7.01v-1.73h-5.11v-6.068h4.16v-1.705h-4.16zm12.78-2.072l1.63 11.575h2.51l2.31-17.057h-1.65l-1.93 14.547-1.87-14.523h-1.88l-1.9 14.499-2-14.523h-1.85l2.34 17.057h2.61l1.68-11.575zm7.69-5.482v17.057h1.9v-17.057h-1.9zm7.22-0.171c-2.61 0-3.83 1.706-3.83 4.289v8.821c0 2.583 1.22 4.289 3.83 4.289 2.63 0 3.85-1.706 3.85-4.289v-2.12h-1.8v2.217c0 1.536-0.61 2.461-2 2.461-1.37 0-2-0.925-2-2.461v-9.016c0-1.535 0.63-2.461 2-2.461 1.39 0 2 0.926 2 2.461v1.633h1.8v-1.535c0-2.583-1.22-4.289-3.85-4.289zm12.76 15.498h-5.83l5.88-13.622v-1.705h-7.53v1.73h5.58l-5.85 13.621v1.706h7.75v-1.73z" fill="#fff"/>
    <path id="CRT" fill="#fff" d="m13.138 41.531c-1.739 0-2.453 1.235-2.453 2.875v5.816c0 1.641 0.714 2.875 2.453 2.875 1.738 0 2.453-1.234 2.453-2.875v-1.299h-0.715v1.348c0 1.218-0.471 2.128-1.722 2.128s-1.722-0.91-1.722-2.128v-5.913c0-1.219 0.471-2.145 1.722-2.145s1.722 0.926 1.722 2.145v0.991h0.715v-0.943c0-1.64-0.715-2.875-2.453-2.875zm4.215 5.361v-4.581h3.737v-0.683h-4.484v11.372h4.484v-0.682h-3.737v-4.744h3.103v-0.682h-3.103zm5.434-4.029l3.558 10.137h0.828v-11.372h-0.682v9.601l-3.411-9.601h-0.975v11.372h0.682v-10.137zm8.131 10.137v-10.689h2.323v-0.683h-5.377v0.683h2.307v10.689h0.747zm3.046-11.372h2.372c1.738 0 2.436 0.959 2.436 2.567v0.991c0 1.332-0.52 2.096-1.64 2.356 1.169 0.26 1.64 1.088 1.64 2.323v1.77c0 0.472 0.033 0.991 0.276 1.365h-0.779c-0.195-0.341-0.244-0.747-0.244-1.365v-1.787c0-1.51-0.828-1.933-2.128-1.933h-1.186v5.085h-0.747v-11.372zm0.747 5.605h1.202c1.332 0 2.112-0.374 2.112-1.901v-1.072c0-1.218-0.471-1.949-1.706-1.949h-1.608v4.922zm6.035-5.605h-0.747v8.594c0 1.625 0.698 2.875 2.437 2.875 1.738 0 2.42-1.25 2.42-2.875v-8.594h-0.698v8.627c0 1.218-0.455 2.16-1.706 2.16s-1.706-0.942-1.706-2.16v-8.627zm11.38 1.268v10.104h0.714v-11.372h-1.072l-2.371 10.056-2.388-10.056h-1.073v11.372h0.666v-10.072l2.405 10.056h0.747l2.372-10.088zm4.126-1.268h2.372c1.738 0 2.436 0.959 2.436 2.567v0.991c0 1.332-0.519 2.096-1.64 2.356 1.169 0.26 1.64 1.088 1.64 2.323v1.77c0 0.472 0.033 0.991 0.277 1.365h-0.78c-0.195-0.341-0.244-0.747-0.244-1.365v-1.787c0-1.51-0.828-1.933-2.128-1.933h-1.186v5.085h-0.747v-11.372zm0.747 5.605h1.202c1.332 0 2.112-0.374 2.112-1.901v-1.072c0-1.218-0.471-1.949-1.706-1.949h-1.608v4.922zm5.272 2.989v-5.816c0-1.657 0.763-2.875 2.485-2.875 1.755 0 2.518 1.218 2.518 2.875v5.816c0 1.657-0.763 2.875-2.518 2.875-1.722 0-2.485-1.218-2.485-2.875zm0.747-5.864v5.913c0 1.234 0.487 2.144 1.738 2.144 1.267 0 1.771-0.91 1.771-2.144v-5.913c0-1.235-0.504-2.145-1.771-2.145-1.251 0-1.738 0.91-1.738 2.145zm10.307 7.96h-4.337l4.402-9.991v-0.699h-4.971v0.683h4.192l-4.403 10.007v0.682h5.117v-0.682zm5.402-8.626l1.527 9.308h0.975l1.819-11.372h-0.666l-1.641 10.332-1.592-10.283h-0.796l-1.657 10.316-1.705-10.365h-0.731l1.835 11.372h1.04l1.592-9.308zm5.223 6.53v-5.816c0-1.657 0.763-2.875 2.485-2.875 1.755 0 2.518 1.218 2.518 2.875v5.816c0 1.657-0.763 2.875-2.518 2.875-1.722 0-2.485-1.218-2.485-2.875zm0.747-5.864v5.913c0 1.234 0.487 2.144 1.738 2.144 1.267 0 1.771-0.91 1.771-2.144v-5.913c0-1.235-0.504-2.145-1.771-2.145-1.251 0-1.738 0.91-1.738 2.145zm5.109 8.642c0.26 0.016 0.504 0.016 0.747 0 1.381-0.065 2.275-0.796 2.275-2.794v-8.578h-0.748v8.627c0 1.397-0.536 1.965-1.608 2.046-0.211 0.017-0.439 0.033-0.666 0.017v0.682zm4.8-11.372h-0.747v8.594c0 1.625 0.699 2.875 2.437 2.875s2.42-1.25 2.42-2.875v-8.594h-0.698v8.627c0 1.218-0.455 2.16-1.706 2.16s-1.706-0.942-1.706-2.16v-8.627zm10.214 11.372h-0.74v-10.689h-2.33v-0.683h5.38v0.683h-2.31v10.689zm7.1-2.518h-3.55l-0.56 2.518h-0.69l2.49-11.388h1.09l2.53 11.388h-0.75l-0.56-2.518zm-1.79-8.009l-1.64 7.359h3.31l-1.67-7.359zm8.36 10.527v-0.682h-3.58v-10.69h-0.74v11.372h4.32zm1.66-6.108v-4.581h3.74v-0.683h-4.49v11.372h4.49v-0.682h-3.74v-4.744h3.1v-0.682h-3.1zm5.44-4.029l3.55 10.137h0.83v-11.372h-0.68v9.601l-3.41-9.601h-0.98v11.372h0.69v-10.137zm8.13 10.137v-10.689h2.32v-0.683h-5.38v0.683h2.31v10.689h0.75zm6.01-13.678l-1.15 1.543h0.57l1.36-1.543h-0.78zm-0.53 2.209c1.75 0 2.52 1.218 2.52 2.875v5.816c0 1.657-0.77 2.875-2.52 2.875-1.72 0-2.49-1.218-2.49-2.875v-5.816c0-1.657 0.77-2.875 2.49-2.875zm0 0.682c-1.25 0-1.74 0.91-1.74 2.145v5.913c0 1.234 0.49 2.144 1.74 2.144 1.27 0 1.77-0.91 1.77-2.144v-5.913c0-1.235-0.5-2.145-1.77-2.145zm7.87 1.479l1.53 9.308h0.97l1.82-11.372h-0.67l-1.64 10.332-1.59-10.283h-0.79l-1.66 10.316-1.71-10.365h-0.73l1.84 11.372h1.04l1.59-9.308z"/>
   </g>
  </g>
 </g>
</svg>
