<?xml version="1.0" encoding="UTF-8" standalone="no"?>
<svg xmlns="http://www.w3.org/2000/svg" height="58px" width="161px" version="1.1" xmlns:xlink="http://www.w3.org/1999/xlink" viewBox="0 0 161 58"><!-- Generator: Sketch 47.1 (45422) - http://www.bohemiancoding.com/sketch -->
 <title>KarolGierszewskiDesc</title>
 <desc>Created with Sketch.</desc>
 <g id="Page-1" fill-rule="evenodd" fill="none">
  <g id="DescriptionsWeb">
   <g id="KarolGierszewski">
    <rect id="RectangleAdd" height="19.494" width="91.784" y="38.176" x="68.229" fill="#1F2436"/>
    <rect id="RectangleMain" height="38.176" width="160.01" y="0" x="0" fill="#1F2436"/>
    <path d="m16.489 28h1.95l-4.46-9.284 4.314-7.773h-1.926l-4.532 8.236v-8.236h-1.9005v17.057h1.9005v-5.726l0.999-1.682 3.655 7.408zm9.345-3.436h-4.313l-0.658 3.436h-1.754l3.265-17.057h2.754l3.265 17.057h-1.901l-0.658-3.436zm-2.193-11.477l-1.876 9.845h3.801l-1.925-9.845zm5.934-2.144h3.801c2.68 0 3.801 1.364 3.801 3.899v1.388c0 1.877-0.658 3.046-2.12 3.509 1.56 0.463 2.145 1.731 2.145 3.558v2.656c0 0.756 0.024 1.462 0.341 2.047h-1.925c-0.219-0.487-0.317-0.926-0.317-2.071v-2.681c0-1.925-0.902-2.534-2.485-2.534h-1.341v7.286h-1.9v-17.057zm1.9 8.041h1.414c1.51 0 2.412-0.487 2.412-2.339v-1.633c0-1.535-0.56-2.339-1.974-2.339h-1.852v6.311zm7.25 4.898v-8.821c0-2.607 1.291-4.289 3.898-4.289 2.632 0 3.924 1.682 3.924 4.289v8.821c0 2.583-1.292 4.289-3.924 4.289-2.607 0-3.898-1.706-3.898-4.289zm1.876-8.919v9.016c0 1.56 0.658 2.461 2.022 2.461 1.389 0 2.023-0.901 2.023-2.461v-9.016c0-1.535-0.634-2.461-2.023-2.461-1.364 0-2.022 0.926-2.022 2.461zm14.218 13.037v-1.73h-4.873v-15.327h-1.901v17.057h6.774zm8.285-17.228c-2.607 0-3.825 1.706-3.825 4.289v8.821c0 2.583 1.218 4.289 3.825 4.289 2.632 0 3.85-1.706 3.85-4.289v-5.02h-3.557v1.706h1.754v3.411c0 1.536-0.609 2.461-1.998 2.461-1.364 0-1.998-0.925-1.998-2.461v-9.016c0-1.535 0.634-2.461 1.998-2.461 1.389 0 1.998 0.926 1.998 2.461v1.56h1.803v-1.462c0-2.583-1.218-4.289-3.85-4.289zm5.349 0.171v17.057h1.901v-17.057h-1.901zm5.446 7.554v-5.824h5.117v-1.73h-7.018v17.057h7.018v-1.73h-5.117v-6.068h4.167v-1.705h-4.167zm6.567-7.554h3.802c2.68 0 3.801 1.364 3.801 3.899v1.388c0 1.877-0.658 3.046-2.12 3.509 1.559 0.463 2.144 1.731 2.144 3.558v2.656c0 0.756 0.025 1.462 0.341 2.047h-1.925c-0.219-0.487-0.316-0.926-0.316-2.071v-2.681c0-1.925-0.902-2.534-2.486-2.534h-1.34v7.286h-1.901v-17.057zm1.901 8.041h1.413c1.511 0 2.413-0.487 2.413-2.339v-1.633c0-1.535-0.561-2.339-1.974-2.339h-1.852v6.311zm10.977-8.212c-2.558 0-3.777 1.633-3.777 4.264 0 4.801 5.702 5.166 5.702 8.968 0 1.535-0.633 2.436-1.998 2.436-1.364 0-1.998-0.901-1.998-2.436v-1.072h-1.779v0.974c0 2.583 1.219 4.265 3.826 4.265s3.85-1.682 3.85-4.265c0-4.8-5.726-5.166-5.726-8.991 0-1.511 0.585-2.413 1.949-2.413 1.365 0 1.95 0.902 1.95 2.437v0.56h1.803v-0.463c0-2.582-1.219-4.264-3.802-4.264zm12.656 15.498h-5.82l5.87-13.622v-1.705h-7.527v1.73h5.577l-5.846 13.621v1.706h7.746v-1.73zm3.35-7.773v-5.824h5.12v-1.73h-7.02v17.057h7.02v-1.73h-5.12v-6.068h4.17v-1.705h-4.17zm12.78-2.072l1.64 11.575h2.51l2.31-17.057h-1.65l-1.93 14.547-1.88-14.523h-1.87l-1.9 14.499-2-14.523h-1.85l2.34 17.057h2.6l1.68-11.575zm11.27-5.653c-2.55 0-3.77 1.633-3.77 4.264 0 4.801 5.7 5.166 5.7 8.968 0 1.535-0.63 2.436-2 2.436-1.36 0-2-0.901-2-2.436v-1.072h-1.78v0.974c0 2.583 1.22 4.265 3.83 4.265s3.85-1.682 3.85-4.265c0-4.8-5.73-5.166-5.73-8.991 0-1.511 0.59-2.413 1.95-2.413 1.37 0 1.95 0.902 1.95 2.437v0.56h1.81v-0.463c0-2.582-1.22-4.264-3.81-4.264zm11.74 17.228h1.95l-4.46-9.284 4.31-7.773h-1.92l-4.54 8.236v-8.236h-1.9v17.057h1.9v-5.726l1-1.682 3.66 7.408zm3.1-17.057v17.057h1.91v-17.057h-1.91z" fill="#fff"/>
    <path id="GoYello" fill="#fff" d="m97.81 41.531c-1.738 0-2.453 1.235-2.453 2.875v5.816c0 1.641 0.715 2.875 2.453 2.875s2.45-1.234 2.45-2.875v-3.086h-2.222v0.682h1.51v2.453c0 1.218-0.471 2.128-1.722 2.128-1.25 0-1.722-0.91-1.722-2.128v-5.913c0-1.219 0.472-2.145 1.722-2.145 1.251 0 1.722 0.926 1.722 2.145v0.893h0.712v-0.845c0-1.64-0.712-2.875-2.45-2.875zm3.45 8.691v-5.816c0-1.657 0.77-2.875 2.49-2.875 1.75 0 2.52 1.218 2.52 2.875v5.816c0 1.657-0.77 2.875-2.52 2.875-1.72 0-2.49-1.218-2.49-2.875zm0.75-5.864v5.913c0 1.234 0.49 2.144 1.74 2.144 1.26 0 1.77-0.91 1.77-2.144v-5.913c0-1.235-0.51-2.145-1.77-2.145-1.25 0-1.74 0.91-1.74 2.145zm7.38 8.642h0.75v-4.37l2.57-7.002h-0.73l-2.18 5.979-2.18-5.979h-0.78l2.55 7.002v4.37zm4.95-6.108v-4.581h3.74v-0.683h-4.49v11.372h4.49v-0.682h-3.74v-4.744h3.1v-0.682h-3.1zm9.07 6.108v-0.682h-3.57v-10.69h-0.75v11.372h4.32zm5.24 0v-0.682h-3.57v-10.69h-0.75v11.372h4.32zm0.87-2.778v-5.816c0-1.657 0.76-2.875 2.49-2.875 1.75 0 2.51 1.218 2.51 2.875v5.816c0 1.657-0.76 2.875-2.51 2.875-1.73 0-2.49-1.218-2.49-2.875zm0.75-5.864v5.913c0 1.234 0.49 2.144 1.74 2.144 1.26 0 1.77-0.91 1.77-2.144v-5.913c0-1.235-0.51-2.145-1.77-2.145-1.25 0-1.74 0.91-1.74 2.145z"/>
   </g>
  </g>
 </g>
</svg>
