<?xml version="1.0" encoding="UTF-8" standalone="no"?>
<svg xmlns="http://www.w3.org/2000/svg" height="58px" width="161px" version="1.1" xmlns:xlink="http://www.w3.org/1999/xlink" viewBox="0 0 161 58"><!-- Generator: Sketch 47.1 (45422) - http://www.bohemiancoding.com/sketch -->
 <title>KatarzynaKantDesc</title>
 <desc>Created with Sketch.</desc>
 <g id="Page-1" fill-rule="evenodd" fill="none">
  <g id="DescriptionsWeb">
   <g id="KatarzynaKant">
    <rect id="RectangleAdd" height="19.494" width="160.01" y="38.176" x="-2.8422e-14" fill="#1F2436"/>
    <rect id="RectangleMain" height="38.176" width="160.01" y="0" x="0" fill="#1F2436"/>
    <path d="m24.951 28h1.949l-4.459-9.284 4.313-7.773h-1.925l-4.532 8.236v-8.236h-1.901v17.057h1.901v-5.726l0.999-1.682 3.655 7.408zm9.345-3.436h-4.313l-0.658 3.436h-1.755l3.266-17.057h2.753l3.265 17.057h-1.9l-0.658-3.436zm-2.193-11.477l-1.877 9.845h3.802l-1.925-9.845zm9.345 14.913h-1.877v-15.327h-3.143v-1.73h8.163v1.73h-3.143v15.327zm9.442-3.436h-4.313l-0.658 3.436h-1.754l3.265-17.057h2.753l3.266 17.057h-1.901l-0.658-3.436zm-2.193-11.477l-1.876 9.845h3.801l-1.925-9.845zm5.934-2.144h3.801c2.68 0 3.801 1.364 3.801 3.899v1.388c0 1.877-0.658 3.046-2.12 3.509 1.56 0.463 2.145 1.731 2.145 3.558v2.656c0 0.756 0.024 1.462 0.341 2.047h-1.925c-0.22-0.487-0.317-0.926-0.317-2.071v-2.681c0-1.925-0.902-2.534-2.486-2.534h-1.34v7.286h-1.9v-17.057zm1.9 8.041h1.414c1.51 0 2.412-0.487 2.412-2.339v-1.633c0-1.535-0.561-2.339-1.974-2.339h-1.852v6.311zm14.877 7.286h-5.824l5.872-13.622v-1.705h-7.529v1.73h5.58l-5.848 13.621v1.706h7.749v-1.73zm4.471 1.73h1.876v-6.116l3.631-10.941h-1.803l-2.681 8.382-2.656-8.382h-1.973l3.606 10.941v6.116zm8.248-13.792l4.362 13.792h1.974v-17.057h-1.681v12.33l-3.948-12.33h-2.412v17.057h1.705v-13.792zm14.219 10.356h-4.313l-0.658 3.436h-1.755l3.266-17.057h2.753l3.261 17.057h-1.896l-0.658-3.436zm-2.193-11.477l-1.877 9.845h3.802l-1.925-9.845zm15.957 14.913h1.95l-4.46-9.284 4.32-7.773h-1.93l-4.53 8.236v-8.236h-1.9v17.057h1.9v-5.726l1-1.682 3.65 7.408zm9.35-3.436h-4.31l-0.66 3.436h-1.76l3.27-17.057h2.75l3.27 17.057h-1.9l-0.66-3.436zm-2.19-11.477l-1.88 9.845h3.8l-1.92-9.845zm7.61 1.121l4.36 13.792h1.98v-17.057h-1.69v12.33l-3.94-12.33h-2.42v17.057h1.71v-13.792zm12.32 13.792v-15.327h3.14v-1.73h-8.16v1.73h3.14v15.327h1.88z" fill="#fff"/>
    <path id="CattaConsulting" fill="#fff" d="m40.998 41.531c-1.738 0-2.453 1.235-2.453 2.875v5.816c0 1.641 0.715 2.875 2.453 2.875s2.453-1.234 2.453-2.875v-1.299h-0.715v1.348c0 1.218-0.471 2.128-1.722 2.128s-1.722-0.91-1.722-2.128v-5.913c0-1.219 0.471-2.145 1.722-2.145s1.722 0.926 1.722 2.145v0.991h0.715v-0.943c0-1.64-0.715-2.875-2.453-2.875zm8.098 8.951h-3.541l-0.569 2.518h-0.682l2.485-11.388h1.089l2.534 11.388h-0.747l-0.569-2.518zm-1.787-8.009l-1.641 7.359h3.314l-1.673-7.359zm6.084 10.527h-0.747v-10.689h-2.307v-0.683h5.377v0.683h-2.323v10.689zm5.71 0h-0.747v-10.689h-2.307v-0.683h5.377v0.683h-2.323v10.689zm7.058-2.518h-3.541l-0.569 2.518h-0.682l2.486-11.388h1.088l2.534 11.388h-0.747l-0.569-2.518zm-1.787-8.009l-1.64 7.359h3.314l-1.674-7.359zm8.756-0.942c-1.738 0-2.453 1.235-2.453 2.875v5.816c0 1.641 0.715 2.875 2.453 2.875 1.739 0 2.453-1.234 2.453-2.875v-1.299h-0.714v1.348c0 1.218-0.471 2.128-1.722 2.128s-1.722-0.91-1.722-2.128v-5.913c0-1.219 0.471-2.145 1.722-2.145s1.722 0.926 1.722 2.145v0.991h0.714v-0.943c0-1.64-0.714-2.875-2.453-2.875zm3.42 8.691v-5.816c0-1.657 0.764-2.875 2.486-2.875 1.754 0 2.518 1.218 2.518 2.875v5.816c0 1.657-0.764 2.875-2.518 2.875-1.722 0-2.486-1.218-2.486-2.875zm0.747-5.864v5.913c0 1.234 0.488 2.144 1.739 2.144 1.267 0 1.77-0.91 1.77-2.144v-5.913c0-1.235-0.503-2.145-1.77-2.145-1.251 0-1.739 0.91-1.739 2.145zm5.97-1.495l3.558 10.137h0.829v-11.372h-0.683v9.601l-3.411-9.601h-0.975v11.372h0.682v-10.137zm7.839-1.332c-1.674 0.016-2.421 1.121-2.421 2.827 0 3.167 4.11 3.216 4.11 5.945 0 1.219-0.471 2.096-1.722 2.096s-1.722-0.877-1.722-2.096v-0.633h-0.715v0.585c0 1.64 0.715 2.842 2.453 2.842 1.739 0 2.453-1.202 2.453-2.842 0-3.136-4.11-3.184-4.11-5.946 0-1.202 0.455-2.096 1.69-2.096 1.234 0 1.689 0.91 1.689 2.112v0.293h0.715v-0.244c0-1.641-0.698-2.843-2.42-2.843zm4.15 0.097h-0.747v8.594c0 1.625 0.698 2.875 2.437 2.875 1.738 0 2.42-1.25 2.42-2.875v-8.594h-0.698v8.627c0 1.218-0.455 2.16-1.706 2.16s-1.706-0.942-1.706-2.16v-8.627zm9.514 11.372h-4.32v-11.372h0.74v10.69h3.58v0.682zm2.77 0h-0.75v-10.689h-2.31v-0.683h5.38v0.683h-2.32v10.689zm3.04-11.372v11.372h0.75v-11.372h-0.75zm2.53 1.235l3.56 10.137h0.83v-11.372h-0.69v9.601l-3.41-9.601h-0.97v11.372h0.68v-10.137zm7.87-1.332c-1.74 0-2.45 1.235-2.45 2.875v5.816c0 1.641 0.71 2.875 2.45 2.875s2.45-1.234 2.45-2.875v-3.086h-2.22v0.682h1.51v2.453c0 1.218-0.47 2.128-1.72 2.128s-1.73-0.91-1.73-2.128v-5.913c0-1.219 0.48-2.145 1.73-2.145s1.72 0.926 1.72 2.145v0.893h0.71v-0.845c0-1.64-0.71-2.875-2.45-2.875z"/>
   </g>
  </g>
 </g>
</svg>
