<?xml version="1.0" encoding="UTF-8" standalone="no"?>
<svg xmlns="http://www.w3.org/2000/svg" height="58px" width="161px" version="1.1" xmlns:xlink="http://www.w3.org/1999/xlink" viewBox="0 0 161 58"><!-- Generator: Sketch 47.1 (45422) - http://www.bohemiancoding.com/sketch -->
 <title>MichałMichalczukDesc</title>
 <desc>Created with Sketch.</desc>
 <g id="Page-1" fill-rule="evenodd" fill="none">
  <g id="DescriptionsWeb">
   <g id="MichałMichalczuk">
    <rect id="RectangleAdd" height="19.494" width="91.784" y="38.176" x="68.229" fill="#1F2436"/>
    <rect id="RectangleMain" height="38.176" width="160.01" y="0" x="0" fill="#1F2436"/>
    <path d="m17.184 14.281v13.719h1.803v-17.057h-2.656l-2.705 13.621-2.802-13.621h-2.6562v17.057h1.657v-13.597l2.8262 13.573h1.828l2.705-13.695zm3.448-3.338v17.057h1.9v-17.057h-1.9zm7.225-0.171c-2.608 0-3.826 1.706-3.826 4.289v8.821c0 2.583 1.218 4.289 3.826 4.289 2.631 0 3.85-1.706 3.85-4.289v-2.12h-1.803v2.217c0 1.536-0.61 2.461-1.999 2.461-1.364 0-1.998-0.925-1.998-2.461v-9.016c0-1.535 0.634-2.461 1.998-2.461 1.389 0 1.999 0.926 1.999 2.461v1.633h1.803v-1.535c0-2.583-1.219-4.289-3.85-4.289zm11.367 9.552v7.676h1.901v-17.057h-1.901v7.676h-4.191v-7.676h-1.901v17.057h1.901v-7.676h4.191zm9.784 4.24h-4.313l-0.658 3.436h-1.755l3.266-17.057h2.753l3.265 17.057h-1.9l-0.658-3.436zm-2.193-11.477l-1.877 9.845h3.802l-1.925-9.845zm10.734 5.069v-1.755l-2.656 2.754v-8.212h-1.877v10.234l-1.243 1.218v1.755l1.243-1.218v5.068h6.774v-1.73h-4.897v-5.361l2.656-2.753zm15.838-3.875v13.719h1.804v-17.057h-2.656l-2.705 13.621-2.802-13.621h-2.657v17.057h1.657v-13.597l2.827 13.573h1.828l2.704-13.695zm3.448-3.338v17.057h1.901v-17.057h-1.901zm7.225-0.171c-2.607 0-3.825 1.706-3.825 4.289v8.821c0 2.583 1.218 4.289 3.825 4.289 2.632 0 3.85-1.706 3.85-4.289v-2.12h-1.803v2.217c0 1.536-0.609 2.461-1.998 2.461-1.364 0-1.998-0.925-1.998-2.461v-9.016c0-1.535 0.634-2.461 1.998-2.461 1.389 0 1.998 0.926 1.998 2.461v1.633h1.803v-1.535c0-2.583-1.218-4.289-3.85-4.289zm11.368 9.552v7.676h1.901v-17.057h-1.901v7.676h-4.191v-7.676h-1.901v17.057h1.901v-7.676h4.191zm9.782 4.24h-4.31l-0.66 3.436h-1.754l3.264-17.057h2.75l3.27 17.057h-1.9l-0.66-3.436zm-2.19-11.477l-1.88 9.845h3.8l-1.92-9.845zm12.71 14.913v-1.73h-4.88v-15.327h-1.9v17.057h6.78zm4.81-17.228c-2.61 0-3.83 1.706-3.83 4.289v8.821c0 2.583 1.22 4.289 3.83 4.289 2.63 0 3.85-1.706 3.85-4.289v-2.12h-1.8v2.217c0 1.536-0.61 2.461-2 2.461-1.37 0-2-0.925-2-2.461v-9.016c0-1.535 0.63-2.461 2-2.461 1.39 0 2 0.926 2 2.461v1.633h1.8v-1.535c0-2.583-1.22-4.289-3.85-4.289zm12.75 15.498h-5.82l5.87-13.622v-1.705h-7.53v1.73h5.58l-5.84 13.621v1.706h7.74v-1.73zm3.26-15.327h-1.88v12.939c0 2.583 1.2 4.313 3.8 4.313 2.63 0 3.83-1.73 3.83-4.313v-12.939h-1.78v13.036c0 1.536-0.61 2.461-1.97 2.461-1.39 0-2-0.925-2-2.461v-13.036zm13.88 17.057h1.94l-4.45-9.284 4.31-7.773h-1.93l-4.53 8.236v-8.236h-1.9v17.057h1.9v-5.726l1-1.682 3.66 7.408z" fill="#fff"/>
    <path id="GoYello" fill="#fff" d="m97.81 41.531c-1.738 0-2.453 1.235-2.453 2.875v5.816c0 1.641 0.715 2.875 2.453 2.875s2.45-1.234 2.45-2.875v-3.086h-2.222v0.682h1.51v2.453c0 1.218-0.471 2.128-1.722 2.128-1.25 0-1.722-0.91-1.722-2.128v-5.913c0-1.219 0.472-2.145 1.722-2.145 1.251 0 1.722 0.926 1.722 2.145v0.893h0.712v-0.845c0-1.64-0.712-2.875-2.45-2.875zm3.45 8.691v-5.816c0-1.657 0.77-2.875 2.49-2.875 1.75 0 2.52 1.218 2.52 2.875v5.816c0 1.657-0.77 2.875-2.52 2.875-1.72 0-2.49-1.218-2.49-2.875zm0.75-5.864v5.913c0 1.234 0.49 2.144 1.74 2.144 1.26 0 1.77-0.91 1.77-2.144v-5.913c0-1.235-0.51-2.145-1.77-2.145-1.25 0-1.74 0.91-1.74 2.145zm7.38 8.642h0.75v-4.37l2.57-7.002h-0.73l-2.18 5.979-2.18-5.979h-0.78l2.55 7.002v4.37zm4.95-6.108v-4.581h3.74v-0.683h-4.49v11.372h4.49v-0.682h-3.74v-4.744h3.1v-0.682h-3.1zm9.07 6.108v-0.682h-3.57v-10.69h-0.75v11.372h4.32zm5.24 0v-0.682h-3.57v-10.69h-0.75v11.372h4.32zm0.87-2.778v-5.816c0-1.657 0.76-2.875 2.49-2.875 1.75 0 2.51 1.218 2.51 2.875v5.816c0 1.657-0.76 2.875-2.51 2.875-1.73 0-2.49-1.218-2.49-2.875zm0.75-5.864v5.913c0 1.234 0.49 2.144 1.74 2.144 1.26 0 1.77-0.91 1.77-2.144v-5.913c0-1.235-0.51-2.145-1.77-2.145-1.25 0-1.74 0.91-1.74 2.145z"/>
   </g>
  </g>
 </g>
</svg>
