<?xml version="1.0" encoding="UTF-8" standalone="no"?>
<svg xmlns="http://www.w3.org/2000/svg" height="58px" width="161px" version="1.1" xmlns:xlink="http://www.w3.org/1999/xlink" viewBox="0 0 161 58"><!-- Generator: Sketch 47.1 (45422) - http://www.bohemiancoding.com/sketch -->
 <title>RafałMiazgaDesc</title>
 <desc>Created with Sketch.</desc>
 <g id="Page-1" fill-rule="evenodd" fill="none">
  <g id="DescriptionsWeb">
   <g id="RafałMiazga">
    <rect id="RectangleAdd" height="19.494" width="91.784" y="38.176" x="68.229" fill="#1F2436"/>
    <rect id="RectangleMain" height="38.176" width="160.01" y="0" x="0" fill="#1F2436"/>
    <path d="m29.642 10.943h3.801c2.68 0 3.801 1.364 3.801 3.899v1.388c0 1.877-0.658 3.046-2.12 3.509 1.56 0.463 2.145 1.731 2.145 3.558v2.656c0 0.756 0.024 1.462 0.341 2.047h-1.925c-0.219-0.487-0.317-0.926-0.317-2.071v-2.681c0-1.925-0.902-2.534-2.485-2.534h-1.341v7.286h-1.9v-17.057zm1.9 8.041h1.414c1.51 0 2.412-0.487 2.412-2.339v-1.633c0-1.535-0.56-2.339-1.974-2.339h-1.852v6.311zm13.634 5.58h-4.313l-0.658 3.436h-1.754l3.265-17.057h2.753l3.266 17.057h-1.901l-0.658-3.436zm-2.193-11.477l-1.876 9.845h3.801l-1.925-9.845zm7.834 5.8v-6.214h4.874v-1.73h-6.775v17.057h1.901v-7.383h3.923v-1.73h-3.923zm12.001 5.677h-4.313l-0.658 3.436h-1.754l3.265-17.057h2.753l3.266 17.057h-1.901l-0.658-3.436zm-2.193-11.477l-1.876 9.845h3.801l-1.925-9.845zm10.734 5.069v-1.755l-2.656 2.754v-8.212h-1.877v10.234l-1.242 1.218v1.755l1.242-1.218v5.068h6.775v-1.73h-4.898v-5.361l2.656-2.753zm15.839-3.875v13.719h1.803v-17.057h-2.656l-2.705 13.621-2.802-13.621h-2.656v17.057h1.657v-13.597l2.826 13.573h1.828l2.705-13.695zm3.448-3.338v17.057h1.9v-17.057h-1.9zm9.784 13.621h-4.314l-0.658 3.436h-1.754l3.265-17.057h2.754l3.267 17.057h-1.9l-0.66-3.436zm-2.194-11.477l-1.876 9.845h3.8l-1.924-9.845zm13.414 13.183h-5.82l5.87-13.622v-1.705h-7.53v1.73h5.58l-5.85 13.621v1.706h7.75v-1.73zm5.13-15.498c-2.61 0-3.83 1.706-3.83 4.289v8.821c0 2.583 1.22 4.289 3.83 4.289 2.63 0 3.85-1.706 3.85-4.289v-5.02h-3.56v1.706h1.76v3.411c0 1.536-0.61 2.461-2 2.461-1.37 0-2-0.925-2-2.461v-9.016c0-1.535 0.63-2.461 2-2.461 1.39 0 2 0.926 2 2.461v1.56h1.8v-1.462c0-2.583-1.22-4.289-3.85-4.289zm11.56 13.792h-4.31l-0.66 3.436h-1.75l3.26-17.057h2.76l3.26 17.057h-1.9l-0.66-3.436zm-2.19-11.477l-1.88 9.845h3.8l-1.92-9.845z" fill="#fff"/>
    <path id="SentiOne" fill="#fff" d="m96.531 41.531c-1.673 0.016-2.421 1.121-2.421 2.827 0 3.167 4.11 3.216 4.11 5.945 0 1.219-0.471 2.096-1.722 2.096-1.25 0-1.722-0.877-1.722-2.096v-0.633h-0.714v0.585c0 1.64 0.714 2.842 2.453 2.842 1.738 0 2.453-1.202 2.453-2.842 0-3.136-4.11-3.184-4.11-5.946 0-1.202 0.455-2.096 1.689-2.096 1.235 0 1.69 0.91 1.69 2.112v0.293h0.714v-0.244c0-1.641-0.698-2.843-2.42-2.843zm4.179 5.361v-4.581h3.74v-0.683h-4.483v11.372h4.483v-0.682h-3.74v-4.744h3.11v-0.682h-3.11zm5.44-4.029l3.56 10.137h0.82v-11.372h-0.68v9.601l-3.41-9.601h-0.97v11.372h0.68v-10.137zm8.13 10.137v-10.689h2.32v-0.683h-5.38v0.683h2.31v10.689h0.75zm3.04-11.372v11.372h0.75v-11.372h-0.75zm1.8 8.594v-5.816c0-1.657 0.76-2.875 2.49-2.875 1.75 0 2.51 1.218 2.51 2.875v5.816c0 1.657-0.76 2.875-2.51 2.875-1.73 0-2.49-1.218-2.49-2.875zm0.75-5.864v5.913c0 1.234 0.48 2.144 1.74 2.144s1.77-0.91 1.77-2.144v-5.913c0-1.235-0.51-2.145-1.77-2.145s-1.74 0.91-1.74 2.145zm5.97-1.495l3.55 10.137h0.83v-11.372h-0.68v9.601l-3.41-9.601h-0.98v11.372h0.69v-10.137zm6.21 4.029v-4.581h3.74v-0.683h-4.49v11.372h4.49v-0.682h-3.74v-4.744h3.1v-0.682h-3.1z"/>
   </g>
  </g>
 </g>
</svg>
