<?xml version="1.0" encoding="UTF-8" standalone="no"?>
<svg xmlns="http://www.w3.org/2000/svg" height="58px" width="161px" version="1.1" xmlns:xlink="http://www.w3.org/1999/xlink" viewBox="0 0 161 58"><!-- Generator: Sketch 47.1 (45422) - http://www.bohemiancoding.com/sketch -->
 <title>RobertSzulistDesc</title>
 <desc>Created with Sketch.</desc>
 <g id="Page-1" fill-rule="evenodd" fill="none">
  <g id="DescriptionsWeb">
   <g id="RobertSzulist">
    <rect id="RectangleAdd" height="19" width="92.013" y="38.67" x="68" fill="#1F2436"/>
    <rect id="RectangleMain" height="38.176" width="160.01" y="0" x="0" fill="#1F2436"/>
    <path d="m24.403 10.943h3.801c2.68 0 3.801 1.364 3.801 3.899v1.388c0 1.877-0.658 3.046-2.12 3.509 1.56 0.463 2.145 1.731 2.145 3.558v2.656c0 0.756 0.024 1.462 0.341 2.047h-1.925c-0.22-0.487-0.317-0.926-0.317-2.071v-2.681c0-1.925-0.902-2.534-2.485-2.534h-1.341v7.286h-1.9v-17.057zm1.9 8.041h1.414c1.51 0 2.412-0.487 2.412-2.339v-1.633c0-1.535-0.56-2.339-1.974-2.339h-1.852v6.311zm7.25 4.898v-8.821c0-2.607 1.291-4.289 3.898-4.289 2.632 0 3.924 1.682 3.924 4.289v8.821c0 2.583-1.292 4.289-3.924 4.289-2.607 0-3.898-1.706-3.898-4.289zm1.876-8.919v9.016c0 1.56 0.658 2.461 2.022 2.461 1.389 0 2.023-0.901 2.023-2.461v-9.016c0-1.535-0.634-2.461-2.023-2.461-1.364 0-2.022 0.926-2.022 2.461zm7.444-4.02h3.826c2.656 0 3.704 1.267 3.704 3.777v0.804c0 1.803-0.512 2.924-1.998 3.387 1.657 0.463 2.29 1.779 2.29 3.655v1.438c0 2.558-1.243 3.996-3.899 3.996h-3.923v-17.057zm1.901 7.237h1.462c1.511 0 2.29-0.487 2.29-2.266v-0.999c0-1.511-0.511-2.242-1.876-2.242h-1.876v5.507zm0 8.09h2.022c1.389 0 2.023-0.731 2.023-2.315v-1.511c0-1.9-0.755-2.534-2.388-2.534h-1.657v6.36zm9.247-7.773v-5.824h5.118v-1.73h-7.018v17.057h7.018v-1.73h-5.118v-6.068h4.167v-1.705h-4.167zm6.567-7.554h3.802c2.68 0 3.801 1.364 3.801 3.899v1.388c0 1.877-0.658 3.046-2.12 3.509 1.56 0.463 2.144 1.731 2.144 3.558v2.656c0 0.756 0.025 1.462 0.342 2.047h-1.925c-0.22-0.487-0.317-0.926-0.317-2.071v-2.681c0-1.925-0.902-2.534-2.486-2.534h-1.34v7.286h-1.901v-17.057zm1.901 8.041h1.413c1.511 0 2.413-0.487 2.413-2.339v-1.633c0-1.535-0.561-2.339-1.974-2.339h-1.852v6.311zm11.733 9.016v-15.327h3.143v-1.73h-8.163v1.73h3.144v15.327h1.876zm11.185-17.228c-2.559 0-3.777 1.633-3.777 4.264 0 4.801 5.702 5.166 5.702 8.968 0 1.535-0.634 2.436-1.998 2.436-1.365 0-1.999-0.901-1.999-2.436v-1.072h-1.778v0.974c0 2.583 1.218 4.265 3.825 4.265 2.608 0 3.85-1.682 3.85-4.265 0-4.8-5.726-5.166-5.726-8.991 0-1.511 0.585-2.413 1.949-2.413 1.365 0 1.95 0.902 1.95 2.437v0.56h1.803v-0.463c0-2.582-1.218-4.264-3.801-4.264zm12.659 15.498h-5.824l5.872-13.622v-1.705h-7.529v1.73h5.58l-5.848 13.621v1.706h7.749v-1.73zm3.254-15.327h-1.878v12.939c0 2.583 1.198 4.313 3.798 4.313 2.64 0 3.83-1.73 3.83-4.313v-12.939h-1.78v13.036c0 1.536-0.61 2.461-1.97 2.461-1.39 0-2-0.925-2-2.461v-13.036zm14.1 17.057v-1.73h-4.88v-15.327h-1.9v17.057h6.78zm1.13-17.057v17.057h1.9v-17.057h-1.9zm7.13-0.171c-2.56 0-3.78 1.633-3.78 4.264 0 4.801 5.7 5.166 5.7 8.968 0 1.535-0.63 2.436-2 2.436-1.36 0-2-0.901-2-2.436v-1.072h-1.77v0.974c0 2.583 1.21 4.265 3.82 4.265s3.85-1.682 3.85-4.265c0-4.8-5.72-5.166-5.72-8.991 0-1.511 0.58-2.413 1.94-2.413 1.37 0 1.95 0.902 1.95 2.437v0.56h1.81v-0.463c0-2.582-1.22-4.264-3.8-4.264zm9.51 17.228v-15.327h3.14v-1.73h-8.16v1.73h3.15v15.327h1.87z" fill="#fff"/>
    <path id="Aplitt" fill="#fff" d="m108.12 50.482h-3.54l-0.57 2.518h-0.68l2.49-11.388h1.09l2.53 11.388h-0.75l-0.57-2.518zm-1.78-8.009l-1.64 7.359h3.31l-1.67-7.359zm4.03-0.845h2.36c1.75 0 2.44 1.105 2.44 2.762v1.235c0 1.803-0.83 2.696-2.64 2.696h-1.41v4.679h-0.75v-11.372zm0.75 6.011h1.41c1.32 0 1.89-0.585 1.89-1.965v-1.333c0-1.234-0.42-2.03-1.69-2.03h-1.61v5.328zm9.29 5.361v-0.682h-3.58v-10.69h-0.75v11.372h4.33zm0.91-11.372v11.372h0.75v-11.372h-0.75zm4.51 11.372v-10.689h2.32v-0.683h-5.37v0.683h2.3v10.689h0.75zm5.71 0v-10.689h2.32v-0.683h-5.37v0.683h2.3v10.689h0.75z"/>
   </g>
  </g>
 </g>
</svg>
