<?xml version="1.0" encoding="UTF-8"?>
<svg width="242px" height="156px" viewBox="0 0 242 156" version="1.1" xmlns="http://www.w3.org/2000/svg" xmlns:xlink="http://www.w3.org/1999/xlink">
    <!-- Generator: Sketch 47.1 (45422) - http://www.bohemiancoding.com/sketch -->
    <title>catta</title>
    <desc>Created with Sketch.</desc>
    <defs></defs>
    <g id="Page-1" stroke="none" stroke-width="1" fill="none" fill-rule="evenodd">
        <g id="Artboard" transform="translate(-677.000000, -1475.000000)">
            <g id="catta" transform="translate(677.000000, 1475.000000)">
                <rect id="Rectangle-7" fill-opacity="0.495810688" fill="#FFFFFF" x="0" y="0" width="242" height="156"></rect>
                <g id="Catta" transform="translate(27.000000, 24.000000)" fill="#000000">
                    <g id="Group" transform="translate(32.143484, 24.012357) scale(-1, 1) rotate(-180.000000) translate(-32.143484, -24.012357) translate(0.000000, 0.440017)" fill-rule="nonzero">
                        <g id="Group-6" transform="translate(0.000000, 0.314298)">
                            <path d="M8.73154329,46.4265008 C8.95600456,46.1801466 63.9714611,18.0509783 64.0612456,18.1405617 C64.1061379,18.1853533 63.6796615,18.7900409 63.1185083,19.4843117 C62.5573551,20.1785826 61.5472794,21.4999369 60.8514495,22.4405619 C58.3823756,25.7999371 56.4969009,27.031708 51.5138608,28.5098331 C46.5532668,29.9655623 44.9820379,30.9733749 39.3705063,36.2811877 C33.6691901,41.6785838 32.232638,42.3504589 23.8153404,43.5822298 C21.5482816,43.8957715 17.8446707,44.634834 15.5776119,45.1947299 C11.7393243,46.1353549 8.43974364,46.7176466 8.73154329,46.4265008 Z" id="Shape"></path>
                            <path d="M12.7494,43.6046256 C12.7494,43.5822298 13.5350144,42.9775422 14.5001979,42.2832714 C15.4878274,41.5890005 16.2734419,40.9395213 16.2734419,40.8499379 C16.2734419,40.7603546 15.8245193,40.5140004 15.2633662,40.2900421 C13.9390447,39.7973337 12.1209084,38.6103545 10.8863715,37.4905628 L9.89874188,36.6171252 L9.56204998,33.392125 C9.38248097,31.6004583 9.29269646,30.0999373 9.38248097,30.010354 C10.0558648,29.472854 12.9514151,27.4572289 13.0411996,27.4572289 C13.1309841,27.4572289 13.0860919,27.7259789 12.9738612,28.0843122 C12.8391845,28.4426456 12.4800465,30.2567082 12.1433546,32.1155625 C11.694432,34.5791043 11.6046475,35.564521 11.8066627,35.7884793 C12.1658007,36.2587919 13.9614908,37.0426461 16.6101338,37.9384794 L18.9220848,38.7223337 L19.7750376,38.0504586 C21.3238204,36.8186877 27.2271517,30.6598332 29.583995,27.7931664 C32.2101918,24.6353537 34.5670351,22.2389994 36.3851714,20.8728535 L37.5972622,19.9546243 L39.2358295,20.402541 C41.5477805,21.0296243 45.6778679,21.4103535 48.3040647,21.208791 C50.2793238,21.074416 53.8033657,20.4473326 55.0379027,20.0442076 C55.6439481,19.8426451 57.3722999,18.8796242 34.4323584,31.6228541 C23.5908792,37.6249378 14.2981827,42.7983756 13.7370295,43.1119172 C13.1983225,43.4254589 12.7494,43.6494173 12.7494,43.6046256 Z" id="Shape"></path>
                            <path d="M2.55885845,36.2811877 C0.471368661,35.7212918 -1.15879528e-15,35.1166043 0.0224461267,32.8098333 C0.0224461267,32.2947291 0.0897845068,31.9139999 0.179569014,31.9587916 C2.04259753,32.9218125 3.43425739,33.4145209 4.42188696,33.5041042 C5.85843907,33.6384792 5.83599295,33.660875 5.2972859,31.6228541 C4.89325562,30.0775415 4.91570175,29.7192082 5.40951654,30.010354 C5.76865456,30.2343123 6.59916125,33.5265 6.59916125,34.8030626 C6.62160738,36.505146 5.25239365,37.0202502 2.55885845,36.2811877 Z" id="Shape"></path>
                            <path d="M11.0883866,22.6421244 C10.7516947,22.4405619 10.2129877,22.3733744 9.80895737,22.4405619 C9.18046583,22.5749369 8.97845068,22.4405619 7.99082111,21.3207702 L6.86851477,20.0442076 L7.49700632,19.6858743 C7.94592886,19.4395201 8.77643554,19.3275409 10.1456493,19.3499367 C12.3004774,19.3499367 14.0737214,19.8874368 15.5102736,20.940041 L16.2509957,21.4999369 L14.2981827,22.2389994 C12.0984623,23.0676453 11.9188933,23.0900411 11.0883866,22.6421244 Z" id="Shape"></path>
                            <path d="M0.493814788,21.8358744 C0.493814788,21.7238952 0.650937675,21.2311868 0.852952815,20.7384785 C1.05496796,20.268166 1.32432148,18.63327 1.43655211,17.1327491 C1.77324401,13.0119155 2.62619683,10.5931654 4.44433309,8.59993613 C4.91570175,8.0624361 7.83369822,5.93483181 10.9088176,3.89681086 L16.4979031,0.156706486 L17.0590563,1.05253987 C17.8446707,2.28431077 20.2688524,6.53951935 21.4136049,8.68951947 L22.3787883,10.5035821 L21.3238204,11.1306654 L20.2912985,11.735353 L18.8547464,10.7947279 C15.7796271,8.73431114 13.1758764,8.33118611 10.7068024,9.56295702 C8.05815949,10.8843113 3.88317992,15.7442074 1.63856725,20.0889993 C0.650937675,21.9926452 0.493814788,22.2613952 0.493814788,21.8358744 Z" id="Shape"></path>
                        </g>
                    </g>
                    <g id="Group-5-Copy" transform="translate(20.420567, 27.972510)">
                        <path d="M42.6807174,44.5148907 L44.9334203,46.5038068 C39.8371162,51.1200798 33.8422785,53.4281817 26.9487271,53.4281817 C19.5381594,53.4281817 13.2294235,50.8315671 8.02233028,45.63826 C2.81523702,40.4449529 0.211729447,34.1529199 0.211729447,26.7619722 C0.211729447,19.4201337 2.81523702,13.1403779 8.02233028,7.92251612 C13.2294235,2.70465437 19.5381594,0.0957626309 26.9487271,0.0957626309 C33.8422785,0.0957626309 39.8371162,2.41614164 44.9334203,7.05696926 L42.6807174,9.04588544 C38.199909,5.09258784 32.9559647,3.11596868 26.9487271,3.11596868 C20.3998533,3.11596868 14.8050817,5.42407055 10.1642445,10.0403435 C5.5234072,14.6566165 3.20302338,20.230437 3.20302338,26.7619722 C3.20302338,33.318062 5.5234072,38.9041596 10.1642445,43.5204326 C14.8050817,48.1367055 20.3998533,50.4448074 26.9487271,50.4448074 C32.9559647,50.4448074 38.199909,48.4681883 42.6807174,44.5148907 Z" id="C" stroke="#000000" stroke-width="0.5"></path>
                        <path d="M66.9961211,54.7516704 L68.2369541,55.2083844 C68.0104517,55.512862 67.7544094,55.8075133 67.4688194,56.0923472 C66.0704132,57.4968728 64.3765946,58.1991251 62.3873126,58.1991251 C60.4177265,58.1991251 58.7312937,57.4993282 57.3279636,56.0997135 C55.9246335,54.7000989 55.222979,53.0132202 55.222979,51.0390268 C55.222979,49.0648335 55.9246335,47.3804102 57.3279636,45.9857064 C58.7312937,44.5910027 60.4177265,43.8936613 62.3873126,43.8936613 C64.3765946,43.8936613 66.0704132,44.5910027 67.4688194,45.9857064 C67.7544094,46.2705403 68.0104517,46.5651916 68.2369541,46.8696692 L66.9961211,47.3263833 C66.868098,47.1692336 66.730229,47.0120862 66.5825101,46.8549365 C65.4204543,45.7057792 64.0220691,45.1312091 62.3873126,45.1312091 C60.7624041,45.1312091 59.3714048,45.7082346 58.2142729,46.8623028 C57.0571411,48.0163711 56.4785839,49.4085985 56.4785839,51.0390268 C56.4785839,52.6694551 57.0571411,54.0616826 58.2142729,55.2157508 C59.3714048,56.369819 60.7624041,56.9468445 62.3873126,56.9468445 C64.0220691,56.9468445 65.4204543,56.3673636 66.5825101,55.2083844 C66.730229,55.0610566 66.868098,54.9088201 66.9961211,54.7516704 Z M77.4598888,43.8936613 C79.4491708,43.8936613 81.1405275,44.5910027 82.5340097,45.9857064 C83.9274918,47.3804102 84.6242225,49.0697443 84.6242225,51.0537595 C84.6242225,53.018131 83.9274918,54.7000989 82.5340097,56.0997135 C81.1405275,57.4993282 79.4491708,58.1991251 77.4598888,58.1991251 C75.4903027,58.1991251 73.8038699,57.4993282 72.4005398,56.0997135 C70.9972097,54.7000989 70.2955552,53.018131 70.2955552,51.0537595 C70.2955552,49.0697443 70.9972097,47.3804102 72.4005398,45.9857064 C73.8038699,44.5910027 75.4903027,43.8936613 77.4598888,43.8936613 Z M77.4598888,45.1312091 C75.8251324,45.1312091 74.4292092,45.71069 73.2720773,46.8696692 C72.1149455,48.0286484 71.5363882,49.4233312 71.5363882,51.0537595 C71.5363882,52.6841879 72.1149455,54.0739598 73.2720773,55.2231172 C74.4292092,56.3722745 75.8251324,56.9468445 77.4598888,56.9468445 C79.0946453,56.9468445 80.4905685,56.3722745 81.6477003,55.2231172 C82.8048322,54.0739598 83.3833894,52.6841879 83.3833894,51.0537595 C83.3833894,49.4233312 82.8048322,48.0286484 81.6477003,46.8696692 C80.4905685,45.71069 79.0946453,45.1312091 77.4598888,45.1312091 Z M88.5588449,47.9009591 L88.5588449,57.8308073 L87.3770992,57.8308073 L87.3770992,45.0428129 L88.5588449,45.0428129 L88.5588449,45.8678448 C89.6224214,44.8070842 90.8632421,44.2767118 92.2813441,44.2767118 C93.7979254,44.2767118 95.0313601,44.7506093 95.9816854,45.6984186 C96.9320107,46.6462278 97.417014,47.8371101 97.4367099,49.2711013 L97.4367099,57.8308073 L96.269736,57.8308073 L96.269736,49.388963 C96.269736,48.2987369 95.8758247,47.3705853 95.0879902,46.6044804 C94.3001558,45.8383755 93.3646164,45.4553288 92.2813441,45.4553288 C91.2079196,45.4553288 90.2773042,45.8334646 89.4894697,46.5897477 C89.0660087,47.0120875 88.7558035,47.4491536 88.5588449,47.9009591 Z M103.912086,50.9653633 C102.917445,50.4251611 102.2281,49.9635407 101.844031,49.5804883 C101.243307,48.981355 100.94295,48.2594593 100.94295,47.4147796 C100.94295,46.5700998 101.243307,45.8457487 101.844031,45.2417045 C102.444754,44.6376602 103.168566,44.3356427 104.015488,44.3356427 C104.862411,44.3356427 105.566527,44.6155614 106.127859,45.1754073 C106.669495,45.7156094 106.940309,46.3343772 106.940309,47.031729 L106.940309,47.0906599 L105.921054,47.5031758 C105.832422,46.8451114 105.625619,46.349115 105.300637,46.0151719 C104.975655,45.6812287 104.547277,45.5142597 104.015488,45.5142597 C103.493548,45.5142597 103.045474,45.7008721 102.671253,46.0741027 C102.297031,46.4473333 102.109923,46.8942211 102.109923,47.4147796 C102.109923,47.935338 102.297031,48.3822258 102.671253,48.7554564 C102.887907,48.9813591 103.345829,49.3152973 104.045032,49.7572808 C105.157848,50.3564141 105.950595,50.8916973 106.423295,51.3631465 C107.16189,52.1096077 107.531182,52.9984724 107.531182,54.0297674 C107.531182,55.090528 107.16189,55.9916699 106.423295,56.7332202 C105.684701,57.4747704 104.788552,57.84554 103.734824,57.84554 C102.681095,57.84554 101.784947,57.4747704 101.046352,56.7332202 C100.307758,55.9916699 99.9384656,55.1789234 99.9384656,54.2949563 L101.10544,54.000302 C101.10544,54.756585 101.363944,55.3925408 101.88096,55.9081883 C102.397977,56.4238358 103.015925,56.6816557 103.734824,56.6816557 C104.453723,56.6816557 105.074133,56.4238358 105.596073,55.9081883 C106.118014,55.3925408 106.37898,54.7664068 106.37898,54.0297674 C106.37898,53.3127719 106.118014,52.698915 105.596073,52.1881784 C105.320331,51.9131664 104.759008,51.5055654 103.912086,50.9653633 Z M115.439425,58.0075998 C113.834212,58.0075998 112.558924,57.5361577 111.613523,56.5932594 C110.668121,55.6503611 110.180656,54.4570233 110.151112,53.0132103 L110.151112,45.0280801 L111.332858,45.0280801 L111.332858,52.9100813 C111.332858,53.9904856 111.72677,54.9137264 112.514604,55.6798312 C113.29259,56.455758 114.262597,56.8437155 115.424653,56.8437155 C116.507925,56.8437155 117.441003,56.4582134 118.223913,55.6871976 C119.006824,54.9161818 119.398273,53.9904856 119.398273,52.9100813 L119.398273,45.0280801 L120.580019,45.0280801 L120.580019,53.0132103 C120.550475,54.4570233 120.06301,55.6503611 119.117608,56.5932594 C118.172207,57.5361577 116.946158,58.0075998 115.439425,58.0075998 Z M124.898709,36.9987519 L124.898709,57.8308073 L123.716963,57.8308073 L123.716963,36.9987519 L124.898709,36.9987519 Z M129.837815,45.0428129 L129.837815,39.606442 L131.004789,39.606442 L131.004789,45.0428129 L133.619401,45.0428129 L133.619401,46.2214298 L131.004789,46.2214298 L131.004789,57.8308073 L129.837815,57.8308073 L129.837815,46.2214298 L127.223202,46.2214298 L127.223202,45.0428129 L129.837815,45.0428129 Z M137.243816,45.0428129 L137.243816,57.8308073 L136.076842,57.8308073 L136.076842,45.0428129 L137.243816,45.0428129 Z M136.667714,40.5198701 C136.982848,40.5198701 137.256124,40.6328198 137.487551,40.8587225 C137.718977,41.0846252 137.834688,41.3547223 137.834688,41.6690217 C137.834688,42.0029649 137.718977,42.2828836 137.487551,42.5087863 C137.256124,42.734689 136.982848,42.8476387 136.667714,42.8476387 C136.342733,42.8476387 136.064533,42.734689 135.833107,42.5087863 C135.60168,42.2828836 135.485969,42.0029649 135.485969,41.6690217 C135.485969,41.3547223 135.60168,41.0846252 135.833107,40.8587225 C136.064533,40.6328198 136.342733,40.5198701 136.667714,40.5198701 Z M141.872714,47.9009591 L141.872714,57.8308073 L140.690968,57.8308073 L140.690968,45.0428129 L141.872714,45.0428129 L141.872714,45.8678448 C142.93629,44.8070842 144.177111,44.2767118 145.595213,44.2767118 C147.111794,44.2767118 148.345229,44.7506093 149.295554,45.6984186 C150.245879,46.6462278 150.730883,47.8371101 150.750579,49.2711013 L150.750579,57.8308073 L149.583605,57.8308073 L149.583605,49.388963 C149.583605,48.2987369 149.189693,47.3705853 148.401859,46.6044804 C147.614024,45.8383755 146.678485,45.4553288 145.595213,45.4553288 C144.521788,45.4553288 143.591173,45.8334646 142.803338,46.5897477 C142.379877,47.0120875 142.069672,47.4491536 141.872714,47.9009591 Z M166.177679,49.8309444 C165.951176,48.7112527 165.414472,47.7241708 164.56755,46.8696692 C163.405494,45.71069 162.007109,45.1312091 160.372353,45.1312091 C158.737596,45.1312091 157.341673,45.71069 156.184541,46.8696692 C155.027409,48.0286484 154.448852,49.4233312 154.448852,51.0537595 C154.448852,52.6841879 155.027409,54.0764153 156.184541,55.2304835 C157.341673,56.3845518 158.737596,56.9615772 160.372353,56.9615772 C162.007109,56.9615772 163.405494,56.3820963 164.56755,55.2231172 C165.404624,54.3882593 165.941328,53.4109991 166.177679,52.2913074 L166.177679,49.8309444 Z M166.162907,55.2967807 C165.936404,55.5717927 165.700058,55.8369789 165.453859,56.0923472 C164.055453,57.4968728 162.361634,58.1991251 160.372353,58.1991251 C158.402766,58.1991251 156.716334,57.4993282 155.313004,56.0997135 C153.909673,54.7000989 153.208019,53.018131 153.208019,51.0537595 C153.208019,49.0697443 153.909673,47.3828656 155.313004,45.9930728 C156.716334,44.60328 158.402766,43.908394 160.372353,43.908394 C162.361634,43.908394 164.055453,44.6008246 165.453859,45.9857064 C165.719753,46.2607185 165.965948,46.5504589 166.19245,46.8549365 L166.19245,45.0428129 L167.374196,45.0428129 L167.374196,54.972661 C167.374196,56.8977451 166.689775,58.5379707 165.320913,59.893387 C163.922507,61.2979126 162.233612,62.0001649 160.254178,62.0001649 C158.274744,62.0001649 156.580925,61.2979126 155.172671,59.893387 C154.887081,59.6085531 154.631039,59.3139018 154.404536,59.0094243 L155.64537,58.5527102 C155.773393,58.7098599 155.916185,58.8620964 156.073752,59.0094243 C157.22596,60.1684034 158.619421,60.7478843 160.254178,60.7478843 C161.879086,60.7478843 163.272548,60.1684034 164.434604,59.0094243 C165.488332,57.9584855 166.064427,56.72095 166.162907,55.2967807 Z" id="consulting"></path>
                        <path d="M37.752099,35.9556758 L36.0779592,35.9556758 L36.0779592,32.2614482 C35.7570808,32.6927914 35.4083052,33.103257 35.0316218,33.4928574 C33.0505465,35.482602 30.6509701,36.4774594 27.8328206,36.4774594 C25.0425737,36.4774594 22.6534605,35.4860805 20.6654096,33.5032931 C18.6773586,31.5205056 17.683348,29.1377178 17.683348,26.3548582 C17.683348,23.54417 18.6773586,21.1509467 20.6654096,19.1751163 C22.6534605,17.199286 25.0425737,16.2113857 27.8328206,16.2113857 C30.6509701,16.2113857 33.0505465,17.199286 35.0316218,19.1751163 C35.4083052,19.5647167 35.7570808,19.9751823 36.0779592,20.4065256 L36.0779592,17.8393504 L37.752099,17.8393504 L37.752099,35.9556758 Z M36.0779592,27.9828229 L36.0779592,24.7060221 C35.7710321,23.0780493 35.0037257,21.6518551 33.776017,20.4273969 C32.1297713,18.7855097 30.1487256,17.9645785 27.8328206,17.9645785 C25.5169156,17.9645785 23.5393578,18.7855097 21.9000877,20.4273969 C20.2608176,22.0692841 19.4411948,24.0450847 19.4411948,26.3548582 C19.4411948,28.6646317 20.2608176,30.6334753 21.9000877,32.2614482 C23.5393578,33.889421 25.5169156,34.7033953 27.8328206,34.7033953 C30.1487256,34.7033953 32.1297713,33.882464 33.776017,32.2405768 C35.0037257,31.0161186 35.7710321,29.5968815 36.0779592,27.9828229 Z M45.5009044,17.8393504 L45.5009044,10.137825 L47.1541175,10.137825 L47.1541175,17.8393504 L50.8581518,17.8393504 L50.8581518,19.5090578 L47.1541175,19.5090578 L47.1541175,35.9556758 L45.5009044,35.9556758 L45.5009044,19.5090578 L41.7968701,19.5090578 L41.7968701,17.8393504 L45.5009044,17.8393504 Z M57.4141326,17.8393504 L57.4141326,10.137825 L59.0673457,10.137825 L59.0673457,17.8393504 L62.77138,17.8393504 L62.77138,19.5090578 L59.0673457,19.5090578 L59.0673457,35.9556758 L57.4141326,35.9556758 L57.4141326,19.5090578 L53.7100983,19.5090578 L53.7100983,17.8393504 L57.4141326,17.8393504 Z M86.5710009,35.9556758 L84.8968611,35.9556758 L84.8968611,32.2614482 C84.5759827,32.6927914 84.227207,33.103257 83.8505237,33.4928574 C81.8694483,35.482602 79.4698719,36.4774594 76.6517225,36.4774594 C73.8614755,36.4774594 71.4723623,35.4860805 69.4843114,33.5032931 C67.4962604,31.5205056 66.5022498,29.1377178 66.5022498,26.3548582 C66.5022498,23.54417 67.4962604,21.1509467 69.4843114,19.1751163 C71.4723623,17.199286 73.8614755,16.2113857 76.6517225,16.2113857 C79.4698719,16.2113857 81.8694483,17.199286 83.8505237,19.1751163 C84.227207,19.5647167 84.5759827,19.9751823 84.8968611,20.4065256 L84.8968611,17.8393504 L86.5710009,17.8393504 L86.5710009,35.9556758 Z M84.8968611,27.9828229 L84.8968611,24.7060221 C84.5899339,23.0780493 83.8226275,21.6518551 82.5949188,20.4273969 C80.9486731,18.7855097 78.9676275,17.9645785 76.6517225,17.9645785 C74.3358175,17.9645785 72.3582596,18.7855097 70.7189895,20.4273969 C69.0797194,22.0692841 68.2600966,24.0450847 68.2600966,26.3548582 C68.2600966,28.6646317 69.0797194,30.6334753 70.7189895,32.2614482 C72.3582596,33.889421 74.3358175,34.7033953 76.6517225,34.7033953 C78.9676275,34.7033953 80.9486731,33.882464 82.5949188,32.2405768 C83.8226275,31.0161186 84.5899339,29.5968815 84.8968611,27.9828229 Z" id="atta" stroke="#000000" stroke-width="0.5"></path>
                    </g>
                </g>
            </g>
        </g>
    </g>
</svg>