<?xml version="1.0" encoding="UTF-8"?>
<svg width="242px" height="156px" viewBox="0 0 242 156" version="1.1" xmlns="http://www.w3.org/2000/svg" xmlns:xlink="http://www.w3.org/1999/xlink">
    <!-- Generator: Sketch 47.1 (45422) - http://www.bohemiancoding.com/sketch -->
    <title>gdynia</title>
    <desc>Created with Sketch.</desc>
    <defs></defs>
    <g id="Page-1" stroke="none" stroke-width="1" fill="none" fill-rule="evenodd">
        <g id="Artboard" transform="translate(-351.000000, -1843.000000)">
            <g id="gdynia" transform="translate(351.000000, 1843.000000)">
                <rect id="Rectangle-7" fill-opacity="0.495810688" fill="#FFFFFF" x="0" y="0" width="242" height="156"></rect>
                <g id="GdyniaMojeMiasto" transform="translate(53.000000, 24.000000)" fill-rule="nonzero">
                    <g id="Group" transform="translate(68.651774, 54.103367) scale(-1, 1) rotate(-180.000000) translate(-68.651774, -54.103367) translate(0.313713, 0.265530)">
                        <path d="M67.3046721,107.243136 C66.1017013,107.057808 65.1454938,106.810704 65.1454938,106.71804 C65.1454938,106.594488 66.0091651,105.7914 67.0887543,104.957424 C69.1245509,103.382136 70.4509033,101.528856 72.7643086,97.14276 C73.62798,95.474808 74.2140426,94.702608 74.6150329,94.702608 C74.9543323,94.702608 76.1573031,95.165928 77.2985831,95.691024 C79.2418435,96.648552 79.4886068,96.67944 81.8945483,96.494112 C84.7323255,96.247008 87.2308032,95.660136 90.6854885,94.486392 C94.2944008,93.250872 94.6645457,93.683304 92.8138214,96.98832 C91.3640874,99.552024 89.4516723,101.961288 87.6934843,103.443912 C86.5522043,104.40144 86.6138951,104.247 88.1870108,102.609936 C90.9014063,99.706464 93.7700289,95.042376 93.1839663,94.455504 C93.0605846,94.36284 91.333242,94.795272 89.3282907,95.44392 C85.5034606,96.710328 80.6915775,97.482528 78.9642349,97.173648 C78.3781722,97.050096 77.2060469,96.617664 76.3115301,96.185232 L74.6767237,95.413032 L74.1831972,96.277896 C73.8747432,96.741216 72.9493811,98.409168 72.0548643,99.984456 C71.0678114,101.806848 69.8339952,103.443912 68.7544061,104.463216 L67.0579089,106.038504 L67.9524256,106.223832 C68.445952,106.347384 69.0628601,106.501824 69.3096234,106.594488 C70.2349855,106.87248 78.0080274,106.71804 79.73537,106.378272 C80.6915775,106.162056 82.2030023,105.698736 83.0975191,105.32808 C84.9790887,104.55588 86.2745957,104.339664 86.0895233,104.833872 C85.9352963,105.32808 81.6477851,106.903368 79.3035343,107.304912 C76.835902,107.737344 70.3892125,107.706456 67.3046721,107.243136 Z" id="Shape" fill="#000029"></path>
                        <path d="M61.7216539,93.714192 C61.5982723,93.528864 62.2151804,92.602224 63.1096971,91.675584 C65.9783197,88.64856 67.0579089,86.579064 68.2608796,81.791424 C68.8469423,79.413048 69.3404688,77.250888 69.3404688,77.003784 C69.3404688,76.60224 68.6310245,76.540464 65.3614116,76.60224 C60.6112194,76.725792 60.3644561,76.4478 63.6649144,74.625408 C66.6260732,73.05012 67.7365077,71.567496 68.6618699,68.046264 C69.0628601,66.56364 69.7723044,63.969048 70.2349855,62.270208 C70.9444298,59.76828 71.1295022,58.501872 71.1295022,55.629288 C71.1295022,53.652456 71.0061206,51.212304 70.882739,50.193 C70.6359757,48.463272 70.6668211,48.33972 71.2528838,48.33972 C71.6230287,48.33972 71.9623281,48.463272 72.0548643,48.617712 C72.3633184,49.081032 76.2806847,50.841648 79.0259257,51.706512 C82.943292,52.942032 86.98404,53.312688 94.2635554,53.096472 C101.049544,52.880256 104.750993,52.324272 109.285267,50.779872 C114.313068,49.11192 119.495096,45.837792 120.698067,43.644744 C121.037366,42.996096 121.469202,42.501888 121.68512,42.501888 C122.302028,42.501888 122.456255,46.64088 121.931883,49.297248 C121.68512,50.625432 121.314975,53.776008 121.129903,56.277936 C120.94483,58.779864 120.667221,60.84936 120.512994,60.911136 C120.358767,60.972912 120.297077,61.250904 120.389613,61.559784 C120.54384,61.992216 120.512994,62.023104 120.266231,61.652448 C119.865241,61.096464 118.415507,61.899552 115.485194,64.308816 C114.43645,65.204568 111.629518,66.87252 109.254422,68.046264 C105.151983,70.11576 104.966911,70.239312 104.966911,71.19684 C104.966911,73.081008 103.949012,76.077144 101.851525,80.401464 C100.710245,82.77984 99.6923466,84.664008 99.5998103,84.571344 C99.5072741,84.47868 99.9391098,83.459376 100.556018,82.347408 C102.992805,77.83776 105.182829,70.393752 104.072394,70.393752 C103.887322,70.393752 102.992805,70.88796 102.098288,71.474832 C100.309255,72.679464 93.3381933,75.552048 90.2228074,76.355136 C87.9094021,76.972896 80.7532683,77.034672 77.5145009,76.478688 C76.1573031,76.262472 74.3682697,76.200696 72.8259994,76.355136 C70.3275217,76.60224 70.3275217,76.60224 70.3275217,77.52888 C70.3275217,78.023088 69.8648406,80.15436 69.3404688,82.254744 C68.2608796,86.362848 67.0579089,88.833888 65.0221122,91.057824 L63.7574506,92.447784 L66.1942375,92.447784 C67.5514353,92.447784 69.7723044,92.602224 71.1295022,92.787552 C77.2985831,93.652416 88.3103924,91.181376 93.8317197,87.691032 C95.9600526,86.362848 96.7311877,86.02308 96.9162602,86.33196 C97.3172504,86.94972 97.286405,87.011496 96.1451251,87.783696 C92.4436766,90.254736 89.6984356,91.366704 83.0975191,92.97288 C79.426916,93.868632 78.0388728,93.930408 66.7494548,93.621528 C65.4231024,93.59064 63.788296,93.683304 63.1405425,93.806856 C62.3694074,93.992184 61.8758809,93.961296 61.7216539,93.714192 Z M93.3073479,74.625408 C97.5331683,73.142784 101.573916,71.413056 101.357998,71.19684 C101.296308,71.135064 99.4147379,71.567496 97.1938688,72.185256 C91.8267685,73.66788 86.4905135,74.74896 82.1413115,75.304944 C79.2418435,75.644712 78.7791625,75.768264 79.7045246,75.953592 C80.3214327,76.077144 82.7273742,76.13892 85.0407795,76.077144 C89.0815275,76.015368 89.4208269,75.953592 93.3073479,74.625408 Z M69.6797682,73.791432 C69.6797682,71.938152 69.9265314,71.629272 70.6668211,72.525024 C71.4688017,73.482552 74.3374243,74.9034 75.5095496,74.9034 C77.1135106,74.9034 87.1999578,73.451664 89.9143534,72.803016 C91.1481696,72.525024 94.8804635,71.567496 98.1809217,70.671744 C105.182829,68.787576 110.580774,66.378312 114.09715,63.47484 C117.058309,61.034688 118.538889,60.169824 119.587632,60.262488 L120.512994,60.324264 L120.512994,57.328128 C120.512994,55.691064 120.728912,52.880256 121.006521,51.11964 C121.253284,49.328136 121.500047,47.073312 121.500047,46.084896 L121.500047,44.293392 L120.420458,45.281808 C117.644372,47.8764 115.053358,49.4208 110.796692,51.026976 C106.601717,52.571376 102.252515,53.43624 96.0525889,53.89956 C87.3541849,54.51732 81.339331,53.74512 74.7384145,51.088752 C73.5354437,50.594544 72.4867,50.254776 72.3941638,50.34744 C72.3016276,50.440104 72.3633184,51.613848 72.5483908,52.911144 C72.9493811,56.030832 72.6100816,58.656312 71.0061206,64.895688 C69.0937055,72.27792 68.7235607,72.988344 66.1633921,74.625408 L64.6828127,75.582936 L67.1812905,75.582936 L69.6797682,75.582936 L69.6797682,73.791432 Z M71.9314827,74.563632 C70.6668211,73.791432 70.6359757,73.791432 70.6359757,74.687184 C70.6359757,75.36672 70.7593574,75.428496 71.7772557,75.304944 L72.9493811,75.181392 L71.9314827,74.563632 Z" id="Shape" fill="#000029"></path>
                        <path d="M13.6645141,41.976792 C7.2795154,40.216176 1.72734264,34.347456 0.400990255,27.95364 C-1.07958915,20.880288 1.78903345,15.691104 8.14318672,14.084928 C12.2456255,13.034736 18.1987885,14.05404 22.6096813,16.586856 L24.3061786,17.544384 L26.2185936,23.443992 C27.2673374,26.687232 28.2235449,29.683368 28.3469265,30.084912 L28.5936897,30.826224 L22.0236186,30.73356 L15.4843929,30.640896 L14.4048038,27.49032 L13.35606,24.308856 L15.0834027,24.339744 L16.8415907,24.339744 L16.4097551,23.104224 C16.0396102,21.992256 15.8853832,21.868704 14.6824124,21.806928 C13.0167606,21.683376 11.5361812,22.3938 10.7033553,23.78376 C8.91432183,26.687232 11.2277271,32.216184 14.7749486,33.575256 C16.6565183,34.316568 18.5997788,34.069464 19.7410587,32.957496 L20.60473,32.12352 L25.1081591,33.729696 C27.5757914,34.625448 29.6732789,35.428536 29.7658151,35.490312 C30.0434237,35.768304 28.0384725,39.011544 27.0822649,39.814632 C26.5578931,40.277952 25.2932315,41.019264 24.337024,41.482584 C22.7947537,42.193008 22.0236186,42.31656 18.9699236,42.378336 C16.5639821,42.440112 14.8674849,42.31656 13.6645141,41.976792 Z" id="Shape" fill="#000029"></path>
                        <path d="M32.7578193,41.08104 C32.6035923,40.679496 30.6294864,34.656336 28.3469265,27.706536 C26.095212,20.756736 24.1519515,14.888016 24.0594153,14.610024 C23.9051883,14.239368 24.953932,14.20848 31.1538583,14.393808 C39.3895812,14.640912 41.7646774,15.042456 45.250208,16.710408 C54.1028391,20.972952 57.98936,32.525064 52.5605689,38.332008 C49.7536371,41.328144 47.841222,41.85324 39.2045088,41.85324 C33.0662734,41.85324 33.035428,41.822352 32.7578193,41.08104 Z M43.0601843,32.957496 C46.083034,31.382208 44.7258362,25.667928 40.8701606,23.691096 C39.6363445,23.073336 36.9527943,22.486464 36.9527943,22.85712 C36.9527943,22.980672 37.693084,25.420824 38.5876007,28.231632 C40.2532526,33.389928 40.2532526,33.420816 41.2094601,33.420816 C41.733832,33.420816 42.5666579,33.2046 43.0601843,32.957496 Z" id="Shape" fill="#000029"></path>
                        <path d="M53.485931,41.54436 C53.485931,41.38992 54.4112931,37.745136 55.5834185,33.482592 L57.680906,25.729704 L56.0460995,20.911176 C55.1824282,18.254808 54.5038293,16.030872 54.5655201,15.969096 C54.6580563,15.90732 56.9714617,16.030872 59.747548,16.247088 L64.8061943,16.67952 L66.3176191,21.220056 L67.829044,25.79148 L72.5175454,30.888 C75.1085594,33.698808 77.2677377,35.953632 77.2985831,35.922744 C77.3602739,35.860968 76.0956123,31.752864 74.4916513,26.779896 C72.8876903,21.837816 71.6538741,17.698824 71.7464103,17.60616 C71.8389465,17.513496 74.0598156,17.667936 76.7125204,17.945928 C79.3343797,18.254808 81.5860943,18.501912 81.7094759,18.501912 C81.8328575,18.501912 82.5423018,20.355192 83.2517461,22.610016 C83.9920358,24.895728 84.6706347,26.965224 84.7940163,27.243216 C84.8865525,27.521208 85.380079,25.853256 85.8736054,23.567544 C86.3671319,21.281832 86.7989676,19.366776 86.8915038,19.305 C87.1074216,19.088784 99.8465736,21.00384 100.124182,21.31272 C100.3401,21.559824 106.910171,41.142816 106.910171,41.606136 C106.910171,41.729688 104.658457,41.85324 101.913216,41.85324 L96.8854148,41.85324 L94.6953911,35.026992 L92.5362128,28.200744 L91.641696,32.648616 C91.1481696,35.119656 90.5004161,38.208456 90.2228074,39.474864 L89.6984356,41.85324 L80.0129786,41.85324 L70.3583671,41.85324 L67.829044,38.45556 L65.2997208,35.088768 L64.929576,37.621584 C64.7445035,39.011544 64.4668949,40.525056 64.3743587,40.988376 L64.1584409,41.85324 L58.8221859,41.85324 C55.8301817,41.85324 53.485931,41.6988 53.485931,41.54436 Z" id="Shape" fill="#000029"></path>
                        <path d="M105.182829,31.567536 L101.758989,21.31272 L102.961959,21.528936 C103.609713,21.6216 105.984809,21.93048 108.205678,22.23936 C110.426547,22.517352 112.338962,22.85712 112.462344,22.980672 C112.55488,23.104224 114.03546,27.397656 115.762802,32.525064 L118.847343,41.85324 L113.727005,41.85324 L108.575823,41.85324 L105.182829,31.567536 Z" id="Shape" fill="#000029"></path>
                        <path d="M119.618478,32.617728 C116.194638,27.552096 113.387706,23.227776 113.387706,23.01156 C113.387706,22.764456 113.727005,22.70268 114.374759,22.826232 C115.917029,23.135112 124.492052,22.424688 128.070118,21.714264 C129.797461,21.343608 132.388475,20.633184 133.807364,20.108088 L136.398378,19.181448 L136.398378,30.517344 L136.398378,41.85324 L131.092968,41.85324 L125.818404,41.85324 L119.618478,32.617728 Z M127.915891,29.03472 C127.422365,24.432408 127.545747,24.648624 125.725868,24.648624 L124.152752,24.648624 L125.91094,27.7992 C126.867148,29.559816 127.730819,31.227768 127.823355,31.567536 C128.1935,32.710392 128.224345,31.907304 127.915891,29.03472 Z" id="Shape" fill="#000029"></path>
                        <path d="M75.9722307,15.90732 C75.4170134,15.258672 75.4170134,15.258672 76.527448,15.258672 C77.2368923,15.258672 77.8846457,15.474888 78.2547906,15.90732 C78.8100079,16.52508 78.8100079,16.555968 77.6995733,16.555968 C76.990129,16.555968 76.3423755,16.308864 75.9722307,15.90732 Z" id="Shape" fill="#F47920"></path>
                        <path d="M106.108191,15.90732 C105.522128,15.258672 105.522128,15.258672 106.570872,15.258672 C107.712152,15.258672 108.853432,15.721992 108.853432,16.2162 C108.853432,16.83396 106.694253,16.555968 106.108191,15.90732 Z" id="Shape" fill="#F47920"></path>
                        <path d="M127.422365,15.567552 C126.774611,15.196896 126.31193,14.610024 126.188549,13.961376 C126.034322,13.312728 125.756713,12.97296 125.386568,12.97296 C124.584588,12.97296 124.399515,12.66408 124.76966,12.04632 C125.016423,11.644776 124.831351,10.872576 123.998525,8.926632 C123.381617,7.505784 122.795554,5.899608 122.641327,5.4054 C122.425409,4.447872 122.857245,3.55212 123.597535,3.583008 C124.121907,3.583008 126.682075,6.115824 126.65123,6.610032 C126.65123,6.79536 126.404467,6.64092 126.126858,6.239376 C125.602486,5.498064 124.738815,5.25096 124.738815,5.837832 C124.738815,6.02316 125.263187,7.536672 125.91094,9.235512 C127.021375,12.108096 127.175602,12.324312 128.008428,12.324312 C128.501954,12.324312 128.995481,12.478752 129.088017,12.66408 C129.211398,12.81852 128.93379,12.97296 128.471109,12.97296 C127.484056,12.97296 127.484056,13.1274 128.131809,14.764464 C128.409418,15.413112 128.59449,15.999984 128.5328,16.06176 C128.471109,16.154424 127.977582,15.90732 127.422365,15.567552 Z" id="Shape" fill="#F47920"></path>
                        <path d="M54.0719937,13.1274 C53.5167764,12.81852 53.1774769,12.324312 53.0540953,11.583 C52.9615591,10.996128 52.344651,9.081072 51.6968975,7.351344 C51.049144,5.590728 50.5556176,4.108104 50.6481538,4.01544 C51.0182986,3.644784 52.5297234,4.6332 53.0232499,5.590728 C54.1028391,7.752888 56.4470898,11.027016 56.9097709,11.027016 C57.1565341,11.027016 57.3724519,10.96524 57.3724519,10.903464 C57.3724519,10.841688 56.7246984,9.235512 55.9227179,7.320456 C55.1515828,5.436288 54.6272109,3.891888 54.781438,3.891888 C55.7993363,3.891888 56.8789254,4.818528 58.297814,6.888024 C61.8141901,12.04632 62.7703977,12.416976 60.6420648,7.783776 C58.7604951,3.675672 58.8530313,3.24324 61.2589729,4.602312 C62.3077166,5.189184 62.4310982,5.343624 62.030108,5.745168 C61.5365815,6.239376 61.5057361,6.054048 63.3256149,10.50192 C64.0042138,12.077208 64.4360495,13.43628 64.3435133,13.528944 C63.9116776,13.992264 61.8141901,12.138984 59.7783934,9.482616 C56.5087806,5.220072 56.539626,5.189184 58.8838767,10.594584 C59.5007848,12.108096 59.9634659,13.374504 59.8709297,13.467168 C59.7783934,13.559832 59.1923308,13.405392 58.5445773,13.1274 C57.7425968,12.787632 56.84808,11.953656 55.8918725,10.625472 C53.0232499,6.702696 53.0540953,6.733584 53.794385,8.64864 C54.1336845,9.57528 54.6580563,10.872576 54.9048196,11.552112 C55.7684909,13.59072 55.5834185,13.961376 54.0719937,13.1274 Z" id="Shape" fill="#F47920"></path>
                        <path d="M67.3663629,11.706552 C64.4977403,8.833968 63.2947695,5.436288 64.6828127,4.077216 C65.392257,3.335904 65.8240927,3.428568 67.6131261,4.664088 C70.3583671,6.548256 72.2707822,9.637056 72.2707822,12.262536 C72.2707822,13.621608 71.7772557,13.806936 70.4509033,12.911184 C69.7106136,12.416976 69.4946958,12.138984 69.8339952,12.04632 C71.3145746,11.73744 69.1245509,5.189184 67.5205899,5.189184 C66.7803002,5.189184 66.1017013,6.1776 66.1017013,7.227792 C66.1325467,8.64864 67.0887543,10.687248 68.5384883,12.293424 C70.3275217,14.301144 69.5563866,13.8996 67.3663629,11.706552 Z" id="Shape" fill="#F47920"></path>
                        <path d="M91.9809955,13.1274 C91.3640874,12.81852 91.0556334,12.293424 90.9014063,11.42856 C90.7780247,10.779912 90.0994258,8.80308 89.4208269,7.042464 C88.742228,5.312736 88.2178562,3.891888 88.279547,3.891888 C88.3103924,3.891888 88.8039189,4.046328 89.3899815,4.262544 C90.0994258,4.509648 90.6237977,5.034744 91.0864788,5.961384 C92.2586041,8.216208 94.2635554,11.027016 94.7570819,11.027016 C95.2814537,11.027016 95.1272267,10.471032 93.3381933,6.239376 C92.3819857,3.891888 92.3819857,3.861 93.0605846,4.077216 C94.2944008,4.447872 94.4794732,4.6332 96.3918883,7.289568 C99.7848828,12.108096 100.556018,12.293424 98.5202212,7.845552 C96.6386515,3.768336 96.7620331,3.150576 99.2296655,4.664088 C100.185873,5.25096 100.3401,5.467176 99.9391098,5.621616 C99.3222017,5.86872 99.3838925,6.1776 101.111235,10.285704 C102.560969,13.683384 102.530124,13.621608 101.913216,13.621608 C101.111235,13.621608 99.2296655,11.73744 97.132178,8.864856 C96.0525889,7.382232 95.0963813,6.208488 95.0346905,6.270264 C94.9729997,6.33204 95.5899078,7.969104 96.3918883,9.88416 C97.2247142,11.799216 97.8107769,13.43628 97.7490861,13.498056 C97.6565499,13.59072 97.0396418,13.405392 96.3301975,13.065624 C95.2197629,12.540528 93.8008743,10.96524 91.6108506,7.783776 C91.0864788,6.980688 91.0864788,7.011576 91.5183144,8.277984 C91.7650777,8.988408 92.2586041,10.34748 92.628749,11.27412 C93.6158019,13.776048 93.5541111,13.992264 91.9809955,13.1274 Z" id="Shape" fill="#F47920"></path>
                        <path d="M131.092968,11.366784 C129.427316,9.606168 128.841254,8.710416 128.440263,7.351344 C127.885046,5.436288 128.162655,4.046328 129.118862,3.675672 C130.691978,3.0888 135.072025,7.351344 135.935697,10.254816 C136.460068,12.04632 136.336687,13.621608 135.688933,13.621608 C135.503861,13.621608 134.917798,13.312728 134.393426,12.942072 C133.529755,12.324312 133.49891,12.231648 133.992436,11.860992 C134.671035,11.366784 134.424272,9.698832 133.313837,7.25868 C132.511857,5.498064 131.524804,4.849416 130.722823,5.528952 C129.458162,6.548256 130.044224,9.142848 132.172557,11.922768 C132.882002,12.849408 133.406373,13.621608 133.344683,13.621608 C133.282992,13.621608 132.265093,12.602304 131.092968,11.366784 Z" id="Shape" fill="#F47920"></path>
                        <path d="M75.6637766,12.942072 C75.231941,12.725856 74.5841875,11.490336 73.7513616,9.297288 C71.2220384,2.62548 69.7106136,-0.092664 69.6489228,2.038608 C69.6180774,2.749032 69.6180774,2.749032 69.3096234,1.976832 C69.0011693,1.173744 69.1862417,0 69.6489228,0 C69.8031498,0 70.5742849,0.61776 71.3762654,1.38996 C72.8259994,2.749032 73.0727627,3.274128 77.0518198,13.034736 C77.2060469,13.374504 76.4657571,13.343616 75.6637766,12.942072 Z" id="Shape" fill="#F47920"></path>
                        <path d="M80.6298867,12.3552 C78.131409,10.779912 76.4657571,8.03088 76.4657571,5.55984 C76.4657571,3.428568 77.8538003,3.027024 79.7970608,4.540536 C81.0617224,5.528952 82.1413115,7.135128 81.5552489,7.135128 C81.2776402,7.135128 80.9074954,6.702696 80.6607321,6.146712 C80.1672057,4.911192 79.889597,4.756752 79.0567711,5.189184 C78.5632446,5.467176 78.4090176,5.86872 78.4090176,6.888024 C78.4090176,8.617752 78.5632446,8.833968 80.3831235,9.513504 C82.1104661,10.162152 84.084572,12.04632 83.8069634,12.787632 C83.4985093,13.559832 82.2646931,13.405392 80.6298867,12.3552 Z M81.6477851,11.42856 C81.6477851,10.718136 80.6915775,9.72972 79.9821332,9.72972 C79.1493073,9.72972 79.2418435,10.594584 80.1980511,11.552112 C81.030877,12.386088 81.6477851,12.3552 81.6477851,11.42856 Z" id="Shape" fill="#F47920"></path>
                        <path d="M105.923118,12.81852 C105.30621,12.478752 104.627611,11.305008 103.393795,8.432424 C101.789834,4.756752 101.543071,3.55212 102.375897,3.583008 C102.931114,3.583008 105.30621,5.158296 105.30621,5.55984 C105.30621,5.806944 105.121138,5.776056 104.781838,5.498064 C103.517177,4.447872 104.072394,6.579144 106.139036,10.779912 C107.557925,13.59072 107.557925,13.714272 105.923118,12.81852 Z" id="Shape" fill="#F47920"></path>
                        <path d="M110.889228,12.416976 C110.148939,11.922768 109.192731,11.057904 108.73005,10.50192 C107.557925,9.081072 106.262418,6.208488 106.262418,4.94208 C106.262418,4.077216 106.385799,3.891888 107.002707,3.891888 C107.403698,3.891888 108.390751,4.47876 109.192731,5.220072 C109.963866,5.930496 110.27232,6.301152 109.840485,6.02316 C109.408649,5.745168 108.915122,5.528952 108.791741,5.528952 C108.236524,5.498064 108.575823,7.691112 109.377803,9.389952 C110.67331,12.231648 111.567827,12.911184 112.616571,11.860992 C113.017561,11.42856 112.95587,11.11968 112.061354,9.328176 C111.475291,8.216208 110.981765,7.011576 110.950919,6.64092 C110.920074,6.301152 110.765847,5.528952 110.642465,4.94208 C110.426547,3.984552 110.457393,3.891888 111.166837,3.891888 C111.598673,3.891888 112.462344,4.32432 113.079252,4.880304 C113.912078,5.621616 114.004614,5.776056 113.418551,5.498064 C112.647416,5.127408 112.647416,5.127408 112.832489,6.455592 C112.925025,7.196904 113.541933,8.926632 114.158841,10.254816 C114.806595,11.613888 115.330967,12.787632 115.330967,12.880296 C115.330967,12.942072 115.053358,12.911184 114.683213,12.81852 C114.313068,12.694968 114.03546,12.756744 114.03546,12.942072 C114.03546,13.621608 112.184735,13.28184 110.889228,12.416976 Z" id="Shape" fill="#F47920"></path>
                        <path d="M119.279178,12.756744 C118.107053,12.169872 116.626473,10.440144 116.626473,9.637056 C116.626473,9.359064 117.089155,8.741304 117.675217,8.277984 C118.26128,7.814664 119.00157,7.196904 119.371714,6.918912 C119.957777,6.393816 119.957777,6.393816 119.248333,5.776056 C118.322971,5.065632 117.490145,5.034744 116.811546,5.683392 C116.410556,6.084936 116.37971,6.362928 116.657319,6.918912 C116.842391,7.320456 116.472246,7.073352 115.824493,6.362928 C115.207585,5.652504 114.683213,4.972968 114.683213,4.818528 C114.683213,4.664088 115.053358,4.32432 115.485194,4.046328 C116.626473,3.305016 118.230435,3.891888 119.711014,5.590728 C121.253284,7.41312 121.191593,8.154432 119.371714,9.42084 C118.569734,9.945936 117.92198,10.594584 117.92198,10.841688 C117.92198,12.169872 120.389613,12.3552 121.037366,11.088792 L121.407511,10.316592 L122.116955,11.335896 C122.703018,12.138984 122.764709,12.447864 122.456255,12.81852 C121.931883,13.43628 120.605531,13.405392 119.279178,12.756744 Z" id="Shape" fill="#F47920"></path>
                    </g>
                </g>
            </g>
        </g>
    </g>
</svg>