<?xml version="1.0" encoding="UTF-8"?>
<svg width="242px" height="156px" viewBox="0 0 242 156" version="1.1" xmlns="http://www.w3.org/2000/svg" xmlns:xlink="http://www.w3.org/1999/xlink">
    <!-- Generator: Sketch 47.1 (45422) - http://www.bohemiancoding.com/sketch -->
    <title>sentione</title>
    <desc>Created with Sketch.</desc>
    <defs>
        <polygon id="path-1" points="0 64.6558294 190.397574 64.6558294 190.397574 0.000764816822 0 0.000764816822"></polygon>
        <polygon id="path-3" points="0 64.6558294 190.397574 64.6558294 190.397574 0.000764816822 0 0.000764816822"></polygon>
        <polygon id="path-5" points="0 64.6558294 190.397574 64.6558294 190.397574 0.000764816822 0 0.000764816822"></polygon>
        <polygon id="path-7" points="0 64.6558294 190.397574 64.6558294 190.397574 0.000764816822 0 0.000764816822"></polygon>
    </defs>
    <g id="Page-1" stroke="none" stroke-width="1" fill="none" fill-rule="evenodd">
        <g id="Artboard" transform="translate(-351.000000, -1659.000000)">
            <g id="sentione" transform="translate(351.000000, 1659.000000)">
                <rect id="Rectangle-7" fill-opacity="0.495810688" fill="#FFFFFF" x="0" y="0" width="242" height="156"></rect>
                <g id="logo" transform="translate(26.000000, 46.000000)">
                    <path d="M118.418533,33.9394762 C122.581068,33.9394762 124.866578,30.3810613 124.866578,26.037288 C124.866578,21.4069998 122.353019,17.9611442 118.418533,17.9611442 C114.484048,17.9611442 111.970488,21.4069998 111.970488,26.037288 C111.970488,30.3810613 114.253492,33.9394762 118.418533,33.9394762 Z M118.418533,13.3743447 C125.570776,13.3743447 130.061602,18.8616202 130.061602,26.037288 C130.061602,33.2999338 125.267545,38.7002315 118.418533,38.7002315 C111.567015,38.7002315 106.775464,33.2999338 106.775464,26.037288 C106.775464,18.8616202 111.266291,13.3743447 118.418533,13.3743447 Z" id="Fill-1" fill="#444445" fill-rule="nonzero"></path>
                    <path d="M25.1048553,24.0896194 C25.1048553,21.144868 27.5256039,18.2717524 30.8247891,18.2717524 C34.2097984,18.2717524 36.5447229,21.0067129 36.5447229,24.0896194 L25.1048553,24.0896194 Z M37.2313169,32.4403312 C37.2313169,32.4403312 34.8686258,34.2082055 31.5770134,34.2082055 C28.0834616,34.2082055 25.1048553,31.3785831 25.1048553,28.0858852 L41.6260234,28.0858852 C41.6260234,28.0858852 41.7446628,27.1034487 41.7446628,25.8191173 C41.7446628,21.15766 39.0967322,13.6589052 30.8601285,13.6589052 C24.0371005,13.6589052 19.5944336,19.3462925 19.5944336,25.8191173 C19.5944336,34.008648 24.6656369,38.984792 31.3927438,38.984792 C36.3049198,38.984792 39.894393,35.9530539 39.894393,35.9530539 L37.2313169,32.4403312 Z" id="Fill-3" fill="#444445" fill-rule="nonzero"></path>
                    <path d="M162.833217,24.0896194 C162.833217,21.144868 165.25369,18.2717524 168.555023,18.2717524 C171.937123,18.2717524 174.271781,21.0067129 174.271781,24.0896194 L162.833217,24.0896194 Z M174.960821,32.4403312 C174.960821,32.4403312 172.595875,34.2082055 169.304638,34.2082055 C165.814008,34.2082055 162.833217,31.3785831 162.833217,28.0858852 L179.352503,28.0858852 C179.352503,28.0858852 179.473652,27.1034487 179.473652,25.8191173 C179.473652,21.15766 176.8235,13.6589052 168.587834,13.6589052 C161.765584,13.6589052 157.323423,19.3462925 157.323423,25.8191173 C157.323423,34.008648 162.396573,38.984792 169.120389,38.984792 C174.032005,38.984792 177.621069,35.9530539 177.621069,35.9530539 L174.960821,32.4403312 Z" id="Fill-5" fill="#444445" fill-rule="nonzero"></path>
                    <path d="M65.3147785,21.5237071 L65.3147785,38.415671 L59.8890529,38.415671 L59.8890529,24.3109068 C59.8890529,20.434398 59.0999478,18.5447278 55.8756747,18.5447278 C53.1188331,18.5447278 49.6859748,21.3472698 49.6859748,24.3109068 L49.6859748,38.413114 L44.3004585,38.413114 L44.3004585,14.2207328 L49.6859748,14.2207328 L49.6859748,16.4428213 C49.6859748,16.4428213 52.4905647,13.3743447 56.5516914,13.3743447 C61.5552206,13.3743447 65.3147785,15.9748786 65.3147785,21.5237071" id="Fill-7" fill="#444445" fill-rule="nonzero"></path>
                    <path d="M154.48365,21.5237071 L154.48365,38.415671 L149.057924,38.415671 L149.057924,24.3109068 C149.057924,20.434398 148.266306,18.5447278 145.042033,18.5447278 C142.287705,18.5447278 138.852333,21.3472698 138.852333,24.3109068 L138.852333,38.413114 L133.46933,38.413114 L133.46933,14.2207328 L138.852333,14.2207328 L138.852333,16.4428213 C138.852333,16.4428213 141.656923,13.3743447 145.720563,13.3743447 C150.724092,13.3743447 154.48365,15.9748786 154.48365,21.5237071" id="Fill-9" fill="#444445" fill-rule="nonzero"></path>
                    <path d="M69.9800336,19.9656398 L67.5865969,19.9656398 L67.5865969,14.519805 L69.9800336,14.519805 L69.9800336,9.728186 L75.2702692,6.26033156 L75.2702692,14.519805 L79.538976,14.519805 L79.538976,19.9656398 L75.2702692,19.9656398 L75.2702692,29.8402084 C75.2702692,33.5125053 80.3655753,33.2186193 80.3655753,33.2186193 L80.3655753,38.7002315 C74.6040548,38.7002315 69.9800336,37.0595811 69.9800336,29.8402084 L69.9800336,19.9656398 Z" id="Fill-11" fill="#444445" fill-rule="nonzero"></path>
                    <g id="Fill-13-Clipped">
                        <mask id="mask-2" fill="white">
                            <use xlink:href="#path-1"></use>
                        </mask>
                        <g id="path-1"></g>
                        <polygon id="Fill-13" fill="#444445" fill-rule="nonzero" mask="url(#mask-2)" points="84.7720198 38.5679277 90.175884 38.5679277 90.175884 14.4456052 84.7720198 14.4456052"></polygon>
                    </g>
                    <g id="Fill-15-Clipped">
                        <mask id="mask-4" fill="white">
                            <use xlink:href="#path-3"></use>
                        </mask>
                        <g id="path-1"></g>
                        <polygon id="Fill-15" fill="#444445" fill-rule="nonzero" mask="url(#mask-4)" points="84.7720198 11.6387274 90.175884 11.6387274 90.175884 6.20597863 84.7720198 6.20597863"></polygon>
                    </g>
                    <g id="Fill-16-Clipped">
                        <mask id="mask-6" fill="white">
                            <use xlink:href="#path-5"></use>
                        </mask>
                        <g id="path-1"></g>
                        <path d="M166.517222,46.499843 L153.966879,54.0638814 L153.966879,46.499843 L101.190563,46.499843 L101.190563,5.89571793 L184.55441,5.89571793 L184.579556,46.499843 L166.517222,46.499843 Z M190.365638,-0.00101975576 L95.3768203,-0.00101975576 L95.3768203,52.3940313 L148.153136,52.3940313 L148.153136,64.6565944 L168.491179,52.3940313 L190.395815,52.3940313 L190.365638,-0.00101975576 Z" id="Fill-16" fill="#444445" fill-rule="nonzero" mask="url(#mask-6)"></path>
                    </g>
                    <g id="Fill-17-Clipped">
                        <mask id="mask-8" fill="white">
                            <use xlink:href="#path-7"></use>
                        </mask>
                        <g id="path-1"></g>
                        <path d="M18.337934,31.535437 C18.337934,34.7196244 15.1267965,38.9159193 9.11691489,38.9159193 C3.88907231,38.9159193 0.00150875688,34.7145257 0.00150875688,34.7145257 L3.14475225,31.1708743 C3.14475225,31.1708743 6.36091899,34.0593327 9.06410839,34.0593327 C11.3373021,34.0593327 12.8661757,33.0242805 12.8661757,31.535437 C12.8661757,27.4768091 0.569807181,28.2798668 0.569807181,20.6444455 C0.569807181,17.8222715 3.09194575,13.6795137 9.75059279,13.6795137 C14.6741694,13.6795137 17.7620918,17.2257143 17.7620918,17.2257143 L15.1494278,20.7795632 C15.1494278,20.7795632 12.6423768,18.3270506 9.46141438,18.3270506 C7.54026396,18.3270506 5.93595248,19.1250094 5.93595248,20.54247 C5.93595248,23.7776451 18.337934,23.2116806 18.337934,31.535437" id="Fill-17" fill="#444445" fill-rule="nonzero" mask="url(#mask-8)"></path>
                    </g>
                </g>
            </g>
        </g>
    </g>
</svg>