<?xml version="1.0" encoding="UTF-8"?>
<svg width="242px" height="156px" viewBox="0 0 242 156" version="1.1" xmlns="http://www.w3.org/2000/svg" xmlns:xlink="http://www.w3.org/1999/xlink">
    <!-- Generator: Sketch 47.1 (45422) - http://www.bohemiancoding.com/sketch -->
    <title>StudyInGdansk</title>
    <desc>Created with Sketch.</desc>
    <defs></defs>
    <g id="Page-1" stroke="none" stroke-width="1" fill="none" fill-rule="evenodd">
        <g id="Artboard" transform="translate(-677.000000, -1843.000000)">
            <g id="StudyInGdansk" transform="translate(677.000000, 1843.000000)">
                <rect id="Rectangle-7" fill-opacity="0.495810688" fill="#FFFFFF" x="0" y="0" width="242" height="156"></rect>
                <g transform="translate(34.000000, 34.000000)" id="Group" fill-rule="nonzero">
                    <g transform="translate(87.999937, 44.179396) scale(-1, 1) rotate(-180.000000) translate(-87.999937, -44.179396) translate(-0.000063, 0.377594)">
                        <path d="M0,43.79232 L0,0 L87.8128374,0 L175.625675,0 L175.625675,43.79232 L175.625675,87.58464 L87.8128374,87.58464 L0,87.58464 L0,43.79232 Z M170.499829,43.60356 L170.499829,4.756752 L87.8128374,4.756752 L5.12584521,4.756752 L5.12584521,43.60356 L5.12584521,82.450368 L87.8128374,82.450368 L170.499829,82.450368 L170.499829,43.60356 Z" id="Shape" fill="#31308E"></path>
                        <path d="M120.999879,58.251336 L120.999879,44.773872 L137.499863,44.773872 L153.999846,44.773872 L150.669917,51.53148 L147.302574,58.251336 L150.669917,65.008944 L153.999846,71.7288 L137.499863,71.7288 L120.999879,71.7288 L120.999879,58.251336 Z M129.268578,58.251336 L129.268578,53.117064 L127.697151,53.117064 L126.125724,53.117064 L126.125724,58.251336 L126.125724,63.42336 L127.697151,63.42336 L129.268578,63.42336 L129.268578,58.251336 Z M136.976054,60.78072 L138.884215,58.175832 L138.99646,60.78072 L139.108704,63.42336 L140.455642,63.42336 L141.839994,63.42336 L141.839994,58.251336 L141.839994,53.117064 L140.642717,53.117064 C139.669928,53.117064 139.183534,53.532336 137.499863,55.721952 L135.554286,58.364592 L135.554286,55.721952 L135.554286,53.117064 L134.169934,53.117064 L132.785582,53.117064 L132.785582,58.251336 L132.785582,63.42336 L133.945444,63.42336 C134.880818,63.42336 135.404627,62.970336 136.976054,60.78072 Z" id="Shape" fill="#E94B62"></path>
                        <path d="M28.7346651,64.593672 C25.2550768,63.876384 23.571405,62.064288 23.571405,59.044128 C23.571405,55.721952 25.1802469,54.249624 29.6700384,53.456832 C31.1666355,53.23032 32.7380625,52.8528 33.1122118,52.626288 C34.1224149,52.09776 33.9353402,50.77644 32.7754774,50.323416 C31.1666355,49.681632 29.7448682,49.870392 27.6870471,50.927448 L25.7414709,51.909 L24.4693633,50.625432 C23.7584796,49.945896 23.1972557,49.153104 23.1972557,48.88884 C23.1972557,48.171552 25.4421514,46.548216 27.2754829,45.981936 C29.4455488,45.264648 33.9727551,45.642168 36.0305762,46.699224 C38.0135674,47.718528 38.9115257,49.228608 38.8741108,51.606984 C38.8741108,54.966912 36.9285345,56.665752 31.9897639,57.5718 C28.9591547,58.13808 27.9115367,59.08188 29.2584741,60.063432 C30.2312623,60.78072 32.2516684,60.78072 34.047585,60.02568 C34.8332985,59.685912 35.5067672,59.4594 35.5441821,59.534904 C35.5815971,59.610408 36.0679911,60.21444 36.66663,60.96948 C37.2278539,61.686768 37.714248,62.441808 37.714248,62.66832 C37.714248,63.272352 34.571394,64.480416 32.4013281,64.706928 C31.3162952,64.820184 29.6700384,64.782432 28.7346651,64.593672 Z" id="Shape" fill="#31308E"></path>
                        <polygon id="Shape" fill="#31308E" points="40.4829527 62.441808 40.4829527 60.252192 43.1019977 60.138936 45.7584576 60.02568 45.8707024 52.966056 45.9829472 45.944184 48.4149176 46.05744 50.8843029 46.170696 50.9965476 53.192568 51.0713775 60.252192 53.6155926 60.252192 56.1972227 60.252192 56.1972227 62.404056 56.1972227 64.593672 48.3400877 64.593672 40.4829527 64.593672"></polygon>
                        <path d="M58.9285125,58.13808 C58.9285125,52.701792 59.0781722,51.455976 59.6768111,50.096904 C60.6495992,47.982792 62.5951755,46.510464 65.1768056,45.944184 C69.3298626,45.038136 73.2958451,46.510464 75.0169318,49.606128 C75.952305,51.229464 75.9897199,51.644736 76.0271349,57.873816 L76.0271349,64.404912 L73.5951645,64.518168 L71.1631941,64.631424 L71.0509494,58.477848 C70.9012896,52.437528 70.9012896,52.28652 69.8910866,51.267216 C68.5441491,49.945896 66.2992534,49.870392 65.0645608,51.078456 C64.2788473,51.871248 64.2040174,52.437528 64.0917726,58.251336 L63.9795279,64.593672 L61.4727276,64.593672 L58.9285125,64.593672 L58.9285125,58.13808 Z" id="Shape" fill="#31308E"></path>
                        <path d="M80.142777,55.268928 L80.142777,45.86868 L85.5679416,46.019688 C90.4318824,46.170696 91.1801809,46.283952 92.9386826,47.19 C97.5781337,49.606128 98.9624861,56.779008 95.6325574,61.271496 C93.9114707,63.61212 91.666575,64.329408 85.5679416,64.518168 L80.142777,64.706928 L80.142777,55.268928 Z M89.9454883,59.534904 C91.5917451,58.70436 92.3026288,57.420792 92.3026288,55.268928 C92.3400437,52.135512 89.8706584,50.0214 86.6155596,50.39892 L85.4556969,50.512176 L85.3434521,54.853656 C85.2686222,57.232032 85.3060371,59.421648 85.4182819,59.723664 C85.7176014,60.478704 88.3366464,60.365448 89.9454883,59.534904 Z" id="Shape" fill="#31308E"></path>
                        <path d="M97.8400382,64.216152 C97.8400382,64.027392 99.3366354,61.498008 101.169967,58.591104 L104.499896,53.381328 L104.499896,49.681632 L104.499896,45.981936 L107.044111,45.981936 L109.625741,45.981936 L109.625741,49.64388 L109.625741,53.343576 L113.142744,58.553352 C115.08832,61.384752 116.697162,63.914136 116.697162,64.1784 C116.697162,64.442664 115.649544,64.593672 113.928458,64.593672 L111.159753,64.593672 L109.139347,61.422504 L107.156355,58.213584 L105.323024,61.309248 L103.489692,64.404912 L100.646158,64.518168 C98.9624861,64.593672 97.8400382,64.480416 97.8400382,64.216152 Z" id="Shape" fill="#31308E"></path>
                        <path d="M29.1462294,39.941616 C27.3128979,39.413088 24.2448737,36.24192 23.6462349,34.241064 C22.4115422,29.937336 23.6836498,25.218336 26.714259,22.990968 C30.1938474,20.461584 36.5543852,20.57484 39.6972392,23.255232 C40.857102,24.236784 40.857102,24.236784 40.857102,28.540512 L40.857102,32.881992 L36.3298956,32.881992 L31.8401042,32.881992 L31.8401042,30.918888 L31.8401042,28.918032 L34.1972447,28.918032 L36.5543852,28.918032 L36.5543852,27.55896 C36.5543852,26.313144 36.4421404,26.199888 34.7958836,25.784616 C32.4387431,25.180584 30.380922,25.897872 29.1836443,27.672216 C27.6122173,30.050592 28.1734412,33.901296 30.3435071,35.449128 C31.4659549,36.24192 34.3094895,36.24192 36.0305762,35.411376 L37.3775136,34.73184 L38.7992809,36.166416 C40.4455378,37.827504 40.2584631,38.280528 37.5645883,39.601848 C35.7312568,40.507896 31.5781997,40.658904 29.1462294,39.941616 Z" id="Shape" fill="#31308E"></path>
                        <path d="M111.384242,39.82836 C110.523699,39.526344 109.326421,38.6958 108.727782,38.054016 C107.829824,37.034712 107.642749,36.468432 107.642749,34.73184 C107.642749,31.183152 109.438666,29.63532 114.152947,28.955784 C117.146141,28.50276 118.306004,27.74772 117.59512,26.61516 C116.921652,25.520352 112.394445,25.67136 110.860433,26.841672 L109.663156,27.709968 L108.278803,26.04888 C107.006696,24.501048 106.969281,24.312288 107.530505,23.670504 C108.952272,22.08492 111.646147,21.216624 114.901246,21.216624 C120.027091,21.254376 122.608721,23.02872 122.870625,26.652912 C123.13253,30.352608 120.737974,32.579976 115.874034,33.146256 C113.404648,33.448272 112.394445,34.127808 112.993084,35.147112 C113.554308,36.090912 116.622332,36.317424 118.193759,35.48688 C119.353622,34.882848 119.391037,34.882848 120.663145,36.506184 L121.935252,38.12952 L120.962464,38.846808 C118.942058,40.39464 114.302607,40.847664 111.384242,39.82836 Z" id="Shape" fill="#31308E"></path>
                        <path d="M44.7856695,30.918888 L44.7856695,21.782904 L49.8366849,21.782904 C52.6053896,21.782904 55.4863391,21.971664 56.2346376,22.235928 C59.8264708,23.443992 61.8468769,26.577408 61.8468769,30.95664 C61.8468769,34.505328 60.5747694,36.99696 57.9557244,38.620296 C56.0849779,39.790608 55.8979033,39.82836 50.3979088,39.941616 L44.7856695,40.092624 L44.7856695,30.918888 Z M55.3740943,34.694088 C56.571372,33.59928 57.095181,31.220904 56.571372,29.333304 C55.9727331,27.105936 54.5883808,26.162136 52.0067507,26.162136 L49.9115147,26.162136 L49.9115147,30.95664 L49.9115147,35.751144 L52.2312403,35.562384 C53.7652524,35.48688 54.8502853,35.147112 55.3740943,34.694088 Z" id="Shape" fill="#31308E"></path>
                        <path d="M67.4217013,32.995248 C65.7006146,29.106792 63.904698,24.991824 63.380889,23.859264 L62.4829307,21.782904 L65.2142205,21.782904 L67.9455103,21.782904 L68.5441491,23.179728 L69.1053731,24.576552 L73.2210152,24.576552 L77.3366574,24.576552 L77.7856365,23.179728 L78.2346156,21.782904 L80.9659054,21.782904 C82.4625026,21.782904 83.6971952,21.933912 83.6971952,22.08492 C83.6971952,22.27368 81.9386936,26.313144 79.8060426,31.107648 L75.952305,39.82836 L73.2210152,39.941616 L70.5271404,40.054872 L67.4217013,32.995248 Z M74.380878,31.824936 C74.904687,30.465864 75.2414214,29.2578 75.1291766,29.144544 C74.7550273,28.767024 71.1257792,28.88028 71.1257792,29.2578 C71.1257792,29.44656 71.3876837,30.314856 71.7244181,31.1454 C72.0985674,31.975944 72.5475465,33.108504 72.7346211,33.637032 C73.1836003,34.807344 73.1836003,34.807344 74.380878,31.824936 Z" id="Shape" fill="#31308E"></path>
                        <polygon id="Shape" fill="#31308E" points="86.8400492 30.918888 86.8400492 21.782904 89.3468494 21.782904 91.8910646 21.782904 92.0033094 26.4264 92.1155541 31.107648 95.6699724 26.464152 99.1869756 21.820656 101.469286 21.782904 103.714182 21.782904 103.714182 30.918888 103.714182 40.01712 101.169967 40.01712 98.6257517 40.01712 98.5135069 35.260368 98.4012621 30.541368 94.7720141 35.260368 91.1053511 40.01712 88.9727001 40.01712 86.8400492 40.01712"></polygon>
                        <path d="M126.125724,30.918888 L126.125724,21.782904 L128.669939,21.782904 L131.214155,21.782904 L131.214155,24.652056 L131.251569,27.521208 L133.870614,24.652056 L136.527074,21.745152 L139.744758,21.858408 L142.962442,21.971664 L139.07129,26.350896 C136.938639,28.729272 135.180137,30.843384 135.180137,30.994392 C135.142722,31.183152 136.751564,33.184008 138.69714,35.411376 C140.605302,37.676496 142.214144,39.6396 142.214144,39.752856 C142.214144,39.903864 140.829791,40.01712 139.108704,40.01712 L136.003265,40.01712 L133.720955,37.147968 L131.401229,34.278816 L131.288984,37.147968 L131.17674,40.01712 L128.632524,40.01712 L126.125724,40.01712 L126.125724,30.918888 Z" id="Shape" fill="#31308E"></path>
                    </g>
                </g>
            </g>
        </g>
    </g>
</svg>