<?xml version="1.0" encoding="UTF-8"?>
<svg width="242px" height="156px" viewBox="0 0 242 156" version="1.1" xmlns="http://www.w3.org/2000/svg" xmlns:xlink="http://www.w3.org/1999/xlink">
    <!-- Generator: Sketch 47.1 (45422) - http://www.bohemiancoding.com/sketch -->
    <title>aplitt</title>
    <desc>Created with Sketch.</desc>
    <defs></defs>
    <g id="Page-1" stroke="none" stroke-width="1" fill="none" fill-rule="evenodd">
        <g id="Artboard" transform="translate(-351.000000, -1475.000000)">
            <g id="aplitt" transform="translate(351.000000, 1475.000000)">
                <rect id="Rectangle-7" fill-opacity="0.495810688" fill="#FFFFFF" x="0" y="0" width="242" height="156"></rect>
                <g id="apli" transform="translate(33.000000, 61.000000)" fill-rule="nonzero">
                    <g id="Group" transform="translate(87.516409, 17.020780) scale(-1, 1) rotate(-180.000000) translate(-87.516409, -17.020780) translate(0.000000, 0.000000)">
                        <path d="M10.9306039,32.7222945 C7.30586009,21.9313793 0,0.0902061875 0,0.0507409805 C0,0.0225515469 1.69117132,0.00563788672 3.94042917,0.0169136602 L7.88649558,0.0281894336 L8.81100256,3.25869852 L9.73550955,6.48356973 L15.6602464,6.4948455 L21.5849832,6.51175916 L22.4587551,3.45038667 C22.9435575,1.76465854 23.3607131,0.298807996 23.3888993,0.191688148 L23.4396345,0 L27.3800636,0 C31.111915,0 31.3204928,0.00563788672 31.2810321,0.101481961 C31.2584832,0.157860828 28.6991773,7.79719733 25.5930593,17.071521 C22.4869413,26.3458446 19.9276354,33.9569917 19.9107236,33.9851811 C19.8938119,34.0133706 18.0504352,34.04156 15.626423,34.04156 L11.3703085,34.04156 L10.9306039,32.7222945 Z M17.6501913,19.8453612 L19.8656257,11.9015789 L15.3389238,11.9015789 C11.0602604,11.9015789 10.8178592,11.9015789 10.8404081,12.0030608 C11.2744754,13.6267722 15.36711,27.8624362 15.3952962,27.8342467 C15.4178452,27.8116952 16.432548,24.2147235 17.6501913,19.8453612 Z" id="Shape" fill="#000000"></path>
                        <path d="M37.2180721,17.02078 L37.2180721,0 L41.1219357,0 L45.0257993,0 L45.0257993,6.53994859 L45.0257993,13.0855351 L47.9663719,13.0855351 C52.6307284,13.0855351 54.2024138,13.1926549 55.9656307,13.6211343 C59.8525945,14.5739372 62.3763043,16.9362117 63.2663626,20.4598909 C63.5029604,21.3901422 63.5987262,22.1399811 63.6381592,23.3239374 C63.7113918,25.5621784 63.3902948,27.2479065 62.5960022,28.8603421 C62.1622396,29.7285767 61.6552443,30.4163988 60.9172845,31.1211347 C59.120268,32.8350522 56.6190913,33.7596657 53.1884232,33.9795433 C52.602562,34.0133706 49.2000604,34.0359221 44.7159689,34.0359221 L37.2180721,34.04156 L37.2180721,17.02078 Z M51.1210092,28.1556063 C53.8982166,27.8455225 54.9460069,27.174614 55.430469,25.3986797 C55.6727001,24.5078936 55.7064998,23.042043 55.4980684,22.1287054 C55.148805,20.5613729 54.1798807,19.659311 52.4110305,19.2421074 C51.2900076,18.9771267 50.6816133,18.9320236 47.7917402,18.8981963 L45.0257993,18.8700068 L45.0257993,23.5945559 L45.0257993,28.3134671 L47.6734413,28.2796398 C49.4028585,28.2570882 50.597114,28.2119851 51.1210092,28.1556063 Z" id="Shape" fill="#000000"></path>
                        <polygon id="Shape" fill="#000000" points="70.6603977 17.02078 70.6603977 0 83.470966 0 96.2815343 0 96.2815343 3.34326682 96.2815343 6.68653365 87.3966031 6.70344731 78.5173203 6.72036097 78.5003751 20.3809605 78.4834299 34.04156 74.5690896 34.04156 70.6603977 34.04156"></polygon>
                        <path d="M147.267582,33.9626296 C147.25632,33.9231644 147.250689,32.4404002 147.25632,30.6644659 L147.273212,27.4395947 L152.284581,27.422681 L157.29595,27.4057673 L157.29595,13.7057026 L157.29595,0 L161.164276,0 L165.038233,0 L165.038233,13.7057026 L165.038233,27.4114052 L170.03271,27.4114052 L175.032817,27.4114052 L175.032817,30.7264826 L175.032817,34.04156 L161.164276,34.04156 C150.128003,34.04156 147.290105,34.0246463 147.267582,33.9626296 Z" id="Shape" fill="#000000"></path>
                        <polygon id="Shape" fill="#973488" points="101.675458 22.2504559 101.675458 10.4537074 105.583208 10.4537074 109.496647 10.4537074 109.496647 22.2504559 109.496647 34.04156 105.583208 34.04156 101.675458 34.04156"></polygon>
                        <polygon id="Shape" fill="#973488" points="115.160266 30.7825621 115.160266 27.5179161 120.16427 27.5179161 125.168273 27.5179161 125.168273 13.7589581 125.168273 0 129.049619 0 132.925324 0 132.942249 13.7420135 132.959173 27.4896752 137.946252 27.5009716 142.938972 27.5179161 142.938972 30.7825621 142.938972 34.04156 129.049619 34.04156 115.160266 34.04156"></polygon>
                        <polygon id="Shape" fill="#973488" points="101.675458 3.34772454 101.675458 0 105.583208 0 109.496647 0 109.496647 3.34772454 109.496647 6.70109449 105.583208 6.70109449 101.675458 6.70109449"></polygon>
                    </g>
                </g>
            </g>
        </g>
    </g>
</svg>