<?xml version="1.0" encoding="UTF-8"?>
<svg width="242px" height="156px" viewBox="0 0 242 156" version="1.1" xmlns="http://www.w3.org/2000/svg" xmlns:xlink="http://www.w3.org/1999/xlink">
    <!-- Generator: Sketch 47.1 (45422) - http://www.bohemiancoding.com/sketch -->
    <title>asseco</title>
    <desc>Created with Sketch.</desc>
    <defs></defs>
    <g id="Page-1" stroke="none" stroke-width="1" fill="none" fill-rule="evenodd">
        <g id="Artboard" transform="translate(-963.000000, -1475.000000)">
            <g id="asseco" transform="translate(963.000000, 1475.000000)">
                <rect id="Rectangle-7" fill-opacity="0.495810688" fill="#FFFFFF" x="0" y="0" width="242" height="156"></rect>
                <g id="logo-asseco-poland-sa" transform="translate(22.000000, 61.000000)" fill-rule="nonzero" fill="#044C83">
                    <path d="M68.7200514,1.51251013 C68.7200514,0.573710737 68.1938641,0.0521555216 67.2467271,8.8817842e-16 L57.2491699,8.8817842e-16 C55.144421,8.8817842e-16 53.7763342,0.417244173 52.9870534,1.199577 C52.1977725,2.03406534 51.8294415,3.18148682 51.8294415,4.64184142 L51.8294415,9.70092701 C51.8294415,10.1703267 51.7768228,10.5875709 51.724204,10.900504 C51.5663479,11.5263703 50.9875419,11.8393034 49.9877862,11.8393034 L37.4645303,11.8393034 C36.4121559,11.8393034 35.8333499,12.3608586 35.8333499,13.3518135 C35.8333499,14.3427684 36.3595371,14.8643236 37.3592929,14.8643236 L49.5668364,14.8643236 C50.7244483,14.8643236 51.5663479,14.7600126 52.1977725,14.603546 C52.8291972,14.4470795 53.4080032,14.1341463 53.8289529,13.6647466 C54.6182338,12.8302583 54.9865648,11.6828368 54.9865648,10.2224822 L54.9865648,5.11124111 C54.9865648,4.38106381 55.0391836,4.06813068 55.0391836,3.96381964 C55.1970397,3.33795338 55.7758457,3.02502025 56.7756014,3.02502025 L67.0362522,3.02502025 C68.1412454,3.02502025 68.7200514,2.50346504 68.7200514,1.51251013 Z M91.0303896,8.8817842e-16 L80.9802137,8.8817842e-16 C78.8754648,8.8817842e-16 77.507378,0.417244173 76.7180972,1.199577 C75.9288163,2.03406534 75.5078665,3.18148682 75.5078665,4.64184142 L75.5078665,9.70092701 C75.5078665,10.1703267 75.4552478,10.5875709 75.4026291,10.900504 C75.2447729,11.5263703 74.665967,11.8393034 73.6662113,11.8393034 L61.1429553,11.8393034 C60.0905809,11.8393034 59.511775,12.3608586 59.511775,13.3518135 C59.511775,14.3427684 60.0379622,14.8643236 61.0377179,14.8643236 L73.2452615,14.8643236 C74.3502546,14.8643236 75.2447729,14.7600126 75.8761976,14.603546 C76.560241,14.4470795 77.0864282,14.1341463 77.507378,13.6647466 C78.2966588,12.8302583 78.6649899,11.6828368 78.6649899,10.2224822 L78.6649899,5.11124111 C78.6649899,4.53753038 78.6649899,4.1202862 78.7176086,3.96381964 C78.8754648,3.33795338 79.4542707,3.02502025 80.4540264,3.02502025 L90.8199147,3.02502025 C92.1880015,3.02502025 92.5037139,2.19053191 92.5037139,1.51251013 C92.5037139,0.625866259 91.9775266,0.104311043 91.0303896,1.35141251e-15 L91.0303896,8.8817842e-16 Z M122.917335,5.94572946 L108.499805,5.94572946 C107.50005,5.94572946 106.921244,6.46728467 106.921244,7.45823958 C106.921244,8.39703897 107.447431,8.91859419 108.447187,8.97074971 L122.285911,8.97074971 C123.811854,8.97074971 124.969466,8.55350554 125.758746,7.77117271 C126.548027,6.98883989 126.968977,6.10219602 127.021596,5.11124111 L127.021596,3.8595086 C127.021596,2.6599316 126.548027,1.66897669 125.495653,0.99095491 C124.601134,0.365088651 123.496141,0.0521555216 122.180673,0.0521555216 L100.817472,0.0521555216 C98.5022482,0.0521555216 96.7658304,0.625866259 95.7134559,1.77328773 C94.6610815,2.97286473 94.0822755,4.43321933 94.0822755,6.15435154 L94.0822755,8.65781658 C94.0822755,10.8483485 94.7663189,12.5694807 96.081787,13.6647466 C97.0815427,14.499235 98.6601044,14.9164792 100.817472,14.9164792 L125.022084,14.9164792 C126.653265,14.9164792 126.968977,14.0819908 126.968977,13.403969 C126.968977,12.9345693 126.811121,12.5694807 126.548027,12.3087031 C126.232315,11.99577 125.811365,11.8914589 125.17994,11.8914589 L100.817472,11.8914589 C98.5548669,11.8914589 97.4498737,10.796193 97.4498737,8.60566106 L97.4498737,6.15435154 C97.5024925,5.00693007 97.8708235,4.1202862 98.6074856,3.59873099 C99.1336729,3.23364234 100.028191,3.02502025 101.238422,3.02502025 L122.917335,3.02502025 C123.496141,3.02502025 123.759235,3.28579786 123.811854,3.8595086 L123.811854,5.11124111 C123.811854,5.47632976 123.706616,5.84141842 122.917335,5.94572946 L122.917335,5.94572946 Z M160.960672,11.8393034 L136.492966,11.8393034 C134.230361,11.8393034 133.125367,10.7440374 133.125367,8.55350554 L133.125367,6.10219602 C133.177986,4.90261903 133.546317,4.06813068 134.282979,3.59873099 C134.809167,3.23364234 135.703685,3.02502025 136.913915,3.02502025 L152.489057,3.02502025 C153.488813,3.02502025 154.067619,2.50346504 154.067619,1.51251013 C154.067619,0.521555216 153.541432,0 152.541676,0 L136.492966,0 C134.177742,0 132.441324,0.573710737 131.38895,1.72113221 C130.336575,2.86855369 129.757769,4.38106381 129.757769,6.10219602 L129.757769,8.60566106 C129.757769,10.796193 130.441813,12.5173252 131.757281,13.6125911 C132.757036,14.4470795 134.282979,14.8643236 136.492966,14.8643236 L160.697578,14.8643236 C162.328758,14.8643236 162.644471,14.0298353 162.644471,13.3518135 C162.644471,12.8824138 162.486615,12.5173252 162.223521,12.2565476 C162.065665,11.99577 161.592096,11.8393034 160.960672,11.8393034 Z M195.373316,1.25173252 C194.37356,0.417244173 192.794999,8.8817842e-16 190.585012,8.8817842e-16 L171.116085,8.8817842e-16 C169.958473,8.8817842e-16 169.011336,0.104311043 168.274674,0.260777608 C165.696357,0.886643867 164.380889,2.86855369 164.32827,6.10219602 L164.32827,8.55350554 C164.32827,10.3789488 164.907076,11.8914589 166.012069,13.0910359 C167.064443,14.2384574 168.800861,14.8643236 171.116085,14.8643236 L190.585012,14.8643236 C192.900236,14.8643236 194.636654,14.2384574 195.741647,13.0910359 C196.84664,11.8914589 197.372827,10.3789488 197.372827,8.55350554 L197.372827,6.15435154 C197.372827,4.01597516 196.688784,2.34699847 195.373316,1.25173252 Z M194.005229,8.60566106 C194.005229,9.85739358 193.636898,10.7440374 192.900236,11.2655927 C192.32143,11.6828368 191.426912,11.8393034 190.2693,11.8393034 L171.537035,11.8393034 C170.326804,11.8393034 169.432286,11.6306813 168.906099,11.2655927 C168.116818,10.7440374 167.748487,9.85739358 167.748487,8.60566106 L167.748487,6.15435154 C167.748487,5.05908559 168.01158,4.27675277 168.537768,3.80735307 C169.063955,3.33795338 169.905854,3.07717577 171.116085,3.07717577 L190.69025,3.07717577 C191.90048,3.07717577 192.794999,3.33795338 193.268567,3.80735307 C193.742136,4.27675277 194.005229,5.05908559 194.057848,6.20650707 L194.005229,8.60566106 L194.005229,8.60566106 Z M27.6248292,8.8817842e-16 L6.78781518,8.8817842e-16 C5.63020329,8.8817842e-16 4.68306629,0.104311043 3.94640417,0.260777608 C1.36808678,0.886643867 0.0526187223,2.86855369 0,6.10219602 L0,8.50135001 C0,10.3267933 0.578805946,11.8393034 1.63118039,13.0388804 C2.68355484,14.1863019 4.41997268,14.8121681 6.73519646,14.8121681 L22.731288,14.8121681 C23.7310438,14.7600126 24.257231,14.2384574 24.257231,13.299658 L24.257231,9.07506075 C24.2046123,8.08410584 23.678425,7.61470615 22.6786693,7.61470615 C21.6789136,7.61470615 21.1527264,8.13626136 21.1527264,9.1793718 L21.1527264,11.8393034 L7.10352751,11.8393034 C5.8932969,11.8393034 4.99877862,11.6306813 4.4725914,11.2655927 C3.68331056,10.7440374 3.31497951,9.85739358 3.31497951,8.60566106 L3.31497951,6.15435154 C3.31497951,5.05908559 3.57807312,4.27675277 4.10426034,3.80735307 C4.63044756,3.33795338 5.47234712,3.07717577 6.68257774,3.07717577 L27.9405416,3.07717577 C28.9402973,3.07717577 29.4664845,3.3901089 29.6769594,4.01597516 C29.7295781,4.17244173 29.7821968,4.48537485 29.7821968,5.16339663 L29.7821968,14.8643236 L33.0445576,14.8643236 L33.0445576,4.64184142 C33.0445576,3.18148682 32.6236078,2.03406534 31.8869457,1.199577 C31.0976649,0.417244173 29.7295781,8.8817842e-16 27.6248292,8.8817842e-16 Z" id="Shape"></path>
                    <path d="M54.5489195,25.760111 L55.7088176,25.760111 C56.5523799,25.760111 57.7650007,26.1751782 57.7650007,27.3684966 C57.7650007,28.6136983 56.7105478,29.0287655 55.8669856,29.0287655 L54.5489195,29.0287655 L54.5489195,25.760111 L54.5489195,25.760111 Z M53.2308535,33.9058057 L54.6016421,33.9058057 L54.6016421,30.1702005 L55.9197082,30.1702005 C57.6068327,30.1702005 59.2412346,29.4438328 59.2412346,27.3684966 C59.2412346,25.2412769 57.6595554,24.5667926 55.7088176,24.5667926 L53.2308535,24.5667926 L53.2308535,33.9058057 L53.2308535,33.9058057 Z M69.5748724,29.2362992 C69.5748724,27.3684966 70.5766026,25.6044608 72.6855083,25.6044608 C74.7416913,25.6044608 75.7961441,27.3684966 75.7961441,29.2362992 C75.7961441,31.1041018 74.8471366,32.8681376 72.6855083,32.8681376 C70.52388,32.8681376 69.5748724,31.1041018 69.5748724,29.2362992 Z M68.1513611,29.2362992 C68.1513611,32.0380031 69.785763,34.0095725 72.6855083,34.0095725 C75.5852536,34.0095725 77.2196555,32.0380031 77.2196555,29.2362992 C77.2196555,26.4864787 75.5325309,24.4630258 72.6855083,24.4630258 C69.8384856,24.4630258 68.1513611,26.4864787 68.1513611,29.2362992 Z M86.9733442,24.6186761 L88.3441329,24.6186761 L88.3441329,32.7124874 L92.298331,32.7124874 L92.298331,33.9058057 L87.0260668,33.9058057 L87.0260668,24.6186761 L86.9733442,24.6186761 Z M107.060671,30.4296175 L103.317363,30.4296175 L105.215378,25.8119944 L107.060671,30.4296175 Z M100.523063,33.9058057 L101.946574,33.9058057 L102.895582,31.5710524 L107.535174,31.5710524 L108.484182,33.9058057 L109.960416,33.9058057 L105.953495,24.6186761 L104.529984,24.6186761 L100.523063,33.9058057 L100.523063,33.9058057 Z M119.134156,24.6186761 L120.979448,24.6186761 L125.144537,32.0898865 L125.197259,32.0898865 L125.197259,24.6186761 L126.568048,24.6186761 L126.568048,33.9058057 L124.828201,33.9058057 L120.557667,26.278945 L120.504944,26.278945 L120.504944,33.9058057 L119.134156,33.9058057 L119.134156,24.6186761 L119.134156,24.6186761 Z M138.008861,25.760111 L139.590541,25.760111 C141.541278,25.760111 143.017512,27.0571961 143.017512,29.1844158 C143.017512,31.5710524 141.752169,32.660604 139.432373,32.660604 L138.008861,32.660604 L138.008861,25.760111 Z M136.638073,33.9058057 L139.432373,33.9058057 C142.543009,33.9058057 144.441024,32.2974201 144.441024,29.1844158 C144.441024,26.3308284 142.226673,24.6186761 139.432373,24.6186761 L136.638073,24.6186761 L136.638073,33.9058057 L136.638073,33.9058057 Z" id="Shape"></path>
                </g>
            </g>
        </g>
    </g>
</svg>