<?xml version="1.0" encoding="UTF-8"?>
<svg width="242px" height="156px" viewBox="0 0 242 156" version="1.1" xmlns="http://www.w3.org/2000/svg" xmlns:xlink="http://www.w3.org/1999/xlink">
    <!-- Generator: Sketch 47.1 (45422) - http://www.bohemiancoding.com/sketch -->
    <title>crt</title>
    <desc>Created with Sketch.</desc>
    <defs></defs>
    <g id="Page-1" stroke="none" stroke-width="1" fill="none" fill-rule="evenodd">
        <g id="Artboard" transform="translate(-66.000000, -1659.000000)">
            <g id="crt" transform="translate(66.000000, 1659.000000)">
                <rect id="Rectangle-7" fill-opacity="0.495810688" fill="#FFFFFF" x="0" y="0" width="242" height="156"></rect>
                <g transform="translate(31.000000, 45.000000)">
                    <g id="Group-7-Copy" transform="translate(78.586388, 15.011405)" stroke="#444240" fill="#444240">
                        <path d="M0,13.2910687 C0,15.3008069 0.50564934,16.4530568 1.25081679,17.1765626 C1.99598424,17.9000684 2.95405667,18.0876439 3.83228974,18.0876439 C4.68390968,18.0876439 5.64198211,17.9000684 6.38714956,17.1765626 C7.13231701,16.4530568 7.63796635,15.3008069 7.63796635,13.2910687 L7.63796635,12.8623246 L6.78634641,12.8623246 L6.78634641,13.2910687 C6.78634641,14.6576907 6.5468283,15.6491616 6.04117896,16.3190743 C5.53552962,16.935394 4.79036217,17.2569521 3.83228974,17.2569521 C1.8363055,17.2569521 0.851619942,16.0511092 0.851619942,13.2910687 L0.851619942,4.7965752 C0.851619942,2.03653472 1.88953175,0.857488304 3.83228974,0.857488304 C5.74843461,0.857488304 6.78634641,2.03653472 6.78634641,4.7965752 L6.78634641,5.22531936 L7.63796635,5.22531936 L7.63796635,4.7965752 C7.63796635,2.84043001 7.13231701,1.60779057 6.38714956,0.911081323 C5.64198211,0.214372076 4.68390968,0.0267965095 3.83228974,0.0267965095 C2.95405667,0.0267965095 1.99598424,0.214372076 1.25081679,0.911081323 C0.50564934,1.60779057 0,2.84043001 0,4.7965752 L0,13.2910687 Z M11.0577527,0.0267965095 L11.0577527,18.0876439 L17.4981285,18.0876439 L17.4981285,17.2569521 L11.8827595,17.2569521 L11.8827595,9.45916786 L16.6997348,9.45916786 L16.6997348,8.62847606 L11.8827595,8.62847606 L11.8827595,0.857488304 L17.4981285,0.857488304 L17.4981285,0.0267965095 L11.0577527,0.0267965095 Z M27.2014988,18.0608474 L27.2014988,0 L26.3498788,0 L26.3498788,15.461586 L20.1756343,0 L19.4570799,0 L19.4570799,18.0608474 L20.3086999,18.0608474 L20.3086999,2.59926142 L26.5095576,18.0608474 L27.2014988,18.0608474 Z M28.8065859,0.857488304 L32.292905,0.857488304 L32.292905,18.0608474 L33.1179118,18.0608474 L33.1179118,0.857488304 L36.6308441,0.857488304 L36.6308441,0 L28.8065859,0 L28.8065859,0.857488304 Z M46.0865319,13.0499001 L46.0865319,18.0608474 L45.234912,18.0608474 L45.234912,13.0499001 C45.234912,10.8793829 44.0107083,9.61994692 41.8816584,9.61994692 L39.4864774,9.61994692 L39.4864774,18.0608474 L38.6614705,18.0608474 L38.6614705,0 L42.4139209,0 C45.2881382,0 46.2994369,1.50060453 46.2994369,4.7965752 C46.2994369,6.40436577 45.9800794,7.6102087 45.3147513,8.38730748 C45.022007,8.7356621 44.4099051,9.0036272 43.9840952,9.21799927 C44.3300658,9.37877833 44.6228101,9.59315041 44.8889414,9.8611155 C45.6873351,10.6382143 46.0865319,11.6832781 46.0865319,13.0499001 Z M39.4195386,0.763291763 L39.4195386,8.66826207 L41.8147197,8.66826207 C44.1832876,8.66826207 45.4074913,7.48921565 45.4074913,4.70237866 C45.4074913,1.88874516 44.7155501,0.763291763 42.3469821,0.763291763 L39.4195386,0.763291763 Z M49.7798019,13.6394233 C49.7798019,16.2118883 50.8177137,18.0608474 53.6120917,18.0608474 C56.3000171,18.0608474 57.4177683,16.3458708 57.4177683,13.6394233 L57.4177683,0 L56.5927615,0 L56.5927615,13.6394233 C56.5927615,15.7027546 55.9806596,17.2301556 53.6120917,17.2301556 C51.3499762,17.2301556 50.6048087,15.9171267 50.6048087,13.6394233 L50.6048087,0 L49.7798019,0 L49.7798019,13.6394233 Z M66.7390373,18.0608474 L69.8261595,3.69791831 L69.8261595,18.0608474 L70.6777795,18.0608474 L70.6777795,0 L69.7729333,0 L66.4196798,15.3008069 L63.0398131,0 L62.1615801,0 L62.1615801,18.0608474 L62.9865869,18.0608474 L62.9865869,3.69791831 L66.1003223,18.0608474 L66.7390373,18.0608474 Z" id="Centrum" stroke-width="0.506229439"></path>
                        <path d="M4.81794963,31.3718217 L4.81794963,34.6233088 L4.26535326,34.6233088 L4.26535326,31.3718217 C4.26535326,29.9634235 3.47099597,29.1462048 2.08950504,29.1462048 L0.535327737,29.1462048 L0.535327737,34.6233088 L0,34.6233088 L0,22.904045 L2.43487777,22.904045 C4.29989053,22.904045 4.95609872,23.8777524 4.95609872,26.0164311 C4.95609872,27.059689 4.74887508,27.8421324 4.31715917,28.3463737 C4.12720416,28.572413 3.73002552,28.7462893 3.45372733,28.8853903 C3.67821961,28.9897161 3.86817461,29.1288172 4.04086098,29.3026935 C4.55892008,29.8069348 4.81794963,30.4850525 4.81794963,31.3718217 Z M0.535327737,23.4604492 L0.535327737,28.5898006 L2.08950504,28.5898006 C3.6264137,28.5898006 4.42077099,27.8247448 4.42077099,26.0164311 C4.42077099,24.1907297 3.97178643,23.4604492 2.43487777,23.4604492 L0.535327737,23.4604492 Z M7.83336985,31.5056306 L7.83336985,25.9937513 C7.83336985,23.9941737 8.66226441,22.8987529 10.3027849,22.8987529 C11.960574,22.8987529 12.7894686,23.9767861 12.7894686,25.9937513 L12.7894686,31.5056306 C12.7894686,32.809703 12.4613645,33.5573712 11.9778426,34.0268372 C11.4943208,34.4963033 10.8726499,34.6180167 10.3027849,34.6180167 C9.75018852,34.6180167 9.1285176,34.4963033 8.64499577,34.0268372 C8.16147394,33.5573712 7.83336985,32.809703 7.83336985,31.5056306 Z M8.33874855,25.9635959 L8.33874855,31.4754752 C8.33874855,33.231626 8.9776881,34.0488447 10.2728359,34.0488447 C11.5334463,34.0488447 12.2069232,33.2837889 12.2069232,31.4754752 L12.2069232,25.9635959 C12.2069232,24.1726699 11.5679836,23.4076141 10.2728359,23.4076141 C8.96041947,23.4076141 8.33874855,24.2248328 8.33874855,25.9635959 Z M25.2213007,22.8987529 L24.7895847,22.8987529 L23.0799897,33.0705175 L21.5258124,22.8987529 L20.973216,22.8987529 L22.8554974,34.6180167 L23.2872134,34.6180167 L24.9968084,24.4462521 L26.7064034,34.6180167 L27.155388,34.6180167 L29.0031321,22.8987529 L28.4332671,22.8987529 L26.9308957,33.0705175 L25.2213007,22.8987529 Z M19.2966573,22.8987529 L14.1506036,22.8987529 L14.1506036,23.4377695 L18.6749864,23.4377695 L14.2369468,34.0790001 L14.2369468,34.6180167 L19.2103141,34.6180167 L19.2103141,34.0790001 L14.8413491,34.0790001 L19.2966573,23.4029942 L19.2966573,22.8987529 Z M30.8281007,31.5056306 L30.8281007,25.9937513 C30.8281007,23.9941737 31.6569952,22.8987529 33.2975157,22.8987529 C34.9553048,22.8987529 35.7841994,23.9767861 35.7841994,25.9937513 L35.7841994,31.5056306 C35.7841994,32.809703 35.4560953,33.5573712 34.9725735,34.0268372 C34.4890517,34.4963033 33.8673807,34.6180167 33.2975157,34.6180167 C32.7449194,34.6180167 32.1232484,34.4963033 31.6397266,34.0268372 C31.1562048,33.5573712 30.8281007,32.809703 30.8281007,31.5056306 Z M31.3334794,25.9635959 L31.3334794,31.4754752 C31.3334794,33.231626 31.9724189,34.0488447 33.2675667,34.0488447 C34.5281772,34.0488447 35.201654,33.2837889 35.201654,31.4754752 L35.201654,25.9635959 C35.201654,24.1726699 34.5627144,23.4076141 33.2675667,23.4076141 C31.9551503,23.4076141 31.3334794,24.2248328 31.3334794,25.9635959 Z M36.962641,34.4482847 C37.2449896,34.5611943 37.5719223,34.6180167 37.9431956,34.6180167 C39.4801043,34.6180167 40.2399243,33.6443093 40.2399243,31.7490575 L40.2399243,22.8987529 L39.7045966,22.8987529 L39.7045966,31.7490575 C39.7045966,33.3487196 39.1001943,34.0790001 37.9431956,34.0790001 C37.7565259,34.0790001 37.5622273,34.0674779 37.372849,34.0209669 C37.2304734,33.9859997 37.0937374,34.128439 36.962641,34.4482847 Z M42.6060438,31.7543496 C42.6060438,33.4235622 43.2795206,34.6233088 45.0927275,34.6233088 C46.8368598,34.6233088 47.5621425,33.5105004 47.5621425,31.7543496 L47.5621425,22.904045 L47.0268148,22.904045 L47.0268148,31.7543496 C47.0268148,33.0931972 46.6296361,34.0842922 45.0927275,34.0842922 C43.6248934,34.0842922 43.1413715,33.2322983 43.1413715,31.7543496 L43.1413715,22.904045 L42.6060438,22.904045 L42.6060438,31.7543496 Z M52.3066954,23.4551571 L54.5688868,23.4551571 L54.5688868,34.6180167 L55.1042146,34.6180167 L55.1042146,23.4551571 L57.3836746,23.4551571 L57.3836746,22.8987529 L52.3066954,22.8987529 L52.3066954,23.4551571 Z M63.0809894,34.6180167 L62.2866321,31.0361646 L59.2128148,31.0361646 L58.4184575,34.6180167 L57.8658611,34.6180167 L58.7810989,30.5493109 L58.7810989,30.497148 L60.5424998,22.8987529 L60.9742157,22.8987529 L63.6335858,34.6180167 L63.0809894,34.6180167 Z M60.7807568,24.4253364 L59.3819972,30.5457828 L62.196785,30.5457828 L60.7807568,24.4253364 Z M69.3037878,34.0790001 L65.7464486,34.0790001 L65.7464486,22.8987529 L65.1938523,22.8987529 L65.1938523,34.6180167 L69.3037878,34.6180167 L69.3037878,34.0790001 Z M71.0057073,22.8987529 L71.0057073,34.6180167 L75.1847174,34.6180167 L75.1847174,34.0790001 L71.5410351,34.0790001 L71.5410351,29.0191993 L73.7294308,29.0191993 L73.6756053,28.4801827 L71.5410351,28.4801827 L71.5410351,23.4377695 L75.1847174,23.4377695 L75.1847174,22.8987529 L71.0057073,22.8987529 Z M81.5900463,34.6180167 L81.5900463,22.8987529 L81.0374499,22.8987529 L81.0374499,32.9314164 L77.0311262,22.8987529 L76.564873,22.8987529 L76.564873,34.6180167 L77.1174694,34.6180167 L77.1174694,24.5853532 L81.1410617,34.6180167 L81.5900463,34.6180167 Z M82.8821068,23.4551571 L85.1442982,23.4551571 L85.1442982,34.6180167 L85.6796259,34.6180167 L85.6796259,23.4551571 L87.9590859,23.4551571 L87.9590859,22.8987529 L82.8821068,22.8987529 L82.8821068,23.4551571 Z M89.1993405,31.5056306 L89.1993405,25.9937513 C89.1993405,23.9941737 90.0282351,22.8987529 91.6687556,22.8987529 C93.3265447,22.8987529 94.1554392,23.9767861 94.1554392,25.9937513 L94.1554392,31.5056306 C94.1554392,32.809703 93.8273351,33.5573712 93.3438133,34.0268372 C92.8602915,34.4963033 92.2386206,34.6180167 91.6687556,34.6180167 C91.1161592,34.6180167 90.4944883,34.4963033 90.0109664,34.0268372 C89.5274446,33.5573712 89.1993405,32.809703 89.1993405,31.5056306 Z M89.7047192,25.9635959 L89.7047192,31.4754752 C89.7047192,33.231626 90.3436588,34.0488447 91.6388065,34.0488447 C92.899417,34.0488447 93.5728938,33.2837889 93.5728938,31.4754752 L93.5728938,25.9635959 C93.5728938,24.1726699 92.9339543,23.4076141 91.6388065,23.4076141 C90.3263901,23.4076141 89.7047192,24.2248328 89.7047192,25.9635959 Z M92.9408366,19.0822941 L92.5938073,19.0822941 L91.726234,21.0343287 L92.0732633,21.0343287 L92.9408366,19.0822941 Z M100.775416,22.8987529 L100.3437,22.8987529 L98.6341053,33.0705175 L97.079928,22.8987529 L96.5273317,22.8987529 L98.4096131,34.6180167 L98.841329,34.6180167 L100.550924,24.4462521 L102.260519,34.6180167 L102.709504,34.6180167 L104.557248,22.8987529 L103.987383,22.8987529 L102.485011,33.0705175 L100.775416,22.8987529 Z" id="Rowzoju-Talentów" stroke-width="0.5"></path>
                    </g>
                    <g id="Group" transform="translate(32.020592, 32.439900) scale(-1, 1) rotate(-180.000000) translate(-32.020592, -32.439900) " fill-rule="nonzero">
                        <path d="M25.9777149,64.2830792 C16.3587965,61.8846921 9.97347198,52.2084406 11.48794,42.28408 C12.0200504,38.8105538 13.8619709,34.6754036 15.9904124,32.1943134 L17.3820857,30.5402533 L17.5048804,34.5927006 C17.9551277,49.7273504 25.7730571,59.569008 39.1986113,61.8433406 L43.6192206,62.5876676 L41.2042581,63.3319947 C35.8831543,64.9447033 30.0708717,65.3168668 25.9777149,64.2830792 Z" id="Shape" fill="#06931A"></path>
                        <path d="M13.5124802,59.508092 C7.47570798,55.4069526 2.46559772,48.7788485 0.864005101,42.7721292 C0.535473281,41.5707853 0.289074416,39.0852463 0.289074416,37.3039433 C0.248007938,26.8232538 6.36691308,19.1180828 16.6745989,16.6739694 C19.4260529,16.011159 28.4196115,15.7626051 30.3086695,16.2597129 C31.0889325,16.4668411 30.5140018,16.8810976 27.3108166,18.4552724 C17.5780614,23.2606478 11.089558,30.3030084 8.66663582,38.7952667 C8.13277162,40.659421 7.96850571,42.440724 8.09170514,45.3405195 C8.338104,50.5187258 9.77543072,53.7085009 14.1284773,58.3481738 C15.8122029,60.1709024 17.0852637,61.6622258 16.9620643,61.6622258 C16.8388648,61.6622258 15.2783387,60.6680102 13.5124802,59.508092 Z" id="Shape" fill="#2984B9"></path>
                        <path d="M40.2924354,57.5422871 C39.4370903,57.2527271 39.6000132,57.2113614 40.9848576,57.3768243 C45.1393911,57.9559442 50.7602304,55.9290244 54.018688,52.7024991 C58.0102985,48.7727567 59.8839116,42.2783403 57.8473757,39.6723006 C56.5439926,38.0176723 54.2223416,37.3558209 51.9414213,37.9763066 C47.8683493,39.0931807 42.6140864,44.3879915 39.5592824,50.3860194 L38.0522458,53.4470819 L38.2558994,50.5928479 C38.6224759,46.3735456 39.9665896,43.1883859 43.9582002,37.1489924 C48.4793101,30.2822846 49.3346552,27.9244392 49.5790395,21.8436799 C49.7419624,17.9966689 49.6197702,16.6729662 48.8866173,14.1910237 C47.2166578,8.60665291 43.2657779,4.38735055 36.7895935,1.32628806 C33.9384431,-0.0387803525 33.8162509,-0.121511771 35.3640183,0.0853167756 C38.9075909,0.581705288 43.550893,2.07087083 46.890812,3.80823062 C51.697037,6.33153889 57.358607,12.0813725 59.8024502,16.9625262 C62.8165235,22.9191883 63.5904072,26.0629823 63.5496764,32.5987643 C63.5089457,36.8594324 63.2645614,39.051815 62.5721392,41.616489 C60.698526,48.6900253 56.8291077,54.1089332 51.982152,56.5495101 C49.8641546,57.5836528 48.8866173,57.7904813 45.4245061,57.8732128 C43.1843165,57.9145785 40.8626655,57.7904813 40.2924354,57.5422871 Z" id="Shape" fill="#444240"></path>
                        <path d="M50.643246,48.371114 C49.5685609,47.7540325 48.8919072,45.5325392 49.1705293,43.8869886 C49.8073798,40.5136098 54.2255299,38.8680592 56.0962781,41.2952463 C58.7630894,44.7920414 54.3051362,50.5926073 50.643246,48.371114 Z" id="Shape" fill="#444240"></path>
                        <path d="M0,25.5436847 C0,24.4760679 1.5227784,20.1645384 2.79861976,17.6597452 C6.58498767,10.1453653 12.2645395,5.25896529 20.0842124,2.67204763 C24.9406408,1.1116846 31.40216,1.02956023 35.2296841,2.54886108 C38.3987094,3.78072663 42.0616088,7.31207454 43.7078557,10.7612981 C44.6956038,12.7733451 46.8357248,19.7949788 46.4653193,19.7949788 C46.4241631,19.7949788 45.0248532,18.8916107 43.3786063,17.7829317 C39.6745507,15.2781384 34.2419359,12.6912208 30.6201927,11.7467905 C26.4634192,10.5970493 20.0430562,10.7202359 16.2978445,11.9931636 C10.7829173,13.8409619 5.0210531,18.522051 1.23468519,24.1475704 C0.535030249,25.1330628 0,25.7900578 0,25.5436847 Z" id="Shape" fill="#D37D00"></path>
                    </g>
                </g>
            </g>
        </g>
    </g>
</svg>