<?xml version="1.0" encoding="UTF-8"?>
<svg width="242px" height="156px" viewBox="0 0 242 156" version="1.1" xmlns="http://www.w3.org/2000/svg" xmlns:xlink="http://www.w3.org/1999/xlink">
    <!-- Generator: Sketch 47.1 (45422) - http://www.bohemiancoding.com/sketch -->
    <title>gdanskdlawas</title>
    <desc>Created with Sketch.</desc>
    <defs></defs>
    <g id="Page-1" stroke="none" stroke-width="1" fill="none" fill-rule="evenodd">
        <g id="Artboard" transform="translate(-677.000000, -1659.000000)">
            <g id="gdanskdlawas" transform="translate(677.000000, 1659.000000)">
                <rect id="Rectangle-7" fill-opacity="0.495810688" fill="#FFFFFF" x="0" y="0" width="242" height="156"></rect>
                <g id="gdanskDlaWas" transform="translate(70.000000, 18.000000)" fill-rule="nonzero">
                    <path d="M12.2006131,77.4753125 C9.79676651,77.4753125 8.06006862,78.1454273 6.99046715,79.4856771 C5.92086568,80.8259269 5.38607299,82.6590509 5.38607299,84.9851042 C5.38607299,86.1149014 5.51839281,87.1394572 5.7830365,88.0588021 C6.04768019,88.9781469 6.44463963,89.7701008 6.97392701,90.4346875 C7.50321439,91.0992742 8.16481361,91.6143211 8.95874453,91.9798437 C9.75267544,92.3453664 10.6789144,92.528125 11.7374891,92.528125 C12.3108836,92.528125 12.8015697,92.5170487 13.209562,92.4948958 C13.6175544,92.472743 13.9759205,92.4284378 14.2846715,92.3619792 L14.2846715,84.35375 L19.4451971,84.35375 L19.4451971,95.7513542 C18.8276952,95.9950359 17.8352964,96.2553286 16.4679708,96.5322396 C15.1006452,96.8091506 13.4135672,96.9476042 11.4066861,96.9476042 C9.68650238,96.9476042 8.12623086,96.6817736 6.72582482,96.1501042 C5.32541877,95.6184348 4.12902686,94.8430953 3.13661314,93.8240625 C2.14419942,92.8050297 1.37784694,91.5534102 0.837532847,90.0691667 C0.297218755,88.5849231 0.0270656934,86.8902525 0.0270656934,84.9851042 C0.0270656934,83.0578028 0.324785314,81.3520561 0.920233577,79.8678125 C1.51568184,78.3835689 2.33165415,77.1264114 3.36817518,76.0963021 C4.40469621,75.0661928 5.6231414,74.2853152 7.02354745,73.7536458 C8.42395349,73.2219764 9.91806502,72.9561458 11.505927,72.9561458 C12.5865553,72.9561458 13.5624142,73.0281417 14.4335328,73.1721354 C15.3046515,73.3161292 16.054464,73.4822733 16.6829927,73.6705729 C17.3115214,73.8588725 17.8297741,74.0527073 18.2377664,74.2520833 C18.6457587,74.4514594 18.9379651,74.6065272 19.1143942,74.7172917 L17.625781,78.8709375 C16.9200646,78.4943384 16.1096055,78.1675883 15.1943796,77.8906771 C14.2791536,77.6137659 13.2812415,77.4753125 12.2006131,77.4753125 Z M25.8567591,87.6434375 C25.8567591,89.1719869 26.1985854,90.4014537 26.8822482,91.331875 C27.5659109,92.2622963 28.5803632,92.7275 29.925635,92.7275 C30.3667078,92.7275 30.774694,92.7108856 31.1496058,92.6776562 C31.5245177,92.6444269 31.8332641,92.60566 32.075854,92.5613542 L32.075854,83.55625 C31.767103,83.3568739 31.3646301,83.1907298 30.8684234,83.0578125 C30.3722164,82.9248952 29.8705037,82.8584375 29.3632701,82.8584375 C27.0255845,82.8584375 25.8567591,84.4534215 25.8567591,87.6434375 Z M37.0048175,95.9507292 C36.5637448,96.0836464 36.0565186,96.2110237 35.4831241,96.3328646 C34.9097296,96.4547055 34.3087769,96.5599301 33.6802482,96.6485417 C33.0517195,96.7371533 32.4121735,96.809149 31.7615912,96.8645312 C31.111009,96.9199135 30.488003,96.9476042 29.8925547,96.9476042 C28.4590683,96.9476042 27.1799764,96.7371549 26.0552409,96.31625 C24.9305054,95.8953451 23.9822131,95.291688 23.2103358,94.5052604 C22.4384584,93.7188328 21.8485325,92.766273 21.4405401,91.6475521 C21.0325478,90.5288312 20.8285547,89.2716736 20.8285547,87.8760417 C20.8285547,86.4582567 21.0049813,85.1789467 21.3578394,84.0380729 C21.7106976,82.8971992 22.2179237,81.9280248 22.8795328,81.1305208 C23.541142,80.3330169 24.351601,79.7238216 25.3109343,79.3029167 C26.2702676,78.8820117 27.3674197,78.6715625 28.6024234,78.6715625 C29.2860861,78.6715625 29.8980655,78.7380202 30.4383796,78.8709375 C30.9786937,79.0038548 31.5245131,79.1921516 32.075854,79.4358333 L32.075854,71.5272917 L37.0048175,70.7297917 L37.0048175,95.9507292 Z M46.0297226,93.0597917 C46.5149027,93.0597917 46.9780221,93.0487153 47.4190949,93.0265625 C47.8601677,93.0044097 48.2130205,92.9711808 48.4776642,92.926875 L48.4776642,89.1719792 C48.2791814,89.1276734 47.9814618,89.0833683 47.5844964,89.0390625 C47.1875309,88.9947567 46.8236513,88.9726042 46.4928467,88.9726042 C46.0297204,88.9726042 45.5941675,89.0002949 45.1861752,89.0556771 C44.7781829,89.1110592 44.4198167,89.2162839 44.1110657,89.3713542 C43.8023147,89.5264244 43.5597283,89.7368736 43.3832993,90.0027083 C43.2068702,90.268543 43.1186569,90.6008314 43.1186569,90.9995833 C43.1186569,91.7749344 43.3777833,92.3121339 43.8960438,92.6111979 C44.4143043,92.9102619 45.1255235,93.0597917 46.0297226,93.0597917 Z M45.6327591,78.571875 C47.0882992,78.571875 48.3012311,78.7380192 49.2715912,79.0703125 C50.2419514,79.4026058 51.0193304,79.8788858 51.6037518,80.4991667 C52.1881732,81.1194475 52.6016728,81.8726345 52.8442628,82.75875 C53.0868527,83.6448655 53.208146,84.6306542 53.208146,85.7161458 L53.208146,96.0171875 C52.5024295,96.1722577 51.5210574,96.3550164 50.264,96.5654687 C49.0069426,96.7759211 47.4852643,96.8811458 45.6989197,96.8811458 C44.5741842,96.8811458 43.5542187,96.7814594 42.6389927,96.5820833 C41.7237667,96.3827073 40.935361,96.0559572 40.2737518,95.6018229 C39.6121427,95.1476887 39.1049165,94.5551078 38.7520584,93.8240625 C38.3992002,93.0930172 38.2227737,92.1958386 38.2227737,91.1325 C38.2227737,90.1134672 38.4267668,89.2495175 38.8347591,88.540625 C39.2427514,87.8317325 39.7885709,87.2668424 40.4722336,86.8459375 C41.1558963,86.4250326 41.9387888,86.120435 42.8209343,85.9321354 C43.7030798,85.7438358 44.6182921,85.6496875 45.5665985,85.6496875 C46.2061541,85.6496875 46.7740266,85.6773783 47.2702336,85.7327604 C47.7664404,85.7881426 48.1689132,85.8601384 48.4776642,85.94875 L48.4776642,85.4835417 C48.4776642,84.6417319 48.2240512,83.9660789 47.7168175,83.4565625 C47.2095839,82.9470461 46.3274516,82.6922917 45.0703942,82.6922917 C44.2323559,82.6922917 43.4053569,82.7532112 42.5893723,82.8750521 C41.7733876,82.996893 41.0676818,83.1685753 40.4722336,83.3901042 L39.843708,79.4026042 C40.1304053,79.3139926 40.4887716,79.2198442 40.9188175,79.1201562 C41.3488634,79.0204683 41.8174963,78.931858 42.3247299,78.8543229 C42.8319636,78.7767878 43.3667563,78.7103302 43.9291241,78.6549479 C44.4914919,78.5995656 45.0593646,78.571875 45.6327591,78.571875 Z M55.4185109,79.6352083 C56.2565492,79.3915266 57.3371613,79.1644628 58.6603796,78.9540104 C59.9835979,78.743558 61.3729563,78.6383333 62.8284964,78.6383333 C64.3060901,78.6383333 65.535562,78.8321683 66.5169489,79.2198437 C67.4983358,79.6075192 68.275715,80.155795 68.8491095,80.8646875 C69.422504,81.57358 69.8304903,82.415377 70.0730803,83.3901042 C70.3156703,84.3648313 70.4369635,85.4503065 70.4369635,86.6465625 L70.4369635,96.515625 L65.508,96.515625 L65.508,87.2446875 C65.508,85.6496795 65.2984936,84.5198992 64.8794745,83.8553125 C64.4604553,83.1907258 63.6775629,82.8584375 62.5307737,82.8584375 C62.1779156,82.8584375 61.8030093,82.8750519 61.4060438,82.9082812 C61.0090783,82.9415106 60.6562254,82.9802775 60.3474745,83.0245833 L60.3474745,96.515625 L55.4185109,96.515625 L55.4185109,79.6352083 Z M66.6988905,72.7567708 L61.2406423,77.375625 L58.9911825,75.3486458 L63.6885839,69.9655208 L66.6988905,72.7567708 Z M77.6424526,92.9601042 C78.5466517,92.9601042 79.1861976,92.8714939 79.5611095,92.6942708 C79.9360214,92.5170478 80.1234745,92.1736831 80.1234745,91.6641667 C80.1234745,91.2654147 79.8808881,90.9165119 79.395708,90.6174479 C78.910528,90.3183839 78.1717422,89.9805575 77.1793285,89.6039583 C76.4074511,89.3159708 75.7072586,89.0169113 75.0787299,88.7067708 C74.4502012,88.3966303 73.9154085,88.025575 73.4743358,87.5935937 C73.033263,87.1616125 72.6914367,86.6465655 72.4488467,86.0484375 C72.2062568,85.4503095 72.0849635,84.7303514 72.0849635,83.8885417 C72.0849635,82.2492279 72.6914295,80.9533033 73.9043796,80.0007292 C75.1173297,79.048155 76.7823544,78.571875 78.8995036,78.571875 C79.9580783,78.571875 80.9725304,78.6660233 81.9428905,78.8543229 C82.9132507,79.0426225 83.6851164,79.2475336 84.2585109,79.4690625 L83.3984234,83.3236458 C82.8250288,83.1242698 82.2020229,82.9470494 81.5293869,82.7919792 C80.8567508,82.6369089 80.1014251,82.559375 79.2633869,82.559375 C77.7196322,82.559375 76.9477664,82.9913498 76.9477664,83.8553125 C76.9477664,84.0546886 76.9808464,84.2319089 77.0470073,84.3869792 C77.1131682,84.5420494 77.245488,84.6915792 77.4439708,84.8355729 C77.6424536,84.9795667 77.9126065,85.1346347 78.254438,85.3007812 C78.5962694,85.4669278 79.0318221,85.6496864 79.5611095,85.8490625 C80.6417378,86.2478145 81.5348967,86.6410223 82.2406131,87.0286979 C82.9463296,87.4163735 83.5031756,87.837272 83.9111679,88.2914062 C84.3191602,88.7455405 84.6058533,89.2495111 84.7712555,89.8033333 C84.9366578,90.3571555 85.0193577,90.9995797 85.0193577,91.730625 C85.0193577,93.4585503 84.3742984,94.7655511 83.0841606,95.6516667 C81.7940227,96.5377822 79.9691116,96.9808333 77.6093723,96.9808333 C76.0656176,96.9808333 74.7810124,96.847918 73.7555182,96.5820833 C72.7300241,96.3162486 72.0188049,96.0947231 71.6218394,95.9175 L72.4488467,91.8967708 C73.2868849,92.2290642 74.146964,92.4893567 75.0291095,92.6776562 C75.911255,92.8659558 76.7823606,92.9601042 77.6424526,92.9601042 Z M91.3647591,85.350625 C91.8499392,84.8189556 92.3516519,84.2651417 92.8699124,83.6891667 C93.3881729,83.1131916 93.8898856,82.5427633 94.3750657,81.9778646 C94.8602458,81.4129659 95.3178519,80.8757664 95.7478978,80.36625 C96.1779437,79.8567336 96.5473366,79.4136825 96.8560876,79.0370833 L102.711299,79.0370833 C101.542456,80.3884095 100.401198,81.6787959 99.2874891,82.9082812 C98.1737803,84.1377666 96.9553351,85.4060003 95.6321168,86.7130208 C96.2937259,87.3111489 96.9773784,88.0255687 97.6830949,88.8563021 C98.3888113,89.6870353 99.0724638,90.545447 99.734073,91.4315625 C100.395682,92.317678 101.002148,93.2037803 101.553489,94.0898958 C102.10483,94.9760114 102.567949,95.7845797 102.942861,96.515625 L97.2861314,96.515625 C96.9332732,95.93965 96.5308004,95.3027639 96.0787007,94.6049479 C95.6266011,93.9071319 95.1469417,93.2093264 94.639708,92.5115104 C94.1324744,91.8136944 93.5976817,91.1435797 93.0353139,90.5011458 C92.472946,89.858712 91.9161001,89.3159744 91.3647591,88.8729167 L91.3647591,96.515625 L86.4357956,96.515625 L86.4357956,71.5272917 L91.3647591,70.7297917 L91.3647591,85.350625 Z" id="Gdańsk" fill="#DB788F"></path>
                    <path d="M31.3422483,113.779687 C31.4525165,113.789757 31.5803254,113.797309 31.725679,113.802344 C31.8710324,113.807378 32.0439505,113.809896 32.2444381,113.809896 C33.4172907,113.809896 34.2868926,113.51285 34.8532702,112.91875 C35.4196477,112.32465 35.7028323,111.503998 35.7028323,110.456771 C35.7028323,109.359196 35.432178,108.528475 34.8908615,107.964583 C34.3495449,107.400692 33.4924732,107.11875 32.3196206,107.11875 C32.1592305,107.11875 31.9938307,107.121267 31.8234162,107.126302 C31.6530017,107.131337 31.492614,107.143924 31.3422483,107.164062 L31.3422483,113.779687 Z M38.1237082,110.456771 C38.1237082,111.363025 37.9833689,112.153469 37.7026863,112.828125 C37.4220036,113.502781 37.0235404,114.06163 36.5072848,114.504687 C35.9910291,114.947745 35.3620087,115.280034 34.6202045,115.501562 C33.8784003,115.723091 33.0463892,115.833854 32.1241461,115.833854 C31.7031221,115.833854 31.2119348,115.816233 30.6505695,115.78099 C30.0892041,115.745746 29.5378715,115.672744 28.9965549,115.561979 L28.9965549,105.366667 C29.5378715,105.265972 30.1017344,105.198004 30.6881607,105.16276 C31.2745869,105.127517 31.7783046,105.109896 32.1993286,105.109896 C33.0914985,105.109896 33.9009551,105.210589 34.6277228,105.411979 C35.3544903,105.613369 35.9784988,105.930553 36.4997666,106.363542 C37.0210344,106.79653 37.4220036,107.350344 37.7026863,108.025 C37.9833689,108.699656 38.1237082,109.510238 38.1237082,110.456771 Z M42.0605363,115.848958 C41.4089515,115.838889 40.8801734,115.768403 40.4741859,115.6375 C40.0681986,115.506597 39.7474232,115.322831 39.5118501,115.086198 C39.2762773,114.849565 39.1158896,114.562589 39.0306823,114.22526 C38.9454751,113.887932 38.902872,113.507815 38.902872,113.084896 L38.902872,104.339583 L41.14331,103.977083 L41.14331,112.631771 C41.14331,112.833161 41.1583463,113.014409 41.1884195,113.175521 C41.2184926,113.336633 41.276132,113.472569 41.3613392,113.583333 C41.4465465,113.694098 41.5693433,113.784722 41.7297334,113.855208 C41.8901235,113.925695 42.1056444,113.971007 42.3763027,113.991146 L42.0605363,115.848958 Z M45.8770726,114.127083 C46.097609,114.127083 46.3081178,114.122049 46.5086054,114.111979 C46.709093,114.10191 46.8694807,114.086806 46.9897733,114.066667 L46.9897733,112.359896 C46.8995539,112.339757 46.7642268,112.319618 46.5837879,112.299479 C46.403349,112.27934 46.2379492,112.269271 46.0875835,112.269271 C45.8770715,112.269271 45.6790929,112.281858 45.4936419,112.307031 C45.3081908,112.332205 45.1452971,112.380034 45.0049558,112.450521 C44.8646144,112.521007 44.7543479,112.616666 44.6741529,112.7375 C44.5939578,112.858334 44.5538609,113.009374 44.5538609,113.190625 C44.5538609,113.543057 44.6716455,113.787239 44.9072186,113.923177 C45.1427914,114.059115 45.4660729,114.127083 45.8770726,114.127083 Z M45.6966346,107.541667 C46.3582438,107.541667 46.9095764,107.617187 47.3506492,107.768229 C47.791722,107.919272 48.145076,108.135762 48.4107222,108.417708 C48.6763682,108.699654 48.8643226,109.042012 48.9745908,109.444792 C49.084859,109.847571 49.1399923,110.295657 49.1399923,110.789062 L49.1399923,115.471354 C48.8192121,115.541841 48.3731338,115.624913 47.8017441,115.720573 C47.2303544,115.816233 46.5386825,115.864062 45.7267076,115.864062 C45.2154642,115.864062 44.7518434,115.81875 44.3358317,115.728125 C43.9198198,115.6375 43.5614536,115.488977 43.2607222,115.282552 C42.9599908,115.076127 42.7294335,114.806772 42.5690434,114.474479 C42.4086533,114.142186 42.3284594,113.734377 42.3284594,113.251042 C42.3284594,112.787845 42.4211835,112.39514 42.6066346,112.072917 C42.7920856,111.750693 43.0401854,111.493925 43.3509412,111.302604 C43.661697,111.111284 44.0175572,110.97283 44.4185324,110.88724 C44.8195077,110.801649 45.2355132,110.758854 45.6665616,110.758854 C45.9572687,110.758854 46.2153925,110.771441 46.4409412,110.796615 C46.6664897,110.821788 46.849432,110.854514 46.9897733,110.894792 L46.9897733,110.683333 C46.9897733,110.300693 46.8744946,109.993578 46.6439339,109.761979 C46.4133731,109.530381 46.0124039,109.414583 45.4410142,109.414583 C45.0600877,109.414583 44.684179,109.442274 44.3132769,109.497656 C43.9423748,109.553038 43.6215995,109.631076 43.3509412,109.731771 L43.0652478,107.919271 C43.1955647,107.878993 43.3584584,107.836198 43.5539339,107.790885 C43.7494092,107.745573 43.9624242,107.705295 44.192985,107.670052 C44.4235457,107.634809 44.6666333,107.604601 44.922255,107.579427 C45.1778767,107.554253 45.4360007,107.541667 45.6966346,107.541667 Z M57.2870394,106.348437 C57.4073319,106.761287 57.5401531,107.226994 57.6855065,107.745573 C57.8308601,108.264152 57.9862357,108.800344 58.1516379,109.354167 C58.3170403,109.907989 58.4849461,110.461803 58.6553605,111.015625 C58.825775,111.569447 58.9911748,112.082984 59.1515649,112.55625 C59.2818819,112.042706 59.414703,111.483857 59.5500321,110.879687 C59.6853613,110.275518 59.8131701,109.651218 59.9334627,109.006771 C60.0537553,108.362323 60.1715401,107.720402 60.2868204,107.08099 C60.4021008,106.441577 60.5098612,105.824829 60.6101051,105.230729 L63.0460175,105.230729 C62.6951641,106.982821 62.2916889,108.76006 61.8355795,110.5625 C61.3794702,112.36494 60.8857768,114.076728 60.3544846,115.697917 L58.2042656,115.697917 C57.8534123,114.731245 57.5125885,113.716759 57.1817839,112.654427 C56.8509793,111.592095 56.5251918,110.527262 56.2044116,109.459896 C55.8836314,110.527262 55.5628561,111.592095 55.2420759,112.654427 C54.9212957,113.716759 54.5854839,114.731245 54.2346306,115.697917 L52.0844116,115.697917 C51.5531194,114.076728 51.0594261,112.36494 50.6033167,110.5625 C50.1472075,108.76006 49.7437321,106.982821 49.3928788,105.230729 L51.9340467,105.230729 C52.0342905,105.824829 52.144557,106.441577 52.2648496,107.08099 C52.3851422,107.720402 52.510445,108.362323 52.640762,109.006771 C52.7710789,109.651218 52.9039001,110.275518 53.0392291,110.879687 C53.1745584,111.483857 53.3123915,112.042706 53.4527328,112.55625 C53.6331717,112.062845 53.8085957,111.539239 53.9790102,110.985417 C54.1494246,110.431594 54.3148244,109.877781 54.4752145,109.323958 C54.6356046,108.770136 54.7834621,108.236461 54.9187912,107.722917 C55.0541204,107.209372 55.1769172,106.751217 55.2871853,106.348437 L57.2870394,106.348437 Z M65.9754005,114.127083 C66.1959368,114.127083 66.4064457,114.122049 66.6069333,114.111979 C66.8074209,114.10191 66.9678086,114.086806 67.0881012,114.066667 L67.0881012,112.359896 C66.9978818,112.339757 66.8625547,112.319618 66.6821158,112.299479 C66.5016769,112.27934 66.3362771,112.269271 66.1859114,112.269271 C65.9753994,112.269271 65.7774208,112.281858 65.5919698,112.307031 C65.4065187,112.332205 65.243625,112.380034 65.1032837,112.450521 C64.9629423,112.521007 64.8526758,112.616666 64.7724808,112.7375 C64.6922857,112.858334 64.6521888,113.009374 64.6521888,113.190625 C64.6521888,113.543057 64.7699734,113.787239 65.0055465,113.923177 C65.2411193,114.059115 65.5644008,114.127083 65.9754005,114.127083 Z M65.7949625,107.541667 C66.4565717,107.541667 67.0079043,107.617187 67.4489771,107.768229 C67.8900499,107.919272 68.2434039,108.135762 68.5090501,108.417708 C68.7746961,108.699654 68.9626505,109.042012 69.0729187,109.444792 C69.1831869,109.847571 69.2383202,110.295657 69.2383202,110.789062 L69.2383202,115.471354 C68.91754,115.541841 68.4714617,115.624913 67.900072,115.720573 C67.3286823,115.816233 66.6370104,115.864062 65.8250355,115.864062 C65.3137921,115.864062 64.8501713,115.81875 64.4341596,115.728125 C64.0181477,115.6375 63.6597815,115.488977 63.3590501,115.282552 C63.0583187,115.076127 62.8277614,114.806772 62.6673713,114.474479 C62.5069812,114.142186 62.4267873,113.734377 62.4267873,113.251042 C62.4267873,112.787845 62.5195114,112.39514 62.7049625,112.072917 C62.8904135,111.750693 63.1385133,111.493925 63.4492691,111.302604 C63.7600249,111.111284 64.1158851,110.97283 64.5168603,110.88724 C64.9178356,110.801649 65.3338411,110.758854 65.7648895,110.758854 C66.0555966,110.758854 66.3137204,110.771441 66.5392691,110.796615 C66.7648176,110.821788 66.9477599,110.854514 67.0881012,110.894792 L67.0881012,110.683333 C67.0881012,110.300693 66.9728225,109.993578 66.7422618,109.761979 C66.511701,109.530381 66.1107318,109.414583 65.5393421,109.414583 C65.1584156,109.414583 64.7825069,109.442274 64.4116048,109.497656 C64.0407027,109.553038 63.7199274,109.631076 63.4492691,109.731771 L63.1635756,107.919271 C63.2938926,107.878993 63.4567863,107.836198 63.6522618,107.790885 C63.8477371,107.745573 64.0607521,107.705295 64.2913129,107.670052 C64.5218736,107.634809 64.7649612,107.604601 65.0205829,107.579427 C65.2762046,107.554253 65.5343286,107.541667 65.7949625,107.541667 Z M72.5135424,114.081771 C72.9245421,114.081771 73.2152448,114.041493 73.3856592,113.960937 C73.5560737,113.880382 73.6412797,113.724307 73.6412797,113.492708 C73.6412797,113.311457 73.5310131,113.152865 73.3104768,113.016927 C73.0899404,112.880989 72.7541286,112.727431 72.3030315,112.55625 C71.9521782,112.425347 71.6339089,112.28941 71.348214,112.148437 C71.0625192,112.007465 70.8194315,111.838803 70.6189439,111.642448 C70.4184563,111.446093 70.2630807,111.211981 70.1528125,110.940104 C70.0425443,110.668228 69.9874111,110.340974 69.9874111,109.958333 C69.9874111,109.213191 70.2630774,108.624134 70.8144184,108.191146 C71.3657593,107.758158 72.1225887,107.541667 73.0849293,107.541667 C73.5660996,107.541667 74.0272142,107.584461 74.468287,107.670052 C74.9093597,107.755643 75.2602078,107.848784 75.5208417,107.949479 L75.1298928,109.701562 C74.8692589,109.610937 74.5860745,109.530382 74.2803308,109.459896 C73.9745872,109.389409 73.6312572,109.354167 73.2503308,109.354167 C72.5486241,109.354167 72.197776,109.550519 72.197776,109.943229 C72.197776,110.033855 72.2128124,110.114409 72.2428855,110.184896 C72.2729587,110.255382 72.333104,110.32335 72.4233235,110.388802 C72.5135429,110.454254 72.6363398,110.524739 72.7917176,110.60026 C72.9470956,110.675782 73.1450741,110.758854 73.3856592,110.849479 C73.8768539,111.03073 74.2828352,111.209461 74.6036154,111.385677 C74.9243956,111.561893 75.1775075,111.753211 75.3629585,111.959635 C75.5484096,112.16606 75.6787246,112.395138 75.7539074,112.646875 C75.8290903,112.898612 75.8666811,113.190623 75.8666811,113.522917 C75.8666811,114.308337 75.5734725,114.902429 74.9870461,115.305208 C74.4006199,115.707988 73.5711147,115.909375 72.4985059,115.909375 C71.7967993,115.909375 71.2128879,115.848959 70.7467541,115.728125 C70.2806205,115.607291 69.957339,115.506598 69.7769001,115.426042 L70.1528125,113.598437 C70.533739,113.74948 70.924684,113.867795 71.3256592,113.953385 C71.7266345,114.038976 72.1225916,114.081771 72.5135424,114.081771 Z" id="DlaWas" fill="#575759"></path>
                    <path d="M76.9654925,115.101302 C76.9654925,115.327866 76.8940699,115.500303 76.7512224,115.61862 C76.6083751,115.736936 76.4467343,115.796094 76.2662954,115.796094 C76.0858566,115.796094 75.9242159,115.736936 75.7813684,115.61862 C75.6385211,115.500303 75.5670983,115.327866 75.5670983,115.101302 C75.5670983,114.874739 75.6385211,114.702301 75.7813684,114.583984 C75.9242159,114.465668 76.0858566,114.40651 76.2662954,114.40651 C76.4467343,114.40651 76.6083751,114.465668 76.7512224,114.583984 C76.8940699,114.702301 76.9654925,114.874739 76.9654925,115.101302 Z M78.2631421,115.697917 L77.1429232,115.697917 L77.1429232,111.725521 L78.2631421,111.725521 L78.2631421,115.697917 Z M78.3683976,110.577604 C78.3683976,110.784029 78.3019871,110.946397 78.169164,111.064714 C78.0363411,111.18303 77.8797124,111.242188 77.6992735,111.242188 C77.5188347,111.242188 77.3622061,111.18303 77.229383,111.064714 C77.0965601,110.946397 77.0301494,110.784029 77.0301494,110.577604 C77.0301494,110.371179 77.0965601,110.208811 77.229383,110.090495 C77.3622061,109.972178 77.5188347,109.913021 77.6992735,109.913021 C77.8797124,109.913021 78.0363411,109.972178 78.169164,110.090495 C78.3019871,110.208811 78.3683976,110.371179 78.3683976,110.577604 Z M78.7413027,111.861458 C78.931766,111.806076 79.1773596,111.754471 79.478091,111.706641 C79.7788225,111.658811 80.0945857,111.634896 80.4253903,111.634896 C80.7612071,111.634896 81.0406326,111.678949 81.263675,111.767057 C81.4867175,111.855165 81.6633945,111.979773 81.7937115,112.140885 C81.9240284,112.301997 82.0167526,112.493315 82.0718867,112.714844 C82.1270208,112.936373 82.1545874,113.183072 82.1545874,113.454948 L82.1545874,115.697917 L81.0343684,115.697917 L81.0343684,113.590885 C81.0343684,113.228384 80.9867534,112.971615 80.8915217,112.820573 C80.7962902,112.66953 80.61836,112.59401 80.3577261,112.59401 C80.277531,112.59401 80.1923251,112.597786 80.1021056,112.605339 C80.0118862,112.612891 79.9316924,112.621701 79.8615217,112.631771 L79.8615217,115.697917 L78.7413027,115.697917 L78.7413027,111.861458 Z M84.3093173,109.8375 C84.5198293,109.8375 84.7127958,109.858897 84.8882224,109.901693 C85.0636492,109.944488 85.1989763,109.986024 85.2942078,110.026302 L85.0761786,110.925 C84.9759348,110.879687 84.8669214,110.845703 84.7491348,110.823047 C84.6313484,110.80039 84.5223348,110.789062 84.422091,110.789062 C84.286762,110.789062 84.1727363,110.807943 84.0800107,110.845703 C83.9872853,110.883464 83.9146096,110.935069 83.8619815,111.000521 C83.8093537,111.065972 83.7717627,111.14401 83.7492078,111.234635 C83.7266531,111.325261 83.7153757,111.423437 83.7153757,111.529167 L83.7153757,111.725521 L85.0987334,111.725521 L85.0987334,112.661979 L83.7153757,112.661979 L83.7153757,115.697917 L82.5951567,115.697917 L82.5951567,111.514062 C82.5951567,111.000518 82.7392551,110.59271 83.027456,110.290625 C83.3156571,109.98854 83.7429399,109.8375 84.3093173,109.8375 Z M88.8322956,113.704167 C88.8322956,114.016321 88.7871865,114.302039 88.6969671,114.561328 C88.6067477,114.820618 88.4764327,115.042143 88.3060182,115.225911 C88.1356037,115.40968 87.93136,115.551909 87.693281,115.652604 C87.4552018,115.753299 87.1883067,115.803646 86.8925875,115.803646 C86.6018805,115.803646 86.3374914,115.753299 86.0994124,115.652604 C85.8613332,115.551909 85.6570896,115.40968 85.4866751,115.225911 C85.3162607,115.042143 85.1834395,114.820618 85.088208,114.561328 C84.9929763,114.302039 84.9453613,114.016321 84.9453613,113.704167 C84.9453613,113.392012 84.9942293,113.107553 85.0919671,112.850781 C85.1897048,112.594009 85.3250319,112.375001 85.4979525,112.19375 C85.670873,112.012499 85.8763697,111.871528 86.1144489,111.770833 C86.3525279,111.670138 86.6119049,111.619792 86.8925875,111.619792 C87.1782823,111.619792 87.4401653,111.670138 87.6782445,111.770833 C87.9163235,111.871528 88.1205672,112.012499 88.2909817,112.19375 C88.4613962,112.375001 88.5942172,112.594009 88.6894489,112.850781 C88.7846804,113.107553 88.8322956,113.392012 88.8322956,113.704167 Z M87.6895218,113.704167 C87.6895218,113.356769 87.6206052,113.083638 87.48277,112.884766 C87.3449347,112.685893 87.1482092,112.586458 86.8925875,112.586458 C86.6369657,112.586458 86.4389873,112.685893 86.2986459,112.884766 C86.1583046,113.083638 86.088135,113.356769 86.088135,113.704167 C86.088135,114.051564 86.1583046,114.327212 86.2986459,114.53112 C86.4389873,114.735027 86.6369657,114.836979 86.8925875,114.836979 C87.1482092,114.836979 87.3449347,114.735027 87.48277,114.53112 C87.6206052,114.327212 87.6895218,114.051564 87.6895218,113.704167 Z" id=".info" fill="#58585A"></path>
                    <g id="Group" transform="translate(16.840876, 0.000000)">
                        <polygon id="Path-5" fill="#A0BF71" points="70.3098358 32.6683328 61.0811841 28.2916357 52.6705473 64.7842663 64.1968443 64.0690285"></polygon>
                        <path d="M10.3462359,24.872551 L0.145226379,29.8921353 C2.08092922,37.8793529 3.47309847,43.8896242 4.3217341,47.922949 C5.17036973,51.9562739 6.489998,58.8344082 8.28061891,68.5573523 L19.35212,68.5573523 C18.5061629,56.7543579 17.528489,48.1622022 16.4190983,42.7808855 C15.3097075,37.3995688 13.2854201,31.4301239 10.3462359,24.872551 Z" id="Path-4" fill="#DB788F"></path>
                        <path d="M10.2860423,24.9330155 L15.194648,24.9330155 L22.8737011,66.3811483 L19.0141101,68.6353877 C17.5804216,56.8150219 16.3072676,48.1193361 15.194648,42.5483298 C14.0820282,36.9773236 12.4458263,31.1055521 10.2860423,24.9330155 Z" id="Path-3" fill="#B86679"></path>
                        <path d="M37.2450607,0.0121814612 C38.3911053,15.9666961 39.0812333,28.0419956 39.3154448,36.2380798 C39.5496563,44.434164 39.5496563,56.5094634 39.3154448,72.4639781 L52.919698,64.965267 C56.1439822,52.8917705 58.5258031,43.8090942 60.0651608,37.7172379 C61.6045185,31.6253816 63.2181231,24.8965562 64.9059743,17.5307615 L37.2450607,0.0121814612 Z" id="Path" fill="#7293BC"></path>
                        <path d="M37.3885832,0.0660996177 C38.9921807,18.2641745 39.9233804,31.9575671 40.1821821,41.1462777 C40.440984,50.3349882 40.1912921,60.8384067 39.4331066,72.6565329 L22.669969,70.4668925 C20.5211788,58.4776965 18.8182666,49.5132796 17.5612327,43.5736417 C16.3041987,37.634004 14.1358583,28.3062836 11.0562113,15.5904804 L37.3885832,0.0660996177 Z" id="Path-2" fill="#86AADA"></path>
                    </g>
                    <g id="Group-2" transform="translate(23.306569, 6.947917)" fill="#FFFFFF">
                        <polygon id="Path-6" points="1.53556558 21.7576681 1.98301589 23.740294 3.73362831 23.740294 3.045857 21.2818633"></polygon>
                        <polygon id="Path-7" points="0.950283592 28.2205573 2.41443217 27.6459152 3.60631105 30.510268 1.77870608 31.0034664"></polygon>
                        <polygon id="Path-8" points="1.91226018 36.5416325 3.72975718 36.1691954 4.25773673 39.4187309 2.49486571 39.4187309"></polygon>
                        <polygon id="Path-9" points="5.31842721 40.7870702 7.16495771 40.4556789 7.50196136 43.2627835 5.68596979 43.2627835"></polygon>
                        <polygon id="Path-10" points="0.116914653 45.4891972 1.90795892 45.1498127 2.7712216 48.5332874 0.622742715 48.5332874"></polygon>
                        <polygon id="Path-11" points="7.78928546 9.97243374 10.7696279 8.82552609 11.8159091 11.5280717 8.70115238 12.8700552"></polygon>
                        <polygon id="Path-12" points="18.2151072 5.23055719 21.2505057 3.99615707 21.2505057 7.47101284 19.0392285 8.39260033"></polygon>
                        <polygon id="Path-13" points="24.3811772 2.61139949 27.2800107 1.07412417 27.2800107 4.84818263 25.1293811 5.74060596"></polygon>
                        <polygon id="Path-14" points="9.9549694 17.452933 12.7428304 16.2747009 13.2867246 19.3462272 10.6771508 20.3937606"></polygon>
                        <polygon id="Path-15" points="20.8001639 13.3159428 23.5256567 12.3191766 23.5256567 15.6953063 21.483849 16.4276507"></polygon>
                        <polygon id="Path-16" points="11.6133198 23.8962682 14.0400902 23.0749191 14.2644008 25.786106 12.098932 26.7204393"></polygon>
                        <polygon id="Path-17" points="26.4601907 26.1336995 29.3218184 25.3222878 29.3218184 28.8744826 26.83397 29.2788922"></polygon>
                        <polygon id="Path-18" points="17.804122 31.7783689 20.5911228 30.9507548 20.8870494 35.4433318 18.6813637 36.1745961"></polygon>
                        <polygon id="Path-19" points="23.5699597 42.0327039 26.6561131 41.4563337 26.6561131 45.5853308 23.8884679 46.0199848"></polygon>
                        <polygon id="Path-20" points="34.1347121 0.107602267 37.3886146 1.93414287 36.87784 6.81816771 34.1347121 5.29536644"></polygon>
                        <polygon id="Path-21" points="43.3641387 5.55827594 46.1096324 6.98926411 44.7368856 11.1232299 42.6281933 9.98301924"></polygon>
                        <polygon id="Path-22" points="51.7670784 10.2575944 54.4659033 11.6375993 53.1164909 15.2539553 50.4483124 13.9430803"></polygon>
                        <polygon id="Path-23" points="37.6894877 9.5228736 40.2678774 10.6237667 40.2678774 14.3591556 37.6894877 13.4034352"></polygon>
                        <polygon id="Path-24" points="43.35145 17.6901349 45.9879067 18.7661844 45.2919631 22.8200027 42.7290579 22.0284659"></polygon>
                        <polygon id="Path-25" points="34.4695651 20.3235506 37.4671126 21.6700707 37.1600027 25.5236285 34.4695651 25.2551022"></polygon>
                        <polygon id="Path-26" points="46.6642798 23.6322787 49.3175113 24.6672823 48.3224151 28.0352028 46.4317967 28.0352028"></polygon>
                        <polygon id="Path-27" points="38.0667081 29.6461446 40.5081027 30.4191029 39.8285037 34.8442783 37.8054066 34.3415746"></polygon>
                        <polygon id="Path-28" points="43.8248036 31.6748901 46.4965307 32.4191163 45.6556344 36.4705583 43.5899549 36.10417"></polygon>
                        <polygon id="Path-29" points="40.3590641 38.6446925 42.8219651 39.1618704 42.0819334 42.4729748 40.3590641 42.4729748"></polygon>
                        <polygon id="Path-30" points="57.9376646 29.5024842 59.2398708 29.76777 59.2398708 31.8725583 57.5888325 31.8725583"></polygon>
                        <polygon id="Path-31" points="54.7396785 32.4109072 56.2928632 32.4109072 55.9993022 34.9453808 54.3970833 34.9453808"></polygon>
                        <polygon id="Path-32" points="57.638297 36.7777542 59.2768616 37.141118 59.008033 39.4699303 56.9978396 39.4699303"></polygon>
                        <polygon id="Path-33" points="53.6828592 40.2001145 55.130878 40.2001145 55.130878 42.3241294 53.6828592 42.3241294"></polygon>
                        <polygon id="Path-34" points="50.7937034 43.5654426 52.7909931 43.5654426 52.3111877 45.9940612 50.7937034 45.9940612"></polygon>
                        <polygon id="Path-35" points="55.271099 47.3922126 57.0591324 47.3922126 56.6330927 49.9692443 55.271099 49.9692443"></polygon>
                    </g>
                </g>
            </g>
        </g>
    </g>
</svg>