<?xml version="1.0" encoding="UTF-8"?>
<svg width="242px" height="156px" viewBox="0 0 242 156" version="1.1" xmlns="http://www.w3.org/2000/svg" xmlns:xlink="http://www.w3.org/1999/xlink">
    <!-- Generator: Sketch 47.1 (45422) - http://www.bohemiancoding.com/sketch -->
    <title>goyello</title>
    <desc>Created with Sketch.</desc>
    <defs></defs>
    <g id="Page-1" stroke="none" stroke-width="1" fill="none" fill-rule="evenodd">
        <g id="Artboard" transform="translate(-66.000000, -1475.000000)">
            <g id="goyello" transform="translate(66.000000, 1475.000000)">
                <rect id="Rectangle-7" fill-opacity="0.495810688" fill="#FFFFFF" x="0" y="0" width="242" height="156"></rect>
                <g id="Logo" transform="translate(37.696486, 52.000000)">
                    <path d="M-5.89372401,29.6578574 C-5.89436636,30.1812448 -5.88782691,30.2346227 -5.89372401,30.5514073 C-5.93899308,32.9832018 -5.61245576,37.5354721 -2.89014819,40.5442711 C0.977118139,44.8185226 3.52260702,44.8280066 3.52260702,44.8280066 C3.52260702,44.8280066 11.8483197,44.8501732 18.8235301,44.8501732 C25.7987404,44.8501732 31.4532656,39.1753605 31.4532656,32.1751242 C31.4532656,25.174888 25.7987404,19.5000753 18.8235301,19.5000753 C11.8483197,19.5000753 6.19379451,25.174888 6.19379451,32.1751242 L6.19379451,43.5310565" id="Oval-Copy" stroke="#393634" stroke-width="4.51724865" transform="translate(12.777889, 32.175124) rotate(-90.000000) translate(-12.777889, -32.175124) "></path>
                    <g id="Group" transform="translate(32.108542, 13.000050)">
                        <path d="M14.7523798,25.1330281 C21.6853579,25.1330281 27.3056471,19.5378677 27.3056471,12.6358875 C27.3056471,5.73390728 21.6853579,0.138746834 14.7523798,0.138746834 C7.81940171,0.138746834 2.19911251,5.73390728 2.19911251,12.6358875 C2.19911251,19.5378677 7.81940171,25.1330281 14.7523798,25.1330281 Z" id="Oval-2-Copy-4" stroke="#393634" stroke-width="4.51724865" transform="translate(14.752380, 12.635887) rotate(-180.000000) translate(-14.752380, -12.635887) "></path>
                        <path d="M14.6540685,27.1001843 C22.3255144,27.1001843 28.6176524,21.2210694 29.2323797,13.7417253 C29.2650044,13.3447828 29.281638,12.5380157 29.281638,12.5380157 C29.281638,12.5380157 28.8836778,19.3994681 22.9009321,22.3029339 C16.9181864,25.2063998 10.9936056,22.3029339 10.9936056,22.3029339 C10.9936056,22.3029339 4.17648552,19.7738261 4.26246184,12.5687714 C4.29810005,9.58218973 5.06375479,7.3925734 7.63408506,4.86612563 C10.2044153,2.33967787 14.6767554,2.1127889 14.6767554,2.1127889 C14.6767554,2.1127889 8.69036698,1.31622931 4.62650989,4.20287851 C0.562652809,7.08952771 0.0944069626,10.5727667 0.0264989461,12.5380157 C-0.25128239,20.5769708 6.5754849,27.1001843 14.6540685,27.1001843 Z" id="Oval-2-Copy-3" fill="#EE7220"></path>
                    </g>
                    <g id="Group-3" transform="translate(66.182913, 11.050043)" stroke="#393634" stroke-width="4.51724865">
                        <path d="M5.34890221,19.7003979 C5.34826262,20.2211434 5.35477398,20.2852784 5.34890221,20.6004641 C5.30382759,23.0199839 5.5143675,27.9319061 8.22498118,30.9255179 C12.0756354,35.1781948 16.6281758,35.024853 16.6281758,35.024853 C16.6281758,35.024853 20.2356426,35.184957 27.1808904,35.184957 L29.6687625,35.2442528" id="Oval-Copy-2" transform="translate(17.506361, 27.472325) rotate(-90.000000) translate(-17.506361, -27.472325) "></path>
                        <path d="M25.2592624,27.4058536 C25.2592624,27.4058536 25.2592624,19.7089582 25.2592624,12.735529 C25.2592624,5.76209972 19.6221334,0.109018354 12.6683823,0.109018354 C5.7146313,0.109018354 0.0775022858,5.76209972 0.0775022858,12.735529 C0.0775022858,19.7089582 0.117902923,27.4058536 0.117902923,27.4058536" id="Oval-2-Copy-6" transform="translate(12.668382, 13.757436) rotate(-180.000000) translate(-12.668382, -13.757436) "></path>
                    </g>
                    <g id="Group-4" transform="translate(93.049244, 7.800030)" stroke="#393634" stroke-width="4.51724865">
                        <path d="M28.73969,7.88581755 L10.121083,26.3850047" id="Path-3" transform="translate(19.430386, 17.135411) scale(-1, -1) translate(-19.430386, -17.135411) "></path>
                        <path d="M17.9153083,30.44472 C24.8975876,30.44472 30.5578433,24.8175872 30.5578433,17.8761672 C30.5578433,10.9347471 24.8975876,5.30761429 17.9153083,5.30761429 C10.9330291,5.30761429 5.2727734,10.9347471 5.2727734,17.8761672 L5.40691312,20.2846555" id="Oval-2-Copy-8" transform="translate(17.915308, 17.876167) rotate(-135.000000) translate(-17.915308, -17.876167) "></path>
                    </g>
                    <path d="M140.884419,0 L140.884419,40.3001556 L140.884419,0 Z" id="Path-2" stroke="#393634" stroke-width="4.51724865"></path>
                    <path d="M130.399997,0 L130.399997,40.3001556 L130.399997,0 Z" id="Path-2-Copy" stroke="#393634" stroke-width="4.51724865"></path>
                    <path d="M161.525625,38.3501481 C168.582658,38.3501481 174.303514,32.6753354 174.303514,25.6750991 C174.303514,18.6748629 168.582658,13.0000502 161.525625,13.0000502 C154.468591,13.0000502 148.747735,18.6748629 148.747735,25.6750991 C148.747735,32.6753354 154.468591,38.3501481 161.525625,38.3501481 Z" id="Oval-2-Copy-7" stroke="#393634" stroke-width="4.51724865" transform="translate(161.525625, 25.675099) rotate(-180.000000) translate(-161.525625, -25.675099) "></path>
                </g>
            </g>
        </g>
    </g>
</svg>