<?xml version="1.0" encoding="UTF-8"?>
<svg width="242px" height="156px" viewBox="0 0 242 156" version="1.1" xmlns="http://www.w3.org/2000/svg" xmlns:xlink="http://www.w3.org/1999/xlink">
    <!-- Generator: Sketch 47.1 (45422) - http://www.bohemiancoding.com/sketch -->
    <title>radiogdansk</title>
    <desc>Created with Sketch.</desc>
    <defs></defs>
    <g id="Page-1" stroke="none" stroke-width="1" fill="none" fill-rule="evenodd">
        <g id="Artboard" transform="translate(-66.000000, -1843.000000)">
            <g id="radiogdansk" transform="translate(66.000000, 1843.000000)">
                <rect id="Rectangle-7" fill-opacity="0.495810688" fill="#FFFFFF" x="0" y="0" width="242" height="156"></rect>
                <g id="RadioGdansk" transform="translate(15.000000, 61.000000)" fill-rule="nonzero">
                    <path d="M18.758427,21.4753086 C17.5674157,18.5716049 16.6146067,16.6962963 14.947191,15.9098765 C18.5202247,15.1839506 20.6044944,13.0061728 20.6044944,10.4049383 C20.6044944,6.83580247 17.388764,4.2345679 11.9696629,4.2345679 C8.15842697,4.2345679 5.18089888,5.32345679 2.73932584,7.01728395 L3.03707865,7.50123457 C4.34719101,6.83580247 5.59775281,6.35185185 6.84831461,6.04938272 L3.2752809,22.745679 C2.67977528,25.4679012 1.96516854,26.7382716 0.178651685,26.8592593 L0,27.4641975 C1.72696629,27.4037037 3.39438202,27.4037037 5.00224719,27.4037037 C6.5505618,27.4037037 8.15842697,27.4641975 9.58764045,27.4641975 L9.70674157,26.8592593 C8.27752809,26.5567901 7.68202247,25.891358 7.68202247,24.5 C7.68202247,24.0765432 7.8011236,23.4111111 7.97977528,22.4432099 L9.23033708,16.6358025 C9.3494382,16.6358025 9.52808989,16.5753086 9.64719101,16.5753086 C12.2674157,16.5753086 13.994382,20.2049383 16.3764045,27.4641975 C17.3292135,27.4037037 18.1629213,27.4037037 19.1157303,27.4037037 C20.0685393,27.4037037 21.0213483,27.4641975 21.9146067,27.4641975 L22.0932584,26.8592593 C20.3662921,26.4962963 20.0089888,24.4395062 18.758427,21.4753086 Z M10.7786517,15.3654321 C10.3617978,15.3654321 9.94494382,15.3049383 9.46853933,15.2444444 L11.552809,5.38395062 C14.1134831,5.62592593 15.9595506,7.8037037 15.9595506,10.5864198 C16.0191011,13.3691358 13.9348315,15.3654321 10.7786517,15.3654321 Z" id="Shape" fill="#1F2436"></path>
                    <path d="M36.3853933,25.2259259 C36.3853933,24.7419753 36.5044944,24.0765432 36.6831461,23.108642 L39.005618,12.582716 L37.8741573,12.582716 C33.3483146,12.582716 30.0730337,13.0061728 28.1674157,14.2160494 C24.7730337,16.2123457 23.0460674,19.3580247 23.0460674,22.9876543 C23.0460674,26.0123457 24.7134831,27.8876543 27.1550562,27.8876543 C28.8224719,27.8876543 30.5494382,26.9197531 32.3955056,24.9839506 L31.6808989,27.8271605 C33.8842697,27.5851852 35.9685393,27.4037037 37.8146067,27.3432099 L37.8741573,26.7382716 C36.8022472,26.5567901 36.3853933,26.1938272 36.3853933,25.2259259 Z M32.8123596,22.745679 C31.8,24.3790123 30.4898876,25.2259259 29.2988764,25.2259259 C27.988764,25.2259259 27.1550562,24.1975309 27.1550562,22.3222222 C27.1550562,17.9061728 30.0134831,14.0950617 33.4078652,14.0950617 C33.7651685,14.0950617 34.1820225,14.1555556 34.658427,14.2160494 L32.8123596,22.745679 Z" id="Shape" fill="#1F2436"></path>
                    <path d="M53.6550562,25.1654321 C53.6550562,24.9234568 53.7146067,24.6209877 53.7741573,24.2580247 L58.1808989,4.11358025 C56.0370787,4.47654321 53.8932584,4.71851852 51.6898876,5.08148148 L51.511236,5.68641975 C52.8213483,5.86790123 53.2977528,6.29135802 53.2977528,7.38024691 C53.2977528,7.68271605 53.2382022,8.28765432 53.0595506,9.1345679 L52.3449438,12.582716 L52.1067416,12.582716 C48.9505618,12.582716 46.4494382,13.308642 44.4247191,14.9419753 C41.8044944,17.0592593 40.2561798,20.0839506 40.2561798,23.108642 C40.2561798,26.0728395 41.9235955,27.8876543 44.5438202,27.8876543 C46.3303371,27.8876543 47.9977528,26.9197531 49.6651685,25.0444444 L49.0101124,27.8271605 C51.1539326,27.5851852 53.2382022,27.4037037 55.0842697,27.4037037 L55.2033708,26.7987654 C54.1314607,26.5567901 53.6550562,26.0728395 53.6550562,25.1654321 Z M50.0224719,23.2901235 C48.8910112,24.7419753 47.7595506,25.4074074 46.6876404,25.4074074 C45.3179775,25.4074074 44.6033708,24.4395062 44.6033708,22.4432099 C44.6033708,17.482716 47.3426966,13.9135802 51.1539326,13.9135802 C51.4516854,13.9135802 51.7494382,13.9740741 52.047191,13.9740741 L50.0224719,23.2901235 Z" id="Shape" fill="#1F2436"></path>
                    <path d="M66.8752809,6.95679012 C66.8752809,8.16666667 65.9224719,9.1345679 64.7314607,9.1345679 C63.6,9.1345679 62.647191,8.16666667 62.647191,6.95679012 C62.647191,5.74691358 63.6,4.77901235 64.7314607,4.77901235 C65.8629213,4.77901235 66.8752809,5.74691358 66.8752809,6.95679012 Z" id="Shape" fill="#1F2436"></path>
                    <path d="M63.6,24.2580247 C63.5404494,24.6814815 63.4808989,24.9839506 63.4808989,25.2259259 C63.4808989,26.1938272 64.0168539,26.6777778 65.2674157,26.8592593 L65.1483146,27.4641975 C63.6595506,27.4037037 62.1707865,27.4037037 60.741573,27.4037037 C59.3719101,27.4037037 58.0022472,27.4641975 56.6921348,27.4641975 L56.8707865,26.8592593 C58.3595506,26.617284 59.0146067,25.891358 59.3719101,24.3790123 L60.8011236,17.6641975 C60.9202247,17.0592593 61.0393258,16.454321 61.0393258,15.9703704 C61.0393258,14.8814815 60.5033708,14.337037 59.252809,14.2160494 L59.4314607,13.6111111 C61.6348315,13.4296296 63.8977528,13.1271605 66.1011236,12.6432099 L63.6,24.2580247 Z" id="Shape" fill="#1F2436"></path>
                    <path d="M77.5348315,12.582716 C74.8550562,12.582716 72.5325843,13.5506173 70.6269663,15.4259259 C68.3640449,17.7246914 67.1134831,20.5074074 67.1134831,23.108642 C67.1134831,26.1333333 68.8404494,27.8876543 71.9966292,27.8876543 C75.3910112,27.8876543 78.9044944,25.7098765 80.988764,21.8987654 C81.7629213,20.5074074 82.1797753,18.8740741 82.1797753,17.3012346 C82.2393258,14.337037 80.5123596,12.582716 77.5348315,12.582716 Z M76.5224719,23.4716049 C76.1651685,24.4395062 75.6292135,25.2259259 75.152809,25.7098765 C74.5573034,26.254321 74.0213483,26.5567901 73.4258427,26.5567901 C72.1752809,26.5567901 71.4011236,25.5888889 71.4011236,23.7135802 C71.4011236,20.6283951 72.4730337,17.482716 73.8426966,15.4259259 C74.4977528,14.4580247 75.3910112,13.9740741 76.1651685,13.9740741 C77.4752809,13.9740741 78.0707865,14.9419753 78.0707865,16.9987654 C78.011236,18.8740741 77.4752809,20.991358 76.5224719,23.4716049 Z" id="Shape" fill="#1F2436"></path>
                    <path d="M205.806742,13.5506173 L203.007865,16.5753086 L207.057303,24.1975309 C207.891011,25.7098765 208.78427,26.4962963 210.034831,26.5567901 L209.85618,27.282716 C208.903371,27.2222222 207.950562,27.1617284 206.878652,27.1617284 C205.866292,27.1617284 204.794382,27.2222222 203.722472,27.282716 L199.553933,18.9345679 L198.541573,23.5320988 C198.422472,23.9555556 198.422472,24.3185185 198.422472,24.6209877 C198.422472,25.7098765 198.958427,26.254321 200.149438,26.5567901 L200.030337,27.282716 C198.482022,27.2222222 196.933708,27.1617284 195.444944,27.1617284 C193.896629,27.1617284 192.348315,27.2222222 190.8,27.282716 L190.978652,26.5567901 C192.824719,26.254321 193.539326,25.4679012 193.896629,23.7135802 L197.767416,5.92839506 C197.946067,5.08148148 198.065169,4.47654321 198.065169,3.93209877 C198.065169,2.6617284 197.410112,2.05679012 195.980899,1.87530864 L196.219101,1.14938272 C198.779775,0.84691358 201.221348,0.483950617 203.722472,0.0604938272 L199.911236,17.845679 C199.911236,17.845679 204.437079,13.0061728 204.973034,12.2802469 C205.330337,11.7962963 205.211236,11.0703704 204.317978,11.0098765 L203.960674,10.9493827 L204.139326,10.1024691 C205.508989,10.162963 209.975281,9.98148148 211.642697,9.8 L211.464045,10.7074074 C209.498876,10.7679012 208.188764,11.191358 205.806742,13.5506173 Z" id="Shape" fill="#1F2436"></path>
                    <path d="M132.142697,24.5604938 C132.142697,24.2580247 132.202247,23.9555556 132.261798,23.4716049 L137.442697,0 C134.941573,0.42345679 132.440449,0.725925926 129.879775,1.08888889 L129.701124,1.81481481 C131.189888,2.05679012 131.785393,2.54074074 131.785393,3.75061728 C131.785393,4.11358025 131.725843,4.83950617 131.48764,5.80740741 L130.653933,9.86049383 L130.35618,9.86049383 C126.664045,9.86049383 123.746067,10.7679012 121.364045,12.6432099 C118.326966,15.062963 116.540449,18.6320988 116.540449,22.1407407 C116.540449,25.5888889 118.505618,27.7061728 121.542697,27.7061728 C123.626966,27.7061728 125.592135,26.617284 127.497753,24.4395062 L126.723596,27.645679 C129.28427,27.3432099 131.666292,27.1617284 133.810112,27.1617284 L133.929213,26.4358025 C132.738202,26.254321 132.142697,25.6493827 132.142697,24.5604938 Z M127.914607,22.4432099 C126.604494,24.0765432 125.234831,24.862963 124.04382,24.862963 C122.435955,24.862963 121.602247,23.7135802 121.602247,21.4148148 C121.602247,15.6679012 124.817978,11.4938272 129.224719,11.4938272 C129.582022,11.4938272 129.939326,11.554321 130.237079,11.6148148 L127.914607,22.4432099 Z" id="Shape" fill="#1F2436"></path>
                    <path d="M152.330337,24.6814815 C152.330337,24.137037 152.449438,23.3506173 152.68764,22.2617284 L155.367416,9.98148148 L154.057303,9.98148148 C148.757303,9.98148148 144.946067,10.4654321 142.683146,11.8567901 C138.752809,14.2160494 136.668539,17.845679 136.668539,22.0802469 C136.668539,25.6493827 138.633708,27.8271605 141.432584,27.8271605 C143.397753,27.8271605 145.362921,26.6777778 147.506742,24.3790123 L146.732584,27.7666667 C149.293258,27.4641975 151.734831,27.282716 153.938202,27.1617284 L153.997753,26.4358025 C152.806742,26.254321 152.330337,25.7703704 152.330337,24.6814815 Z M148.161798,21.8382716 C146.970787,23.7135802 145.482022,24.6814815 144.052809,24.6814815 C142.504494,24.6814815 141.551685,23.4716049 141.551685,21.2938272 C141.551685,16.091358 144.886517,11.6753086 148.816854,11.6753086 C149.233708,11.6753086 149.710112,11.7358025 150.246067,11.7962963 L148.161798,21.8382716 Z" id="Shape" fill="#1F2436"></path>
                    <path d="M111.180899,14.8209877 C112.967416,14.8209877 114.694382,14.8209877 116.480899,14.7604938 L116.361798,15.5469136 C113.801124,15.8493827 113.622472,17.1197531 113.086517,19.6 L111.657303,26.1333333 C108.679775,27.282716 105.761798,27.8876543 103.022472,27.8876543 C95.5786517,27.8876543 90.6955056,23.1691358 90.6955056,15.9703704 C90.6955056,11.9777778 92.1842697,8.04567901 95.0426966,4.83950617 C97.7820225,1.81481481 101.593258,0.0604938272 105.880899,0.0604938272 C109.334831,0.0604938272 111.716854,1.20987654 113.205618,1.20987654 C114.098876,1.20987654 114.753933,0.907407407 115.111236,0.302469136 L115.885393,0.302469136 L114.45618,7.1382716 L113.682022,7.1382716 C113.44382,3.81111111 110.704494,1.57283951 106.952809,1.57283951 C101.116854,1.57283951 96.4123596,7.5617284 96.4123596,16.5148148 C96.4123596,22.6246914 99.5089888,26.3148148 103.617978,26.3148148 C105.642697,26.3148148 106.774157,25.2259259 107.250562,23.0481481 L108.024719,19.1765432 C108.14382,18.4506173 108.262921,17.9061728 108.262921,17.7246914 C108.262921,16.3938272 107.548315,15.8493827 105.940449,15.6074074 L106.119101,14.8209877 C107.786517,14.8209877 109.453933,14.8209877 111.180899,14.8209877 Z" id="Shape" fill="#1F2436"></path>
                    <path d="M185.797753,13.4296296 C185.797753,14.5790123 186.988764,15.6679012 188.358427,17.4222222 C189.608989,19.0555556 190.621348,20.2654321 190.621348,22.2012346 C190.621348,25.2864198 187.64382,27.8271605 183.475281,27.8271605 C181.629213,27.8271605 180.319101,27.0407407 179.544944,27.0407407 C179.247191,27.0407407 178.949438,27.2222222 178.592135,27.5246914 L177.817978,27.5246914 L178.949438,22.2617284 L179.723596,22.2617284 C179.842697,24.9839506 181.391011,26.5567901 183.296629,26.5567901 C184.904494,26.5567901 186.035955,25.4679012 186.035955,23.7740741 C186.035955,22.2617284 185.083146,21.2333333 184.070787,19.9024691 C182.641573,18.0271605 181.27191,16.5753086 181.27191,14.337037 C181.27191,11.6753086 183.35618,9.86049383 186.691011,9.86049383 C188.001124,9.86049383 189.251685,10.2234568 190.502247,10.2234568 C190.919101,10.2234568 191.335955,10.0419753 191.752809,9.61851852 L192.526966,9.61851852 L191.633708,14.0345679 L190.859551,14.0345679 C190.859551,12.4012346 189.668539,11.3123457 188.120225,11.3123457 C186.691011,11.3123457 185.797753,12.1592593 185.797753,13.4296296 Z" id="Shape" fill="#1F2436"></path>
                    <path d="M167.634831,7.86419753 L166.026966,7.86419753 L171.029213,3.32716049 C171.862921,2.60123457 172.517978,2.17777778 173.113483,2.17777778 C174.006742,2.17777778 174.602247,2.78271605 174.602247,3.62962963 C174.602247,4.2345679 174.185393,4.83950617 173.232584,5.26296296 L167.634831,7.86419753 Z" id="Shape" fill="#1F2436"></path>
                    <path d="M174.483146,23.5320988 C174.364045,23.9555556 174.364045,24.3185185 174.364045,24.6209877 C174.364045,25.7098765 174.9,26.254321 176.150562,26.5567901 L175.97191,27.282716 C174.423596,27.2222222 172.934831,27.1617284 171.386517,27.1617284 C169.897753,27.1617284 168.349438,27.2222222 166.801124,27.282716 L166.920225,26.5567901 C168.766292,26.254321 169.480899,25.4679012 169.838202,23.7135802 L171.326966,16.7567901 C171.446067,16.2728395 171.446067,15.7283951 171.446067,15.3654321 C171.446067,13.5506173 170.552809,12.582716 169.004494,12.582716 C167.158427,12.582716 165.193258,14.2160494 164.657303,16.817284 L163.22809,23.5320988 C163.108989,24.0160494 163.108989,24.4395062 163.108989,24.6209877 C163.108989,25.7098765 163.644944,26.254321 164.895506,26.4962963 L164.716854,27.2222222 C163.168539,27.1617284 161.679775,27.1012346 160.131461,27.1012346 C158.642697,27.1012346 157.094382,27.1617284 155.546067,27.2222222 L155.665169,26.4962963 C157.511236,26.1938272 158.225843,25.4074074 158.583146,23.6530864 L160.250562,15.8493827 C160.429213,15.0024691 160.548315,14.337037 160.548315,13.7925926 C160.548315,12.5222222 159.952809,11.917284 158.464045,11.7358025 L158.642697,11.0098765 C161.203371,10.7074074 163.704494,10.3444444 166.205618,9.92098765 L165.491011,13.0666667 C167.396629,11.0098765 169.421348,9.92098765 171.74382,9.92098765 C174.661798,9.92098765 176.329213,11.554321 176.329213,14.6395062 C176.329213,15.2444444 176.210112,16.0308642 176.031461,16.8777778 L174.483146,23.5320988 Z" id="Shape" fill="#1F2436"></path>
                    <path d="M211.642697,44.2814815 L211.464045,44.2209877 L211.464045,44.2209877 L211.464045,44.2209877 L211.464045,44.4024691 C208.307865,43.9790123 205.389888,43.6160494 202.591011,43.2530864 C188.71573,41.3777778 178.711236,39.9864198 162.751685,41.6197531 C153.997753,42.5271605 145.660674,43.7975309 137.561798,45.0679012 C125.889888,46.882716 115.408989,48.5160494 106.297753,48.5160494 C103.677528,48.5160494 101.176404,48.3950617 98.794382,48.0925926 C82.358427,46.0358025 78.4280899,35.5098765 78.4280899,35.3888889 L78.6067416,35.3283951 L78.4876404,35.2074074 L78.7853933,35.0259259 L78.9044944,35.1469136 C81.5842697,37.6271605 88.0157303,41.6802469 106.059551,41.982716 C123.626966,42.2851852 145.839326,35.5098765 164.3,34.8444444 C179.068539,34.3 193.777528,37.7481481 211.464045,43.6765432 L211.464045,43.6765432 L211.642697,43.737037 L211.642697,43.737037 L211.642697,43.737037 L211.821348,43.7975309 L211.642697,44.2814815 Z" id="Shape" fill="#EF4135"></path>
                </g>
            </g>
        </g>
    </g>
</svg>