<?xml version="1.0" encoding="UTF-8"?>
<svg width="93px" height="93px" viewBox="0 0 93 93" version="1.1" xmlns="http://www.w3.org/2000/svg" xmlns:xlink="http://www.w3.org/1999/xlink">
    <!-- Generator: Sketch 47.1 (45422) - http://www.bohemiancoding.com/sketch -->
    <title>Group 4</title>
    <desc>Created with Sketch.</desc>
    <defs></defs>
    <g id="Page-1" stroke="none" stroke-width="1" fill="none" fill-rule="evenodd">
        <g id="Artboard" transform="translate(-347.000000, -635.000000)">
            <g id="Group-4" transform="translate(347.000000, 635.000000)">
                <circle id="Oval" fill="#079CDD" cx="46.5" cy="46.5" r="46.5"></circle>
                <g id="panel" transform="translate(46.451480, 46.441866) rotate(-14.000000) translate(-46.451480, -46.441866) translate(27.728883, 12.955279)" fill-rule="nonzero">
                    <rect id="Rectangle-path" fill="#FFD3D8" x="16.767559" y="9.88962568" width="4.31398362" height="52.2853161"></rect>
                    <rect id="Rectangle-path" fill="#FFBDC4" x="16.767559" y="9.88962568" width="4.31398362" height="39.9638153"></rect>
                    <polygon id="Shape" fill="#EE4658" points="36.6281628 5.39137742 31.0389387 9.80856318 8.13959174 9.80856318 8.13959174 0.972750067 31.0389387 0.972750067"></polygon>
                    <polygon id="Shape" fill="#FFBFC6" points="29.9536976 12.9700009 29.9536976 21.805814 7.05421912 21.805814 1.46512651 17.3879074 7.05421912 12.9700009"></polygon>
                    <polygon id="Shape" fill="#F0485A" points="36.6281628 29.6283458 31.0389387 34.0462523 8.13959174 34.0462523 8.13959174 25.2104392 31.0389387 25.2104392"></polygon>
                    <polygon id="Shape" fill="#FFA0AA" points="29.9536976 37.2076901 29.9536976 46.0435032 7.05421912 46.0435032 1.46512651 41.6255966 7.05421912 37.2076901"></polygon>
                    <path d="M36.6281628,5.32957655 L35.1094864,4.13418778 C34.9726568,4.5140346 34.7317578,4.86452191 34.3835003,5.138544 L31.6598028,7.28178824 C31.257866,7.59808803 30.7597538,7.7702 30.2466429,7.7702 L10.413199,7.7702 C9.15752469,7.7702 8.13959174,6.76062431 8.13959174,5.51525914 L8.13959174,9.72750067 L31.0390702,9.72750067 L36.6281628,5.32957655 Z" id="Shape" fill="#C41C2E"></path>
                    <path d="M7.05432487,21.805814 L29.9536976,21.805814 L29.9536976,17.5945549 C29.9536976,18.8396296 28.9357694,19.8489698 27.6801009,19.8489698 L7.84701166,19.8489698 C7.33377163,19.8489698 6.83553016,19.6767676 6.4335952,19.3604111 L3.70912085,17.2163622 C3.36099649,16.942404 3.12023021,16.5921289 2.98340129,16.2125011 L1.46512651,17.4073502 L7.05432487,21.805814 Z" id="Shape" fill="#FFA0AA"></path>
                    <path d="M34.3841685,29.375738 L31.6596942,31.5197869 C31.2576276,31.8361434 30.7595177,32.0083457 30.2462777,32.0083457 L10.4131885,32.0083457 C9.15751999,32.0083457 8.13959174,30.9990055 8.13959174,29.7539308 L8.13959174,33.9651898 L31.0389645,33.9651898 L36.6281628,29.566726 L35.1098881,28.371877 C34.9729276,28.7515047 34.7321613,29.1019103 34.3841685,29.375738 Z" id="Shape" fill="#C41C2E"></path>
                    <path d="M27.6801009,44.086659 L7.84701166,44.086659 C7.33377163,44.086659 6.83553016,43.9144567 6.4335952,43.5981003 L3.70912085,41.4540513 C3.36099649,41.1800932 3.12023021,40.8298181 2.98340129,40.4501903 L1.46512651,41.6450393 L7.05432487,46.0435032 L29.9536976,46.0435032 L29.9536976,41.8322441 C29.9536976,43.0771883 28.9357694,44.086659 27.6801009,44.086659 Z" id="Shape" fill="#FF8D99"></path>
                    <rect id="Rectangle-path" fill="#FFD3D8" x="11.1512407" y="62.1749418" width="15.5466202" height="3.80993776"></rect>
                    <path d="M2.02279652,10.4570632 C2.5690386,10.4570632 3.01164894,10.0033834 3.01164894,9.4437819 C3.01164894,8.8841804 2.5690386,8.43050058 2.02279652,8.43050058 L0.988852425,8.43050058 C0.442610345,8.43050058 0,8.8841804 0,9.4437819 C0,10.0033834 0.442610345,10.4570632 0.988852425,10.4570632 L2.02279652,10.4570632 Z" id="Shape" fill="#4F0008"></path>
                    <path d="M0.988852425,6.40393794 L2.02279652,6.40393794 C2.5690386,6.40393794 3.01164894,5.95025812 3.01164894,5.39065662 C3.01164894,4.83105512 2.5690386,4.3773753 2.02279652,4.3773753 L0.988852425,4.3773753 C0.442610345,4.3773753 0,4.83105512 0,5.39065662 C0,5.95025812 0.442742192,6.40393794 0.988852425,6.40393794 Z" id="Shape" fill="#4F0008"></path>
                    <path d="M0.988852425,2.51293767 L2.02279652,2.51293767 C2.5690386,2.51293767 3.01164894,2.05925785 3.01164894,1.49965635 C3.01164894,0.940054856 2.5690386,0.486375033 2.02279652,0.486375033 L0.988852425,0.486375033 C0.442610345,0.486375033 0,0.940054856 0,1.49965635 C0,2.05925785 0.442742192,2.51293767 0.988852425,2.51293767 Z" id="Shape" fill="#4F0008"></path>
                    <path d="M7.27503362,10.0150778 C7.8212757,10.0150778 8.26388604,9.56139794 8.26388604,9.00179644 C8.26388604,8.44219494 7.8212757,7.98851512 7.27503362,7.98851512 L6.24108952,7.98851512 C5.69484744,7.98851512 5.2522371,8.44219494 5.2522371,9.00179644 C5.2522371,9.56139794 5.69484744,10.0150778 6.24108952,10.0150778 L7.27503362,10.0150778 Z" id="Shape" fill="#4F0008"></path>
                    <path d="M5.24066341,6.2704613 L6.2746075,6.2704613 C6.82084958,6.2704613 7.26345993,5.81678147 7.26345993,5.25717998 C7.26345993,4.69757848 6.82084958,4.24389866 6.2746075,4.24389866 L5.24066341,4.24389866 C4.69442133,4.24389866 4.25181098,4.69757848 4.25181098,5.25717998 C4.25181098,5.81678147 4.69455318,6.2704613 5.24066341,6.2704613 Z" id="Shape" fill="#4F0008"></path>
                    <path d="M5.99098299,2.77548593 L7.02492709,2.77548593 C7.57116917,2.77548593 8.01377951,2.32180611 8.01377951,1.76220461 C8.01377951,1.20260312 7.57116917,0.748923293 7.02492709,0.748923293 L5.99098299,0.748923293 C5.44474091,0.748923293 5.00213057,1.20260312 5.00213057,1.76220461 C5.00213057,2.32180611 5.44487276,2.77548593 5.99098299,2.77548593 Z" id="Shape" fill="#4F0008"></path>
                    <path d="M30.8818527,34.9892452 C31.1041034,34.9892452 31.3199216,34.9144009 31.493994,34.7769905 L37.0696912,30.3734559 C37.3049383,30.187586 37.442122,29.9050587 37.442122,29.6060734 C37.442122,29.3070881 37.3049383,29.0245607 37.0696912,28.8386909 L31.493994,24.4350257 C31.3199216,24.2974846 31.1041034,24.222771 30.8818527,24.222771 L22.1040645,24.222771 L22.1040645,22.7795694 L29.8978057,22.7795694 C30.4416833,22.7795694 30.8823778,22.3409532 30.8823778,21.7999322 L30.8823778,12.9927324 C30.8823778,12.4517115 30.4416833,12.0130952 29.8978057,12.0130952 L28.1983031,12.0130952 C27.6544254,12.0130952 27.213731,12.4517115 27.213731,12.9927324 C27.213731,13.5337534 27.6544254,13.9723696 28.1983031,13.9723696 L28.9132337,13.9723696 L28.9132337,20.820295 L7.39193229,20.820295 L3.05666456,17.396267 L7.39193229,13.9723696 L24.3038611,13.9723696 C24.8477387,13.9723696 25.2884331,13.5337534 25.2884331,12.9927324 C25.2884331,12.4517115 24.8477387,12.0130952 24.3038611,12.0130952 L22.1040645,12.0130952 L22.1040645,10.7666048 L30.8818527,10.7666048 C31.1041034,10.7666048 31.3199216,10.6917605 31.493994,10.5543501 L37.0696912,6.15081552 C37.3049383,5.96494568 37.442122,5.68241831 37.442122,5.38343303 C37.442122,5.08444776 37.3049383,4.80192038 37.0696912,4.61605055 L31.493994,0.21225473 C31.3199216,0.0748442831 31.1042347,0 30.8818527,0 L8.03269179,0 C7.48881418,0 7.04811973,0.438616235 7.04811973,0.979637213 L7.04811973,3.17833498 C7.04811973,3.71935595 7.48881418,4.15797219 8.03269179,4.15797219 C8.5765694,4.15797219 9.01726386,3.71935595 9.01726386,3.17833498 L9.01726386,1.95927443 L30.5385652,1.95927443 L34.873833,5.38330242 L30.5385652,8.80719979 L9.01726386,8.80719979 L9.01726386,6.85354195 C9.01726386,6.31252097 8.5765694,5.87390473 8.03269179,5.87390473 C7.48881418,5.87390473 7.04811973,6.31252097 7.04811973,6.85354195 L7.04811973,9.78696762 C7.04811973,10.3279886 7.48881418,10.7666048 8.03269179,10.7666048 L15.826433,10.7666048 L15.826433,12.0130952 L7.04864483,12.0130952 C6.8263941,12.0130952 6.6105759,12.0879395 6.43650356,12.22535 L0.860806299,16.6288845 C0.625559213,16.8147544 0.488375505,17.0972817 0.488375505,17.396267 C0.488375505,17.6952523 0.625559213,17.9777797 0.860806299,18.1636495 L6.43650356,22.5673147 C6.6105759,22.7048558 6.8263941,22.7795694 7.04864483,22.7795694 L15.826433,22.7795694 L15.826433,24.222771 L8.03269179,24.222771 C7.48881418,24.222771 7.04811973,24.6613872 7.04811973,25.2024082 L7.04811973,34.009608 C7.04811973,34.550629 7.48881418,34.9892452 8.03269179,34.9892452 L15.826433,34.9892452 L15.826433,36.2357356 L7.04864483,36.2357356 C6.8263941,36.2357356 6.6105759,36.3105799 6.43650356,36.4479903 L0.860806299,40.8516555 C0.625559213,41.0375253 0.488375505,41.3200527 0.488375505,41.619038 C0.488375505,41.9180233 0.625559213,42.2005506 0.860806299,42.3864205 L6.43650356,46.7900857 C6.6105759,46.9276267 6.8263941,47.0023404 7.04864483,47.0023404 L15.826433,47.0023404 L15.826433,51.7679489 C15.826433,52.3089699 16.2671275,52.7475861 16.8110051,52.7475861 C17.3548827,52.7475861 17.7955771,52.3089699 17.7955771,51.7679489 L17.7955771,47.0023404 L20.1349204,47.0023404 L20.1349204,61.1251823 L17.7955771,61.1251823 L17.7955771,55.5127754 C17.7955771,54.9717545 17.3548827,54.5331382 16.8110051,54.5331382 C16.2671275,54.5331382 15.826433,54.9717545 15.826433,55.5127754 L15.826433,61.1251823 L11.1770211,61.1251823 C10.6331435,61.1251823 10.1924491,61.5637986 10.1924491,62.1048195 L10.1924491,65.8969299 C10.1924491,66.4379509 10.6331435,66.8765671 11.1770211,66.8765671 L26.7534764,66.8765671 C27.297354,66.8765671 27.7380484,66.4379509 27.7380484,65.8969299 L27.7380484,62.1048195 C27.7380484,61.5637986 27.297354,61.1251823 26.7534764,61.1251823 L22.1040645,61.1251823 L22.1040645,47.0023404 L29.8978057,47.0023404 C30.4416833,47.0023404 30.8823778,46.5637242 30.8823778,46.0227032 L30.8823778,37.2153728 C30.8823778,36.6743518 30.4416833,36.2357356 29.8978057,36.2357356 L22.1040645,36.2357356 L22.1040645,34.9892452 L30.8818527,34.9892452 Z M17.7955771,10.7668661 L20.1349204,10.7668661 L20.1349204,12.0130952 L17.7955771,12.0130952 L17.7955771,10.7668661 L17.7955771,10.7668661 Z M25.7689043,64.9172927 L12.1615932,64.9172927 L12.1615932,63.0844568 L25.7689043,63.0844568 L25.7689043,64.9172927 Z M17.7955771,22.7795694 L20.1349204,22.7795694 L20.1349204,24.222771 L17.7955771,24.222771 L17.7955771,22.7795694 L17.7955771,22.7795694 Z M9.01726386,26.1820454 L30.5385652,26.1820454 L34.873833,29.6060734 L30.5385652,33.0299708 L9.01726386,33.0299708 L9.01726386,26.1820454 Z M28.9132337,45.043066 L7.39193229,45.043066 L3.05666456,41.619038 L7.39193229,38.19501 L28.9132337,38.19501 L28.9132337,45.043066 Z M20.1349204,36.2357356 L17.7955771,36.2357356 L17.7955771,34.9892452 L20.1349204,34.9892452 L20.1349204,36.2357356 Z" id="Shape" fill="#4F0008"></path>
                </g>
            </g>
        </g>
    </g>
</svg>