<?xml version="1.0" encoding="UTF-8"?>
<svg width="93px" height="93px" viewBox="0 0 93 93" version="1.1" xmlns="http://www.w3.org/2000/svg" xmlns:xlink="http://www.w3.org/1999/xlink">
    <!-- Generator: Sketch 47.1 (45422) - http://www.bohemiancoding.com/sketch -->
    <title>Group 6</title>
    <desc>Created with Sketch.</desc>
    <defs></defs>
    <g id="Page-1" stroke="none" stroke-width="1" fill="none" fill-rule="evenodd">
        <g id="Artboard" transform="translate(-845.000000, -635.000000)">
            <g id="Group-6" transform="translate(845.000000, 635.000000)">
                <circle id="Oval" fill="#E04051" cx="46.5" cy="46.5" r="46.5"></circle>
                <g id="brainstorm" transform="translate(46.503784, 46.529276) scale(-1, 1) rotate(-10.000000) translate(-46.503784, -46.529276) translate(17.726459, 12.210724)" fill-rule="nonzero">
                    <path d="M23.8399819,32.4406381 C23.8399819,32.4406381 18.0395389,31.6962748 18.1092915,38.0250987 C18.1092915,38.0250987 12.3897133,35.8691683 11.5528162,41.9197904 C11.5528162,41.9197904 4.43832016,43.0325976 4.99634085,50.1264766 C5.55436153,57.2203555 13.3663834,56.0381313 14.9706929,55.1339755 C14.9706929,55.1339755 17.6909098,63.1320102 28.5720455,57.9854104 C28.5720455,57.9854104 29.4090765,63.3406616 39.4530473,62.1583039 L43.7775737,67.4440046 L45.3121306,67.4440046 L43.6380685,59.0286672 C43.6380685,59.0286672 47.6835846,59.5850708 47.962595,55.2730764 C47.962595,55.2730764 52.4266266,50.196027 45.6608935,47.1359407 C45.6608935,47.1359407 47.8030075,33.0663252 33.6638504,33.4349025 C33.6635826,33.4349025 30.4075694,28.247053 23.8399819,32.4406381 Z" id="Shape" fill="#05A3E8"></path>
                    <path d="M45.337526,67.4440046 L43.8019964,67.4440046 L39.4747288,62.1455101 C29.4242575,63.3307296 28.5868299,57.9625162 28.5868299,57.9625162 C17.698931,63.1215732 14.9768559,55.1041795 14.9768559,55.1041795 C13.3715295,56.0105238 5.55455581,57.1957433 4.99618141,50.0845601 C4.91526535,49.0472086 4.99618141,48.136716 5.19713189,47.3405033 C6.5581025,52.9973605 13.4776313,51.9068836 14.9767219,51.0606232 C14.9767219,51.0606232 17.6986631,59.0780169 28.5866959,53.91896 C28.5866959,53.91896 29.4242575,59.2871733 39.4745948,58.1019538 L43.8018624,63.4004484 L44.5346619,63.4004484 L45.337526,67.4440046 Z" id="Shape" fill="#0091D0"></path>
                    <path d="M41.430522,12.6075481 C41.430522,6.13709865 36.1465048,0.891687561 29.6282675,0.891687561 C23.1420758,0.891554463 17.8816569,6.06655646 17.8261472,12.5049292 C17.8006717,15.4630429 18.8797595,18.1703991 20.6785967,20.2452713 C23.117807,23.058707 24.4721641,26.6398547 24.4721641,30.3518382 L24.4721641,32.1007522 L34.7841028,32.1007522 L34.7841028,30.3522375 C34.7841028,26.620023 36.1777458,23.0416704 38.6161516,20.2006833 C40.3712782,18.1558914 41.430522,15.5045697 41.430522,12.6075481 Z" id="Shape" fill="#A1E3FF"></path>
                    <g id="Group" transform="translate(17.825706, 0.972750)" fill="#BCEBFF">
                        <path d="M5.66904446,18.88142 C8.1121397,21.7028246 9.468639,25.2943586 9.468639,29.0176516 L9.468639,31.2877243 L6.66285274,31.2877243 L6.66285274,29.533207 C6.66285274,25.8099141 5.30635345,22.2183801 2.86325821,19.3971089 C1.0624255,17.3164648 -0.0179935563,14.6009212 0.00671401353,11.6332067 C0.0598890007,5.42705093 4.92889161,0.390840284 11.0750339,0.00944671395 C6.31493256,1.49697508 2.85694704,5.89201201 2.81236599,11.1176512 C2.78658417,14.0840308 3.86700323,16.7995744 5.66904446,18.88142 Z" id="Shape"></path>
                        <path d="M17.9836195,18.88142 C15.5405243,21.7028246 14.184025,25.2943586 14.184025,29.0176516 L14.184025,31.2877243 L16.9898112,31.2877243 L16.9898112,29.533207 C16.9898112,25.8099141 18.3463105,22.2183801 20.7894058,19.3971089 C22.5902385,17.3164648 23.6706575,14.6009212 23.64595,11.6332067 C23.592775,5.42705093 18.7237724,0.390840284 12.5776301,0.00944671395 C17.3377314,1.49697508 20.7957169,5.89201201 20.840298,11.1176512 C20.8660798,14.0840308 19.7856607,16.7995744 17.9836195,18.88142 Z" id="Shape"></path>
                    </g>
                    <rect id="Rectangle-path" fill="#28BEFF" x="23.9303997" y="32.3439397" width="11.4768244" height="7.53881302"></rect>
                    <path d="M40.0738853,42.1353276 C40.2929255,42.2290078 39.7880168,41.7262885 39.6445448,41.5372057 C34.7545276,35.090898 29.5240501,40.3942283 29.5240501,40.3942283 C23.1072052,35.7247959 19.1280406,43.36748 19.1280406,43.36748 C19.1280406,43.36748 25.1176964,38.902766 29.3208764,44.1790655 C29.3208764,44.178933 32.6367348,38.9555025 40.0738853,42.1353276 Z" id="Shape" fill="#17B5FA"></path>
                    <g id="Group" transform="translate(9.034947, 24.237689)" fill="#22B8FA">
                        <polygon id="Shape" points="6.84339154 6.87096086 0.00804032843 5.73945299 5.71238534 0.032443709"></polygon>
                    </g>
                    <g id="Group-7-Copy-2" transform="translate(-0.000000, -0.000000)" fill="#003247">
                        <path d="M8.15071257,44.1877289 C8.3381256,44.1877289 8.52795167,44.1354945 8.69699876,44.0262165 C10.1394624,43.09388 11.6159768,42.8459337 11.6279079,42.8439299 C12.0661434,42.7753973 12.407455,42.428994 12.4681832,41.9909468 C12.671147,40.5249114 13.205368,39.5240423 14.0560998,39.0162602 C15.5505779,38.1246691 17.6637335,38.8872106 17.6818314,38.8937566 C17.9927118,39.0106494 18.3412625,38.9673656 18.6135342,38.7776654 C18.8856718,38.5879652 19.0464073,38.2765629 19.0427878,37.9455227 C19.0245559,36.2974017 19.445766,35.0767743 20.2947551,34.3177062 C21.0621028,33.6315792 22.061639,33.4194356 22.7700012,33.3625255 L22.7700012,38.4216435 C19.8787732,39.7168151 18.2770487,42.7675154 18.2019762,42.913264 C17.9487408,43.4048815 18.1432589,44.0071129 18.6360559,44.2602692 C18.7832516,44.3358821 18.9405015,44.3718182 19.0954726,44.3718182 C19.459574,44.3718182 19.811208,44.1742361 19.9901754,43.8299703 C20.0069326,43.7977747 21.7010231,40.5947798 24.4413018,39.9604864 C25.8383198,39.6371945 27.325961,40.0471874 28.8638739,41.1789764 C29.2685949,41.4767523 29.8317724,41.4306632 30.1820659,41.0713015 C30.2013702,41.0517971 32.1305983,39.1064346 34.5551706,39.3233876 C36.198453,39.4714072 37.7422645,40.6029289 39.1439745,42.6864252 C39.4532463,43.1458471 40.0776882,43.2686179 40.5389817,42.960689 C41.0001411,42.6524929 41.1233403,42.0300892 40.8142027,41.5705337 C39.4718803,39.5754751 37.9601087,38.2737575 36.3056994,37.6783392 L36.3056994,34.4937801 C38.5825398,34.7966325 40.4232897,35.6080685 41.7847823,36.9139275 C41.9798366,37.1009559 42.2309272,37.1940693 42.4818837,37.1940693 C42.7457098,37.1940693 43.0091336,37.0912037 43.2063329,36.886942 C43.5914814,36.4883043 43.5792822,35.8540109 43.1792532,35.4703355 C41.4466881,33.8084546 39.1360651,32.8041121 36.3056994,32.4754765 L36.3056994,32.3265218 C36.3056994,31.9141242 36.0555473,31.5601061 35.6982828,31.4064757 L35.6982828,30.5715275 C35.6982828,27.1287356 36.9737102,23.7409834 39.2895615,21.0322779 C40.7670143,19.3041356 41.7556917,17.2139597 42.1491518,14.9875203 C42.2454054,14.4424661 41.8800975,13.9229279 41.3332751,13.8268755 C40.7853802,13.7304223 40.2648331,14.0951276 40.1685795,14.6399146 C39.8373223,16.5151415 39.004018,18.2761474 37.7587536,19.7325642 C35.1332285,22.8034368 33.6872793,26.6528819 33.6872793,30.5715275 L33.6872793,31.324584 L32.3141236,31.324584 L32.3141236,27.7229515 C32.3141236,27.169481 31.8640911,26.7210137 31.3086889,26.7210137 C30.7532868,26.7210137 30.3032542,27.169481 30.3032542,27.7229515 L30.3032542,27.8908763 L28.7720442,27.8908763 L28.7720442,27.7229515 C28.7720442,27.169481 28.3220117,26.7210137 27.7666095,26.7210137 C27.2112074,26.7210137 26.7611748,27.169481 26.7611748,27.7229515 L26.7611748,31.3247176 L25.3881532,31.3247176 L25.3881532,30.5713939 C25.3881532,26.6221558 23.9548055,22.7875394 21.3519361,19.7737104 C19.6473892,17.8000265 18.7209146,15.2760784 18.7434363,12.6670323 C18.7938421,6.78726038 23.6362838,2.00374205 29.5379174,2.00387564 C34.8301234,2.00387564 39.306989,5.77196339 40.1827897,10.9634708 C40.2748875,11.5090593 40.7931556,11.8768373 41.3410504,11.7854606 C41.8886772,11.6935495 42.2580069,11.1768168 42.1659091,10.6312282 C41.6697606,7.69060751 40.1368078,4.99926894 37.8493768,3.05270415 C35.5358045,1.08423031 32.5841164,-1.70530257e-13 29.5379174,-1.70530257e-13 C29.5377833,-1.70530257e-13 29.5379174,-1.70530257e-13 29.5376492,-1.70530257e-13 C26.1343198,-1.70530257e-13 22.931407,1.31227136 20.519034,3.69501308 C18.106527,6.07815558 16.7617916,9.25843981 16.7325669,12.6496653 C16.7060235,15.7445845 17.8051647,18.7387755 19.8278312,21.0807717 C22.1167368,23.7310976 23.3774179,27.1016164 23.3774179,30.5712603 L23.3774179,31.3412829 C22.4500049,31.3229809 20.4879326,31.4651224 18.9690559,32.8110589 C17.9173712,33.7431283 17.2899799,35.0447123 17.0961321,36.6910965 C16.0113351,36.5111485 14.4239548,36.4677312 13.036723,37.289053 C11.7885094,38.0282159 10.9698174,39.2834436 10.5972703,41.0257467 C9.88609287,41.2171836 8.74338281,41.6076722 7.60268363,42.3450984 C7.13683222,42.6462141 7.0042489,43.266614 7.30641554,43.7309788 C7.49892277,44.0267509 7.82146622,44.1877289 8.15071257,44.1877289 Z M34.2949641,33.3285932 L34.2949641,34.7812694 L24.7808706,34.7812694 L24.7808706,33.3285932 L34.2949641,33.3285932 L34.2949641,33.3285932 Z M29.3865659,39.1083049 C27.8451675,38.1372268 26.3017582,37.7266994 24.7808706,37.8793948 L24.7808706,36.7852787 L34.2949641,36.7852787 L34.2949641,37.3041489 C32.0910512,37.2631362 30.2969535,38.3925205 29.3865659,39.1083049 Z M28.7721783,29.8946183 L30.3033883,29.8946183 L30.3033883,31.324584 L28.7721783,31.324584 L28.7721783,29.8946183 Z" id="Shape"></path>
                        <path d="M46.6433337,46.3921626 C46.7498766,45.0062132 46.799668,41.9139759 45.5543472,38.9564279 C45.3392537,38.4458924 44.7508584,38.2062069 44.2396933,38.4208806 C43.7287959,38.635688 43.4888067,39.223934 43.7037664,39.7346033 C45.1155939,43.0872579 44.5847532,46.7991732 44.5793992,46.8348853 C44.5119399,47.2788118 44.7480476,47.7135092 45.1570867,47.8990248 C46.950113,48.7118422 47.9901111,49.7183341 48.2477683,50.8904123 C48.6427534,52.6876524 47.1310754,54.4620207 47.118226,54.477001 C46.9723318,54.6432561 46.8855983,54.8531147 46.8712766,55.0738072 C46.8052896,56.0964833 46.4874009,56.8499143 45.9265782,57.3133687 C45.4287979,57.7247932 44.8061376,57.8636289 44.3436931,57.9052261 L43.4102379,53.9993688 C43.2814763,53.4604776 42.7407308,53.1281013 42.2006546,53.256638 C41.6615153,53.3853084 41.3286356,53.9264734 41.4573973,54.4653645 L42.5688701,59.116494 L43.9476372,66.0626924 L40.1434126,61.4027353 C39.9264451,61.1372354 39.5886131,60.999336 39.2479702,61.0406657 C30.5074355,62.0725707 29.5327552,57.966485 29.4784129,57.6952338 C29.4365185,57.378774 29.2481946,57.1151467 28.9677832,56.9615982 C28.6856319,56.8071134 28.3480675,56.8119285 28.0570822,56.9495604 C24.467148,58.6513008 21.4816709,59.0286182 19.1835027,58.0705449 C16.6917904,57.0318185 15.8466749,54.6954198 15.8401163,54.6766944 C15.7440135,54.3938066 15.5267784,54.1682989 15.2474379,54.0616977 C14.9680973,53.9549628 14.6558302,53.9785033 14.3954961,54.1256317 C13.7079195,54.5136494 10.5612895,55.2141142 8.28011996,54.0008401 C6.86748936,53.2496828 6.0729683,51.8709561 5.91837399,49.9031808 C5.83177441,48.7987817 5.94768668,47.7932261 6.26316615,46.9142009 C6.4502855,46.3926976 6.17897583,45.8183619 5.65723677,45.6312414 C5.1354977,45.4446558 4.56075487,45.7152383 4.37336783,46.2367415 C3.96138404,47.3846104 3.80772666,48.6709138 3.91681269,50.0600732 C4.18049303,53.4178104 5.92212173,55.0195035 7.3368939,55.7717308 C9.63118053,56.9918264 12.6127761,56.8043045 14.3813082,56.2761136 C14.9614049,57.323534 16.1724606,58.9752507 18.3713137,59.9055034 C20.9912523,61.0135138 24.198783,60.7791784 27.9176127,59.2103886 C28.7905686,60.9394146 31.39217,63.8327612 38.9320892,63.0925716 L42.911253,67.9666675 C43.1019863,68.2002003 43.3876177,68.3356922 43.6891769,68.3356922 L45.2233414,68.3356922 C45.5238299,68.3356922 45.8085244,68.2011366 45.9991238,67.9692088 C46.189857,67.7371472 46.2665519,67.4319227 46.2080603,67.1373984 L44.7663847,59.8736701 C45.4939819,59.7766991 46.3999982,59.5170844 47.1858191,58.8758722 C48.1338637,58.1026456 48.6920094,56.9764447 48.8474068,55.5248226 C49.3905615,54.8022885 50.7057509,52.7596115 50.2125214,50.4764465 C49.8542106,48.8188447 48.6547997,47.4470731 46.6433337,46.3921626 Z" id="Shape"></path>
                        <path d="M13.8419982,46.8497263 C12.5585458,46.9198089 11.7376856,47.8413015 11.6484157,47.946155 L12.3944002,48.6136993 L13.1318009,49.2911201 C13.134178,49.2884142 13.3730673,49.0268895 13.716545,48.9191948 C13.9662629,48.8411298 14.3670529,48.8010825 14.9553624,49.3586322 C15.1459193,49.5392507 15.3871856,49.62841 15.6276596,49.62841 C15.8941486,49.62841 16.1598453,49.5188212 16.3550241,49.3027555 C16.7264977,48.8913241 16.7020673,48.2493505 16.300485,47.8687664 C15.3491535,46.9672974 14.4373067,46.8161732 13.8419982,46.8497263 Z" id="Shape"></path>
                        <path d="M37.4960503,46.9575097 C38.6403809,46.5200353 39.9179252,46.6175487 41.292777,47.2476454 C41.795866,47.4782044 42.3898554,47.2567288 42.6197093,46.7538003 C42.8499636,46.2507381 42.6289194,45.6561737 42.1262309,45.4258819 C40.2381456,44.560818 38.4345535,44.448878 36.7652431,45.0920655 C34.8192271,45.842117 33.550359,47.452557 32.8864257,48.5201281 C31.3632768,47.6877914 29.8286485,47.5444601 28.5930171,47.6433092 C26.3350565,47.8255123 24.6269032,48.8463304 24.5553575,48.8896103 C24.0833696,49.1754714 23.9328033,49.788737 24.2168503,50.2618772 C24.5010309,50.7350175 25.1151759,50.8881001 25.5892995,50.6054449 C25.8095428,50.473735 31.0242356,47.4444087 34.4114434,52.7236223 C34.6028548,53.0216392 34.9254778,53.1843396 35.2547748,53.1843396 C35.4400461,53.1843396 35.6273196,53.1329113 35.7947045,53.0255131 C36.2600185,52.7265611 36.3949675,52.1067501 36.096371,51.6410903 C35.5958182,50.8609834 35.0616282,50.2240741 34.5103526,49.7055167 C34.9958222,48.8936177 35.9951926,47.5311021 37.4960503,46.9575097 Z" id="Shape"></path>
                        <path d="M56.4523635,40.0391848 L55.4501514,40.0391848 L55.4501514,39.0415321 C55.4501514,38.4844118 54.9966635,38.0329871 54.4369971,38.0329871 C53.8773308,38.0329871 53.4238429,38.4844118 53.4238429,39.0415321 L53.4238429,40.0391848 L52.4214957,40.0391848 C51.8618293,40.0391848 51.4083415,40.4906095 51.4083415,41.0477298 C51.4083415,41.60485 51.8618293,42.0562748 52.4214957,42.0562748 L53.4238429,42.0562748 L53.4238429,43.054062 C53.4238429,43.6111822 53.8773308,44.062607 54.4369971,44.062607 C54.9966635,44.062607 55.4501514,43.6111822 55.4501514,43.054062 L55.4501514,42.0562748 L56.4523635,42.0562748 C57.0120299,42.0562748 57.4655177,41.60485 57.4655177,41.0477298 C57.4655177,40.4906095 57.0118948,40.0391848 56.4523635,40.0391848 Z" id="Shape"></path>
                        <path d="M10.3537868,15.1449219 L11.356134,15.1449219 L11.356134,16.1425746 C11.356134,16.6996949 11.8096218,17.1511196 12.3692882,17.1511196 C12.9289546,17.1511196 13.3824424,16.6996949 13.3824424,16.1425746 L13.3824424,15.1449219 L14.3846545,15.1449219 C14.9443209,15.1449219 15.3978087,14.6934971 15.3978087,14.1363769 C15.3978087,13.5792566 14.9443209,13.1278319 14.3846545,13.1278319 L13.3824424,13.1278319 L13.3824424,12.1300447 C13.3824424,11.5729244 12.9289546,11.1214997 12.3692882,11.1214997 C11.8096218,11.1214997 11.356134,11.5729244 11.356134,12.1300447 L11.356134,13.1278319 L10.3537868,13.1278319 C9.79412037,13.1278319 9.34063254,13.5792566 9.34063254,14.1363769 C9.34063254,14.6934971 9.79425545,15.1449219 10.3537868,15.1449219 Z" id="Shape"></path>
                        <path d="M46.0462475,32.1579728 C46.1006992,32.1579728 46.1556873,32.1535671 46.2105413,32.1444888 L53.051732,31.0177035 C53.4236393,30.9564246 53.7299633,30.6932855 53.8451701,30.3360251 C53.9603769,29.9787648 53.8652877,29.5873271 53.5987965,29.3217849 L47.8895561,23.6387287 C47.6230649,23.3733201 47.2296988,23.2786648 46.8706667,23.3934794 C46.5116347,23.5081605 46.2474235,23.8132202 46.1858637,24.1832971 L45.0540476,30.993272 C45.0010712,31.3119493 45.1058168,31.6363674 45.3351575,31.864795 C45.5252017,32.0541056 45.7816341,32.1579728 46.0462475,32.1579728 Z M47.8509303,26.4324619 L50.7919891,29.360101 L47.2680564,29.9405823 L47.8509303,26.4324619 Z" id="Shape"></path>
                        <path d="M10.7946632,31.415758 L17.6358904,32.5425432 C17.6906106,32.5514881 17.7454648,32.5560273 17.800185,32.5560273 C18.0647999,32.5560273 18.3213677,32.4520266 18.5115471,32.2628495 C18.740889,32.0344218 18.845501,31.7098703 18.7926585,31.3913265 L17.6607022,24.5813516 C17.5991421,24.2111412 17.3347954,23.906215 16.9758955,23.7915338 C16.6167274,23.6767192 16.2236274,23.7713745 15.9570007,24.0367832 L10.2478639,29.7198394 C9.98137135,29.985248 9.88628166,30.3766858 10.0014891,30.7340796 C10.1166965,31.0914734 10.4226197,31.354479 10.7946632,31.415758 Z M15.9952244,26.8305164 L16.5783696,30.3385032 L13.0542839,29.7580219 L15.9952244,26.8305164 Z" id="Shape"></path>
                    </g>
                </g>
            </g>
        </g>
    </g>
</svg>